<svg width="126" height="126" viewBox="0 0 126 126" fill="none" xmlns="http://www.w3.org/2000/svg">
<circle cx="63" cy="63" r="63" fill="url(#paint0_linear)"/>
<path d="M36.0985 99.4196L30 31H97L90.894 99.4082L63.4584 107.016L36.0985 99.4196Z" fill="#1572B6"/>
<path d="M63.5 101.202L85.6694 95.0518L90.8826 36.594H63.5V101.202Z" fill="#33A9DC"/>
<path d="M63.5 61.3813H74.5998L75.364 52.7896H63.5V44.4023H84.5344L84.3339 46.6543L82.2721 69.78H63.5V61.3813Z" fill="white"/>
<path d="M63.5454 83.1748H63.5076L54.1669 80.6503L53.5692 73.9586H45.1554L46.332 87.1338L63.5151 91.9179H63.5643V83.1748H63.5454Z" fill="#EBEBEB"/>
<path d="M73.8886 69.4129L72.8785 80.6427L63.5227 83.1672V91.9103L80.7172 87.1414L80.8421 85.722L82.3024 69.4091H73.8886V69.4129Z" fill="white"/>
<path d="M63.5303 44.4023V52.7934H43.2752L43.1012 50.9085L42.7191 46.6543L42.5186 44.4023H63.5303ZM63.5 61.3813V69.7724H54.2653L54.1026 67.8876L53.7205 63.6333L53.52 61.3813H63.4963H63.5Z" fill="#EBEBEB"/>
<defs>
<linearGradient id="paint0_linear" x1="118" y1="32.5" x2="-12.5" y2="126" gradientUnits="userSpaceOnUse">
<stop stop-color="#BDCCFF"/>
<stop offset="1" stop-color="#6D8DFF"/>
</linearGradient>
</defs>
</svg>
