<svg width="139" height="139" viewBox="0 0 139 139" fill="none" xmlns="http://www.w3.org/2000/svg">
<circle cx="69.5" cy="69.5" r="69.5" fill="white"/>
<path d="M43.4378 14.1718C43.4378 16.6494 43.4378 16.6494 41.4026 16.6494C39.301 16.6494 38.1949 17.1361 36.8233 18.6625C35.673 19.9235 34.8545 21.5605 34.5005 23.2196C34.3678 23.8611 33.9032 25.2991 33.4608 26.4273C32.399 29.1262 32.2441 30.8517 32.9078 32.9975L33.3944 34.5903L32.6644 35.5857C32.0008 36.5149 31.9565 36.6918 31.9565 38.4173C31.9786 40.2756 32.4874 41.8905 33.4608 43.0851C33.6599 43.3284 33.5493 42.9302 33.2175 42.2002C32.6865 41.0498 32.6202 40.5853 32.598 38.7492C32.598 36.36 32.9078 35.6742 34.0138 35.6742C35.1642 35.6742 36.0269 36.4706 36.8676 38.351C37.31 39.3022 37.7967 40.0986 37.9294 40.0986C38.4603 40.0986 39.3452 38.7713 39.3452 37.9749C39.3452 36.1388 40.4513 34.7451 43.7032 32.4444C44.8536 31.6259 45.9818 30.6083 46.3136 30.1216C46.6233 29.635 47.0215 29.2589 47.1542 29.3252C47.3091 29.3695 47.4418 29.9447 47.4861 30.6526C47.5303 31.3826 47.663 31.9135 47.7958 31.9135C48.194 31.9135 49.6319 30.2101 50.0743 29.2589C50.2956 28.7722 50.5831 28.374 50.7159 28.374C50.8486 28.374 51.5123 28.9492 52.198 29.6571C53.1714 30.6526 54.0341 31.2277 56.4454 32.4666C59.7858 34.1699 61.2459 35.276 61.9317 36.6033C62.5953 37.8864 63.0156 37.4219 63.0156 35.4309C63.0156 34.6124 63.1041 33.8602 63.2369 33.7939C63.3475 33.7275 63.7678 34.1036 64.166 34.6787C64.9181 35.7406 65.2278 35.8733 65.6703 35.3424C66.0463 34.9 66.2675 35.0769 66.8206 36.2715C67.0861 36.8246 67.6391 37.6431 68.0815 38.0634L68.8558 38.8377L69.3425 38.2182C70.8689 36.2936 71.3998 31.1835 70.2937 28.8164C69.984 28.1528 69.2982 27.1131 68.7894 26.5379L67.8603 25.4539L68.6567 24.5912C69.077 24.1266 69.431 23.6842 69.431 23.6178C69.431 23.5514 68.9885 23.3081 68.4576 23.0869C67.1745 22.5117 66.2012 21.6268 64.2323 19.1713C61.3344 15.5654 60.3389 15.0566 55.7154 14.8797C53.1272 14.7691 52.3971 14.6584 51.8883 14.3266C51.3353 13.9727 51.1141 13.9505 49.9416 14.1718C49.2116 14.3045 48.0612 14.6584 47.3755 14.9682C46.7118 15.3 46.0482 15.5433 45.9375 15.5433C45.8269 15.5433 45.6057 15.2115 45.4287 14.8133C45.0748 13.9505 44.3226 12.9551 43.8138 12.6896C43.482 12.5126 43.4378 12.6675 43.4378 14.1718Z" fill="#252525"/>
<path d="M50.008 41.6914C49.1895 42.0896 49.455 42.8417 50.4283 42.9302C51.4238 43.0187 52.5742 42.2223 52.1539 41.7356C51.8663 41.3817 50.738 41.3596 50.008 41.6914Z" fill="#252525"/>
<path d="M61.2017 43.3062C60.4053 43.7487 60.4274 44.169 61.2238 44.5229C61.7547 44.722 61.9759 44.722 62.5511 44.4123C63.2369 44.0805 63.6351 43.5274 63.3917 43.2841C63.1041 42.9965 61.7326 42.9965 61.2017 43.3062Z" fill="#252525"/>
<path d="M90.0707 47.0006C86.3542 51.6462 79.3416 62.3753 77.4612 66.3573C76.4436 68.4588 76.51 69.1446 77.793 70.118C79.2088 71.202 79.4079 71.0029 78.1912 69.764C77.5497 69.1004 77.1736 68.5473 77.2621 68.3704C77.3285 68.2155 78.0806 67.1315 78.9434 65.9812C79.784 64.8309 81.8413 61.6674 83.5226 58.9464C87.8806 51.8896 91.2653 46.7352 91.6413 46.6024C92.0617 46.4476 93.765 47.3325 95.5348 48.6376C98.3664 50.7171 104.384 57.1767 104.384 58.1501C104.384 58.504 104.273 58.5483 99.8486 59.3446C92.9465 60.5835 92.0395 61.0259 90.0928 64.0124C89.0088 65.6715 86.686 70.0074 86.686 70.3392C86.686 70.8038 87.4161 70.848 88.3894 70.4056C89.4734 69.9189 89.7831 69.9853 89.7831 70.6268C89.7831 71.3347 88.3894 72.5072 86.5312 73.3699C83.8102 74.6309 83.2793 74.9627 82.859 75.6263C82.6377 75.9803 81.5316 77.75 80.4255 79.5419C78.5894 82.5726 78.0143 83.2805 77.7046 82.9487C77.4833 82.7275 77.8152 82.0417 79.1646 79.7852L80.4919 77.5952L79.6955 76.7988C78.7222 75.7812 79.054 75.6927 73.5235 78.5907C66.3782 82.3514 63.5908 83.7008 62.6396 83.8336C61.4229 83.9884 59.8522 83.2584 57.817 81.5992C55.7154 79.8516 53.9457 78.9889 53.9457 79.6968C53.9457 80.1392 52.8396 80.6259 51.3574 80.825C50.1407 80.9798 49.1231 81.4001 45.8712 83.0372C43.6811 84.1433 41.8007 85.1387 41.6901 85.2494C41.3804 85.5369 42.8847 85.5148 43.7254 85.2051C45.2296 84.6742 45.1854 85.0503 43.4378 87.0855C42.5086 88.1473 41.8007 89.0986 41.8671 89.1649C42.1105 89.3861 43.836 87.9703 45.1412 86.4661C47.1985 84.0769 47.9949 83.546 50.0522 83.192C50.6495 83.1035 50.738 82.6611 50.1849 82.5062C49.9416 82.4399 49.7425 82.285 49.7425 82.1302C49.7425 81.9753 50.1628 81.9089 51.0035 81.9532C52.6847 82.0417 52.7511 82.4399 51.3574 83.7672C50.7822 84.3202 49.7425 85.3157 49.0567 85.9572C47.4639 87.4837 46.8224 89.0322 45.2075 95.16C43.9023 100.182 43.482 101.221 42.2653 102.571C41.5574 103.367 41.5132 103.456 41.8892 103.721C42.3759 104.075 44.1899 104.473 45.3845 104.473C46.5791 104.473 48.6143 103.942 50.1628 103.257C54.2996 101.354 59.3876 96.3988 62.905 90.8683C63.7235 89.5631 65.9357 85.4484 66.1569 84.7848C66.3339 84.2539 67.0639 85.0281 72.0856 91.2001C74.6075 94.2972 77.1294 97.2836 77.6824 97.8146C78.6779 98.7658 78.7222 98.7879 79.8061 98.6552C81.1113 98.5004 81.045 98.3234 80.9565 101.597C80.9122 102.637 81.0007 103.898 81.1334 104.407C81.3989 105.425 82.4608 106.486 83.6996 106.995C85.9781 107.969 92.3714 108.787 96.4418 108.654C99.0079 108.566 99.4282 108.389 100.092 107.062C100.379 106.531 100.379 106.309 100.048 105.292C99.8486 104.65 99.561 103.964 99.4282 103.765C99.2734 103.566 98.1673 102.836 96.9506 102.128C94.3181 100.624 92.8802 99.6507 92.8802 99.4073C92.8802 99.2967 94.2738 99.1861 95.9551 99.1198C99.3398 99.0092 99.8928 98.8322 100.534 97.5934C100.711 97.2173 100.933 96.3767 100.999 95.713C101.11 94.629 101.065 94.4963 100.468 93.899C99.6937 93.1247 98.5434 92.7487 96.9063 92.7487C95.7781 92.7487 95.6675 92.6823 94.4729 91.5762C93.7872 90.9347 92.7474 90.0277 92.1501 89.5631C91.575 89.0986 90.9556 88.3685 90.7786 87.9261C90.5795 87.5058 90.0264 86.7536 89.5176 86.2891C89.0088 85.8245 88.7212 85.4484 88.8761 85.4484C89.4955 85.4484 93.6323 86.5988 96.3754 87.55C99.6052 88.6561 103.41 90.448 105.556 91.908C107.525 93.2353 109.737 95.536 110.489 97.0846C111.042 98.2349 111.131 98.6331 111.131 100.381C111.131 102.128 111.042 102.527 110.489 103.677C109.737 105.203 107.525 107.526 105.6 108.831C98.7203 113.433 87.6815 116.463 73.8775 117.525C70.0283 117.813 60.8477 117.813 57.0206 117.525C38.1728 116.065 23.9041 110.601 20.4089 103.456C19.8558 102.35 19.7674 101.885 19.7895 100.381C19.7895 98.1685 20.4531 96.6864 22.2671 94.6733C23.329 93.5451 23.3953 93.4123 22.7538 93.8548C21.0283 95.0272 18.8382 97.5049 17.9755 99.2746C17.157 100.912 17.1127 101.155 17.1127 103.013C17.1127 104.827 17.1791 105.159 17.8428 106.508C23.5723 118.233 54.8969 125.555 84.9163 122.171C104.804 119.914 119.316 113.565 122.347 105.734C122.944 104.252 122.966 101.686 122.391 100.27C119.537 93.0584 107.923 87.3067 90.3583 84.453C87.8143 84.0326 86.7524 83.7672 86.5312 83.5017C85.9118 82.6611 86.1772 82.3956 88.5443 81.555C90.9556 80.7144 91.8183 79.9622 93.8314 77.0421C97.393 71.8214 104.096 60.7604 105.069 58.5261L105.468 57.5749L104.096 55.5397C102.481 53.1063 98.4991 48.9916 96.4197 47.5979C94.7163 46.4697 92.8138 45.6512 91.8626 45.6291C91.2874 45.6291 90.9998 45.8503 90.0707 47.0006ZM92.305 63.1496C92.1059 63.8354 89.8716 67.6625 88.9646 68.9013C88.5443 69.4986 88.0576 69.9631 87.8806 69.9631C87.7036 69.9631 87.5709 69.9189 87.5709 69.8525C87.5709 69.6756 89.8495 65.8927 90.9334 64.2557C91.9953 62.685 92.6147 62.1762 92.305 63.1496ZM84.2526 75.7148C84.2526 76.3121 81.0671 81.7762 80.2265 82.6168C79.7176 83.1257 79.2973 83.1478 79.4964 82.6168C79.6955 82.0638 83.1465 76.3342 83.5447 75.8697C83.9208 75.4494 84.2526 75.383 84.2526 75.7148Z" fill="#252525"/>
<path d="M49.8531 50.2969C50.9813 52.1994 52.6626 53.217 54.6978 53.1948C55.4278 53.1948 56.357 53.0621 56.7109 52.9073L57.3746 52.6197L56.7109 52.5533C54.1669 52.2878 52.552 51.7569 50.6495 50.5845C50.1186 50.2526 49.7646 50.1199 49.8531 50.2969Z" fill="#252525"/>
<path d="M41.5574 56.69C41.5574 58.2828 45.3181 61.3356 47.287 61.3356C47.9949 61.3356 48.5479 60.694 48.3267 60.0967C48.1497 59.6543 47.7958 59.7207 47.6409 60.2295C47.5745 60.4728 47.3312 60.6719 47.11 60.6719C46.4242 60.6719 44.1457 59.0349 42.8183 57.5749C41.7344 56.3803 41.5574 56.2475 41.5574 56.69Z" fill="#252525"/>
<path d="M39.4559 60.495C37.31 65.1184 34.9872 71.6444 33.8369 76.2679C32.0229 83.5681 31.669 89.8949 32.8193 94.4299C33.3945 96.7085 34.766 99.1861 36.3809 100.845C37.4206 101.929 37.7082 102.15 37.3764 101.597C35.2306 98.08 34.1687 94.8281 33.8369 90.7134C33.2838 84.099 34.8545 75.6042 38.7037 64.1008C39.7656 60.9374 40.6062 58.327 40.5841 58.2828C40.5398 58.2607 40.0531 59.2561 39.4559 60.495Z" fill="#252525"/>
<path d="M50.4062 60.672C50.5831 60.8047 51.6007 61.3578 52.6847 61.9108C53.7466 62.486 54.7199 63.1275 54.8527 63.3487C55.0739 63.769 54.5872 65.1848 53.8129 66.3794L53.4811 66.8661L52.552 66.4015C52.0432 66.1361 51.3795 65.76 51.0698 65.5388C49.7425 64.6539 48.8576 64.1894 48.8576 64.4106C48.8576 64.6097 49.9195 65.5388 52.5962 67.7067C53.5475 68.481 53.7244 68.8571 53.1714 68.8571C52.552 68.8571 50.6053 69.9632 49.5877 70.9144C49.0567 71.4011 48.3488 72.2638 48.0391 72.8169C47.7294 73.3699 47.3312 74.0778 47.1542 74.3654L46.8224 74.8742L45.4509 73.4142C44.1457 72.0205 44.0572 71.9541 43.0396 71.9541C42.4644 71.9541 41.9998 71.9984 41.9998 72.0647C41.9998 72.109 42.7299 72.7063 43.6147 73.3699C44.4775 74.0557 45.7606 75.0733 46.4242 75.6264C47.9506 76.9316 49.1231 77.4625 50.4062 77.4846C50.9813 77.4846 51.5344 77.5952 51.6892 77.7501C51.8883 77.9492 52.0211 77.9492 52.198 77.7722C52.3971 77.5731 52.2644 77.3961 51.7556 77.0864C51.1804 76.7325 50.915 76.6882 50.4283 76.8873C49.0125 77.4182 48.7028 76.4449 49.6098 74.476C49.8974 73.8345 50.5168 72.9275 50.9592 72.4187C51.822 71.4675 54.1226 70.1844 54.9854 70.1844C55.5827 70.1844 55.6269 69.9189 55.1181 69.0783C54.7642 68.4589 54.7642 68.3925 55.3393 67.2643C56.003 65.937 56.0694 65.207 55.6269 64.1451C55.2287 63.1939 54.3881 62.5081 52.2202 61.3799C50.5831 60.5171 49.6319 60.1632 50.4062 60.672Z" fill="#252525"/>
<path d="M66.2675 68.7243C64.6748 69.388 63.8784 69.9853 61.2901 72.5072C58.6576 75.0291 58.5691 75.206 59.3877 75.8697C60.3831 76.6661 62.4626 77.7058 63.0599 77.7058C64.0111 77.7058 70.2937 75.383 74.3641 73.5027L75.8684 72.8169L75.4039 72.1753C74.6296 71.0914 72.4838 69.2774 71.3113 68.7243C69.8292 68.0164 67.9931 68.0164 66.2675 68.7243Z" fill="#252525"/>
<path d="M88.876 85.4485C89.4954 85.4485 93.6322 86.5988 96.3753 87.55C99.6051 88.6561 103.41 90.448 105.556 91.908C107.525 93.2353 109.737 95.536 110.489 97.0846C111.042 98.2349 111.131 98.6331 111.131 100.381C111.131 102.128 111.042 102.527 110.489 103.677C109.737 105.203 107.525 107.526 105.6 108.831C98.7202 113.433 87.6814 116.463 73.8774 117.525C70.0282 117.813 60.8476 117.813 57.0205 117.525C38.1727 116.065 23.9041 110.601 20.4088 103.456C19.8558 102.35 19.7673 101.885 19.7894 100.381C19.7894 98.1685 20.453 96.6864 22.267 94.6733C23.3289 93.5451 23.3953 93.4123 22.7537 93.8548C21.0282 95.0272 18.8381 97.5049 17.9754 99.2746C17.1569 100.912 17.1126 101.155 17.1126 103.013C17.1126 104.827 17.179 105.159 17.8427 106.508C23.5722 118.233 54.8968 125.555 84.9162 122.171C104.804 119.914 119.316 113.565 122.346 105.734C122.944 104.252 122.966 101.686 122.391 100.27C119.537 93.0584 107.923 87.3067 90.3582 84.453C88.1063 84.0809 87.0158 83.8302 86.6416 83.5934L86.5311 83.5017C86.5565 83.5322 86.593 83.5627 86.6416 83.5934L88.876 85.4485Z" fill="#FF4D4D"/>
<path d="M41.5573 56.69C41.5573 58.2828 45.318 61.3356 47.2869 61.3356C47.9948 61.3356 48.5478 60.694 48.3266 60.0967C48.1496 59.6543 47.7957 59.7207 47.6408 60.2295C47.5745 60.4728 47.3311 60.6719 47.1099 60.6719C46.4241 60.6719 44.1456 59.0349 42.8183 57.5749C41.7343 56.3803 41.5573 56.2475 41.5573 56.69Z" fill="#FF4D4D"/>
<path fill-rule="evenodd" clip-rule="evenodd" d="M90.1359 47.0006C86.4195 51.6462 79.4068 62.3753 77.5265 66.3573C76.5089 68.4589 76.5752 69.1446 77.8583 70.118C79.2741 71.202 79.4732 71.0029 78.2565 69.7641C77.6149 69.1004 77.2389 68.5474 77.3274 68.3704C77.3937 68.2155 78.1459 67.1316 79.0086 65.9812C79.8493 64.8309 81.9066 61.6674 83.5879 58.9465C87.9459 51.8896 91.3305 46.7352 91.7066 46.6025C92.1269 46.4476 93.8303 47.3325 95.6 48.6377C98.4316 50.7171 104.449 57.1767 104.449 58.1501C104.449 58.504 104.338 58.5483 99.9138 59.3447C93.0118 60.5835 92.1048 61.0259 90.1581 64.0124C89.0741 65.6715 86.7513 70.0074 86.7513 70.3392C86.7513 70.8038 87.4813 70.848 88.4547 70.4056C89.5386 69.9189 89.8483 69.9853 89.8483 70.6268C89.8483 71.3347 88.4547 72.5072 86.5964 73.3699C83.8754 74.6309 83.3445 74.9627 82.9242 75.6263L82.9241 75.6264C82.7028 75.9806 81.5968 77.7502 80.4908 79.5419C78.6547 82.5726 78.1968 82.9293 77.7698 82.9487C77.7698 82.9487 79.5044 83.555 80.6633 83.6663C83.0863 83.8991 86.7513 82.3294 86.7513 82.3294C87.1102 82.1124 87.7072 81.8755 88.6095 81.555C91.0208 80.7144 91.8836 79.9622 93.8967 77.0422C97.4583 71.8214 104.161 60.7605 105.135 58.5261L105.533 57.5749L104.161 55.5397C102.546 53.1063 98.5644 48.9916 96.4849 47.5979C94.7815 46.4697 92.879 45.6512 91.9278 45.6291C91.3526 45.6291 91.0651 45.8503 90.1359 47.0006ZM89.0297 68.9013C89.9367 67.6625 92.171 63.8354 92.3701 63.1496C92.6798 62.1763 92.0604 62.6851 90.9985 64.2557C89.9146 65.8928 87.636 69.6756 87.636 69.8526C87.636 69.9189 87.7687 69.9632 87.9457 69.9632C88.1227 69.9632 88.6094 69.4986 89.0297 68.9013ZM80.2915 82.6169C81.1322 81.7763 84.3177 76.3122 84.3177 75.7149C84.3177 75.383 83.9859 75.4494 83.6098 75.8697C83.2116 76.3343 79.7606 82.0638 79.5615 82.6169C79.3624 83.1478 79.7827 83.1257 80.2915 82.6169Z" fill="#FF4D4D"/>
</svg>
