<svg width="175" height="175" viewBox="0 0 175 175" fill="none" xmlns="http://www.w3.org/2000/svg">
<path d="M39.0069 91.1228H32.4797C31.3565 91.1248 30.3921 91.9219 30.1787 93.0246L19.8948 145.806C19.628 147.185 19.9922 148.611 20.8877 149.692C21.7832 150.774 23.1158 151.399 24.5202 151.394H75.165C75.165 153.977 80.4243 156.09 86.9046 156.09C93.3849 156.09 98.6442 153.977 98.6442 151.394H149.289C150.693 151.399 152.026 150.774 152.921 149.692C153.817 148.611 154.181 147.185 153.914 145.806L143.63 93.0246C143.417 91.9219 142.453 91.1248 141.33 91.1228H39.0069Z" fill="#E64C3C"/>
<path d="M86.9046 97.9552V142.002C83.4696 140.51 79.8895 139.377 76.2215 138.621C62.2788 135.59 47.7803 136.328 34.2171 140.758C33.4375 140.996 32.5904 140.816 31.975 140.281C31.3595 139.747 31.0623 138.934 31.1883 138.128L39.0069 91.1228L39.6643 87.1548C39.8326 86.1478 40.6277 85.3622 41.6366 85.206C43.2332 84.9712 44.8767 84.7364 46.5203 84.5486C49.3894 90.1258 55.1342 93.6325 61.4061 93.6351C61.8287 93.6351 62.2279 93.6116 62.627 93.5881C64.1905 93.4661 65.7305 93.1344 67.2055 92.602C67.2104 92.6519 67.2264 92.7 67.2525 92.7428C69.0093 97.6634 73.6734 100.945 78.8982 100.937C81.8403 100.947 84.6856 99.8871 86.9046 97.9552V97.9552Z" fill="#F5EFCA"/>
<path d="M139.592 140.758C126.029 136.328 111.53 135.59 97.5876 138.621C93.9196 139.377 90.3396 140.51 86.9046 142.002V97.9553C87.3983 97.5516 87.8542 97.1036 88.2664 96.617C90.6122 97.55 93.1142 98.0281 95.6388 98.0257H95.7797C95.9017 99.7046 96.5416 101.304 97.6111 102.604C99.8901 104.857 102.739 106.448 105.852 107.206C108.112 107.927 110.127 109.26 111.675 111.057C113.055 112.766 115.394 113.368 117.428 112.536C119.218 111.763 120.38 110.002 120.386 108.051C120.388 107.541 120.309 107.034 120.151 106.549C119.916 105.821 119.658 105.093 119.353 104.389C118.764 102.934 117.991 101.561 117.052 100.303C121.709 97.7848 124.979 93.298 125.951 88.094C126.021 88.0001 126.115 87.9062 126.185 87.8122C126.989 86.867 127.646 85.8065 128.134 84.666C129.496 84.8304 130.834 84.9947 132.173 85.206C133.182 85.3622 133.977 86.1478 134.145 87.1548L134.802 91.1228L142.621 138.128C142.747 138.934 142.45 139.747 141.834 140.281C141.219 140.816 140.372 140.996 139.592 140.758V140.758Z" fill="#F9EAB0"/>
<path d="M98.6442 151.394C98.6442 153.977 93.3849 156.09 86.9046 156.09C80.4243 156.09 75.165 153.977 75.165 151.394L76.2215 138.621C79.8895 139.377 83.4695 140.51 86.9046 142.002C90.3396 140.51 93.9197 139.377 97.5876 138.621L98.6442 151.394Z" fill="#C03A2B"/>
<path d="M129.167 79.7586C129.165 81.4481 128.813 83.1189 128.134 84.6658C127.646 85.8062 126.989 86.8668 126.185 87.812C126.115 87.9059 126.021 87.9999 125.951 88.0938C124.979 93.2978 121.709 97.7846 117.052 100.303C117.991 101.561 118.764 102.934 119.353 104.388C119.658 105.093 119.916 105.821 120.151 106.548C120.309 107.034 120.389 107.541 120.386 108.051C120.38 110.001 119.218 111.762 117.428 112.536C115.394 113.368 113.055 112.766 111.675 111.056C110.127 109.26 108.112 107.927 105.852 107.206C102.739 106.448 99.8901 104.857 97.6112 102.604C96.5416 101.304 95.9017 99.7044 95.7798 98.0255H95.6389C93.1143 98.0279 90.6123 97.5498 88.2664 96.6167C87.8542 97.1034 87.3984 97.5514 86.9046 97.9551C84.6857 99.887 81.8403 100.947 78.8982 100.937C73.6734 100.945 69.0093 97.6632 67.2525 92.7427C67.2264 92.6998 67.2104 92.6517 67.2055 92.6018C65.7305 93.1343 64.1905 93.4659 62.6271 93.5879C62.2279 93.6114 61.8288 93.6349 61.4061 93.6349C55.0603 93.6305 49.2601 90.0458 46.4182 84.3719C43.5763 78.698 44.1792 71.9062 47.976 66.8216C47.6936 66.0548 47.5505 65.2438 47.5534 64.4267C47.5392 60.9568 49.9765 57.9595 53.3762 57.2655C53.3889 57.2528 53.4054 57.2445 53.4232 57.242C53.3997 56.9603 53.3762 56.6785 53.3762 56.3733C53.3731 55.0711 53.6451 53.7829 54.1745 52.5931C55.6726 49.1284 59.0871 46.8859 62.8619 46.8877C64.2854 46.8809 65.6914 47.2023 66.9707 47.8269C69.4703 43.6184 74.0034 41.0396 78.8982 41.0413C82.2565 41.0292 85.501 42.2584 88.0081 44.4928C89.4474 42.1712 92.0654 40.8508 94.7879 41.0736C97.5104 41.2963 99.879 43.0247 100.922 45.5494C101.592 45.4745 102.266 45.4353 102.941 45.432C112.038 45.447 119.609 52.4258 120.363 61.4918H120.433C122.367 61.4918 124.222 62.2618 125.588 63.6319C126.954 65.002 127.718 66.8594 127.712 68.7938C127.707 70.0588 127.384 71.3023 126.772 72.4096C128.331 74.543 129.169 77.1169 129.167 79.7586V79.7586Z" fill="#FB7B76"/>
<path d="M86.9046 26.9539C85.6079 26.9539 84.5567 25.9027 84.5567 24.606V22.2581C84.5567 20.9614 85.6079 19.9102 86.9046 19.9102C88.2013 19.9102 89.2525 20.9614 89.2525 22.2581V24.606C89.2525 25.9027 88.2013 26.9539 86.9046 26.9539Z" fill="#F0C419"/>
<path d="M124.746 43.1149C123.797 43.1147 122.941 42.5427 122.577 41.6654C122.214 40.7882 122.415 39.7785 123.086 39.107L125.434 36.7591C126.024 36.1487 126.897 35.9039 127.717 36.1188C128.538 36.3337 129.179 36.9748 129.394 37.7957C129.609 38.6166 129.364 39.4896 128.754 40.0791L126.406 42.427C125.966 42.8673 125.369 43.1148 124.746 43.1149V43.1149Z" fill="#F0C419"/>
<path d="M49.0631 43.1149C48.4404 43.1148 47.8433 42.8673 47.4031 42.427L45.0552 40.0791C44.4448 39.4896 44.2 38.6166 44.4149 37.7957C44.6298 36.9748 45.2708 36.3337 46.0917 36.1188C46.9126 35.9039 47.7856 36.1487 48.3751 36.7591L50.723 39.107C51.3943 39.7785 51.5951 40.7882 51.2318 41.6654C50.8685 42.5427 50.0126 43.1147 49.0631 43.1149Z" fill="#F0C419"/>
<path d="M67.1374 33.2347C66.1879 33.2349 65.3316 32.6632 64.9679 31.786L62.2725 25.2776C61.9298 24.4988 62.0352 23.5956 62.5481 22.9167C63.0609 22.2378 63.9008 21.8894 64.7436 22.0061C65.5864 22.1228 66.3001 22.6863 66.6091 23.4791L69.3069 29.9875C69.5463 30.5631 69.5469 31.2104 69.3086 31.7865C69.0704 32.3625 68.6127 32.8202 68.0367 33.0586C67.7512 33.175 67.4457 33.2348 67.1374 33.2347V33.2347Z" fill="#F0C419"/>
<path d="M106.672 33.2347C106.363 33.234 106.058 33.1734 105.773 33.0562C105.197 32.8179 104.74 32.3606 104.502 31.785C104.263 31.2095 104.264 30.5629 104.502 29.9875L107.2 23.4791C107.509 22.6863 108.223 22.1228 109.066 22.0061C109.908 21.8894 110.748 22.2378 111.261 22.9167C111.774 23.5956 111.879 24.4988 111.537 25.2776L108.841 31.786C108.478 32.6632 107.621 33.2349 106.672 33.2347V33.2347Z" fill="#F0C419"/>
<path d="M134.626 61.1913C133.503 61.1948 132.535 60.4028 132.316 59.3016C132.097 58.2004 132.688 57.0982 133.727 56.6716L140.235 53.9762C141.01 53.6553 141.898 53.7723 142.563 54.2831C143.229 54.794 143.571 55.621 143.461 56.4526C143.352 57.2843 142.807 57.9943 142.032 58.3151L135.525 61.0106C135.24 61.1293 134.935 61.1908 134.626 61.1913Z" fill="#F0C419"/>
<path d="M39.183 61.1914C38.8743 61.1908 38.5687 61.1294 38.2838 61.0106L31.7777 58.3151C31.0026 57.9943 30.4576 57.2843 30.3479 56.4526C30.2382 55.621 30.5805 54.794 31.246 54.2831C31.9114 53.7723 32.7987 53.6553 33.5738 53.9762L40.0823 56.6716C41.1209 57.0982 41.7121 58.2004 41.493 59.3016C41.2739 60.4028 40.3058 61.1948 39.183 61.1914V61.1914Z" fill="#F0C419"/>
<path d="M126.185 87.8122C126.115 87.9062 126.021 88.0001 125.951 88.094C125.537 90.3552 124.675 92.5107 123.415 94.4334C122.185 94.7823 120.913 94.9562 119.635 94.9499C117.308 94.9433 115.015 94.3883 112.943 93.3299C111.962 92.8049 111.041 92.1751 110.196 91.4515C109.259 91.8142 108.265 92.0051 107.261 92.015C104.16 92.031 101.319 90.2828 99.9356 87.507C99.5581 86.7563 99.6098 85.8611 100.071 85.1589C100.533 84.4566 101.334 84.0538 102.173 84.1023C103.012 84.1508 103.761 84.6431 104.138 85.3939C104.602 86.2841 105.424 86.9342 106.397 87.1808C107.37 87.4274 108.402 87.2471 109.233 86.6852C110.172 86.0443 110.735 84.9812 110.736 83.8442C110.739 83.2999 110.619 82.762 110.384 82.2711C109.911 81.1358 110.394 79.8281 111.492 79.2732C112.589 78.7183 113.929 79.1043 114.563 80.158C115.134 81.303 115.431 82.5648 115.432 83.8442C115.413 85.4848 114.897 87.0811 113.953 88.4227C114.328 88.681 114.704 88.9392 115.08 89.1506C116.489 89.8757 118.05 90.2541 119.635 90.2541C122.043 90.2674 124.373 89.3989 126.185 87.8122V87.8122Z" fill="#FF5364"/>
<path d="M97.4702 78.594C100.512 76.4983 102.604 73.287 103.291 69.6578C103.466 68.827 103.178 67.9665 102.539 67.4074C101.9 66.8483 101.009 66.6777 100.209 66.9613C99.4087 67.2448 98.8239 67.9383 98.6794 68.775C98.219 71.1966 96.8218 73.3388 94.7913 74.7364C90.8849 77.3673 85.6459 76.7702 82.4318 73.3276C81.5571 72.368 80.0702 72.2992 79.1106 73.1738C78.1511 74.0485 78.0822 75.5354 78.9569 76.495C80.9486 78.6941 83.5809 80.2118 86.482 80.8339C85.1666 82.6828 83.0361 83.7786 80.7671 83.7735C79.4704 83.7735 78.4192 84.8248 78.4192 86.1215C78.4192 87.4182 79.4704 88.4694 80.7671 88.4694C85.6277 88.4888 89.9889 85.4868 91.7061 80.9396C93.7778 80.5953 95.7468 79.794 97.4702 78.594V78.594Z" fill="#FF5364"/>
<path d="M119.353 104.389C117.627 105.269 115.773 105.872 113.859 106.173C113.735 106.193 113.609 106.2 113.483 106.197C112.247 106.208 111.213 105.258 111.12 104.025C111.027 102.792 111.907 101.698 113.131 101.524C114.492 101.318 115.814 100.906 117.052 100.303C117.991 101.561 118.764 102.934 119.353 104.389V104.389Z" fill="#FF5364"/>
<path d="M67.0412 87.9997C66.9226 88.6584 66.8598 89.3261 66.8533 89.9954C66.8486 90.8763 66.9671 91.7535 67.2055 92.6016C65.7305 93.134 64.1905 93.4657 62.6271 93.5877C62.3265 92.4375 62.1688 91.2546 62.1575 90.0658C58.0217 89.6147 54.8867 86.1258 54.8789 81.9655C54.871 80.6579 55.9193 79.5886 57.2268 79.5706C57.8466 79.5669 58.4424 79.8098 58.8829 80.2458C59.3234 80.6819 59.5723 81.2753 59.5748 81.895V81.9655C59.6099 83.8209 61.0786 85.3307 62.9323 85.4169C63.2569 84.3579 63.7062 83.3412 64.2706 82.3881C64.5859 81.8497 65.1052 81.4614 65.7107 81.3111C66.3163 81.1608 66.9568 81.2613 67.4873 81.5898C68.5913 82.2723 68.9462 83.7127 68.2856 84.83C67.6894 85.806 67.2682 86.8787 67.0412 87.9997V87.9997Z" fill="#FF5364"/>
<path d="M101.955 101.735C100.544 102.186 99.087 102.478 97.6111 102.604C96.5416 101.304 95.9017 99.7043 95.7797 98.0254C96.007 98.0297 96.2343 98.0219 96.4606 98.0019C97.855 97.9135 99.2341 97.6613 100.57 97.2506C101.379 96.9728 102.276 97.1578 102.91 97.7334C103.544 98.309 103.814 99.1838 103.615 100.017C103.416 100.849 102.78 101.508 101.955 101.735V101.735Z" fill="#FF5364"/>
<path d="M81.7391 59.825C81.7391 58.5283 80.6879 57.4771 79.3912 57.4771C73.429 57.4835 68.5972 62.3153 68.5908 68.2775C68.5908 69.5742 69.642 70.6254 70.9387 70.6254C72.2354 70.6254 73.2866 69.5742 73.2866 68.2775C73.2866 66.6585 73.9298 65.1057 75.0746 63.9609C76.2194 62.8161 77.7722 62.1729 79.3912 62.1729C80.6879 62.1729 81.7391 61.1217 81.7391 59.825V59.825Z" fill="#FF5364"/>
<path d="M51.094 73.0275C50.6676 73.028 50.2492 72.911 49.8848 72.6894C47.9487 71.5211 46.4839 69.7106 45.7454 67.5733C45.3883 66.5571 45.2065 65.4877 45.2078 64.4106C45.2077 59.0895 49.5131 54.7715 54.8343 54.7559C57.8833 54.7443 60.7538 56.1922 62.5566 58.6511C63.057 59.3247 63.16 60.2141 62.8268 60.9842C62.4936 61.7543 61.7749 62.2882 60.9414 62.3847C60.1079 62.4813 59.2862 62.1258 58.7858 61.4522C57.8656 60.1965 56.4004 59.4566 54.8437 59.4612C52.6213 59.4736 50.6784 60.9625 50.0884 63.1051C49.4984 65.2478 50.4052 67.5214 52.3079 68.6697C53.2126 69.2137 53.643 70.2946 53.3599 71.3116C53.0767 72.3286 52.1497 73.0316 51.094 73.0298V73.0275Z" fill="#FF5364"/>
<path d="M101.478 50.6938C100.181 50.6938 99.1302 49.6426 99.1302 48.3459C99.1302 45.6182 96.919 43.407 94.1914 43.407C91.4637 43.407 89.2525 45.6182 89.2525 48.3459C89.2525 49.6426 88.2013 50.6938 86.9046 50.6938C85.6079 50.6938 84.5567 49.6426 84.5567 48.3459C84.5567 43.0248 88.8703 38.7112 94.1914 38.7112C99.5125 38.7112 103.826 43.0248 103.826 48.3459C103.826 48.9686 103.579 49.5658 103.138 50.0061C102.698 50.4465 102.101 50.6938 101.478 50.6938V50.6938Z" fill="#FF5364"/>
<path d="M123.502 77.7653C122.412 77.7546 121.472 76.995 121.234 75.9312C120.995 74.8674 121.52 73.7794 122.502 73.3042C123.437 72.8646 124.214 72.1461 124.725 71.2475C125.919 69.2119 125.504 66.6153 123.734 65.0542C121.964 63.493 119.336 63.4052 117.465 64.8447C116.428 65.6227 114.956 65.4125 114.178 64.3751C113.4 63.3377 113.61 61.866 114.648 61.088C116.291 59.844 118.292 59.1653 120.353 59.1533C124.889 59.1225 128.835 62.2547 129.834 66.6796C130.833 71.1045 128.616 75.6281 124.507 77.5493C124.192 77.6956 123.849 77.7694 123.502 77.7653V77.7653Z" fill="#FF5364"/>
</svg>
