<svg width="175" height="175" viewBox="0 0 175 175" fill="none" xmlns="http://www.w3.org/2000/svg">
<path d="M46.4131 81.9998C44.7922 82.0028 43.476 80.691 43.473 79.0702C43.4716 78.2888 43.7819 77.539 44.3352 76.9871L73.6832 47.6394C74.849 46.5136 76.7069 46.5458 77.8331 47.7115C78.9314 48.8489 78.9314 50.6519 77.8331 51.789L48.4851 81.137C47.936 81.6878 47.1909 81.9982 46.4131 81.9998Z" fill="#455A64"/>
<path d="M128.587 81.9997C127.808 82.001 127.061 81.6929 126.509 81.1426L97.1614 51.7949C96.0355 50.6292 96.0677 48.7712 97.2335 47.645C98.3709 46.5467 100.174 46.5467 101.311 47.645L130.659 76.993C131.803 78.1409 131.8 79.9991 130.652 81.1434C130.104 81.6901 129.362 81.998 128.587 81.9997Z" fill="#455A64"/>
<path d="M34.6738 76.1301H140.326C148.43 76.1301 155 82.6998 155 90.804V126.021C155 134.126 148.43 140.695 140.326 140.695H34.6738C26.5697 140.695 20 134.126 20 126.021V90.804C20 82.6998 26.5697 76.1301 34.6738 76.1301Z" fill="#4CAF50"/>
<path d="M34.6739 128.957C33.0531 128.957 31.739 127.643 31.739 126.022V90.8043C31.739 89.1834 33.0531 87.8694 34.6739 87.8694H52.2826C53.9034 87.8694 55.2175 89.1834 55.2175 90.8043C55.2175 92.4251 53.9034 93.7391 52.2826 93.7391H37.6088V126.022C37.6088 127.643 36.2947 128.957 34.6739 128.957Z" fill="#FAFAFA"/>
<path d="M46.4131 111.348H34.6739C33.0531 111.348 31.739 110.034 31.739 108.413C31.739 106.792 33.0531 105.478 34.6739 105.478H46.4131C48.034 105.478 49.348 106.792 49.348 108.413C49.348 110.034 48.034 111.348 46.4131 111.348Z" fill="#FAFAFA"/>
<path d="M81.6305 128.957C80.8516 128.958 80.1041 128.65 79.5527 128.1L66.9567 115.497V126.022C66.9567 127.643 65.6426 128.957 64.0218 128.957C62.401 128.957 61.0869 127.643 61.0869 126.022V90.8043C61.0869 89.1834 62.401 87.8694 64.0218 87.8694H72.8262C79.3095 87.8694 84.5654 93.1253 84.5654 99.6086C84.5654 106.092 79.3095 111.348 72.8262 111.348H71.1063L83.7023 123.944C84.8499 125.088 84.8521 126.947 83.7075 128.094C83.1572 128.646 82.41 128.956 81.6305 128.957ZM66.9567 105.478H72.8262C76.0678 105.478 78.6956 102.85 78.6956 99.6086C78.6956 96.367 76.0678 93.7391 72.8262 93.7391H66.9567V105.478Z" fill="#FAFAFA"/>
<path d="M110.978 128.957H93.3698C91.7489 128.957 90.4349 127.643 90.4349 126.022V90.8043C90.4349 89.1834 91.7489 87.8694 93.3698 87.8694H110.978C112.599 87.8694 113.913 89.1834 113.913 90.8043C113.913 92.4251 112.599 93.7391 110.978 93.7391H96.3046V123.087H110.978C112.599 123.087 113.913 124.401 113.913 126.022C113.913 127.643 112.599 128.957 110.978 128.957Z" fill="#FAFAFA"/>
<path d="M105.109 111.348H93.3695C91.7487 111.348 90.4346 110.034 90.4346 108.413C90.4346 106.792 91.7487 105.478 93.3695 105.478H105.109C106.73 105.478 108.044 106.792 108.044 108.413C108.044 110.034 106.73 111.348 105.109 111.348Z" fill="#FAFAFA"/>
<path d="M140.326 128.957H122.717C121.097 128.957 119.783 127.643 119.783 126.022V90.8043C119.783 89.1834 121.097 87.8694 122.717 87.8694H140.326C141.947 87.8694 143.261 89.1834 143.261 90.8043C143.261 92.4251 141.947 93.7391 140.326 93.7391H125.652V123.087H140.326C141.947 123.087 143.261 124.401 143.261 126.022C143.261 127.643 141.947 128.957 140.326 128.957Z" fill="#FAFAFA"/>
<path d="M134.457 111.348H122.717C121.097 111.348 119.783 110.034 119.783 108.413C119.783 106.792 121.097 105.478 122.717 105.478H134.457C136.077 105.478 137.392 106.792 137.392 108.413C137.392 110.034 136.077 111.348 134.457 111.348Z" fill="#FAFAFA"/>
<path d="M87.5001 64.3911C79.3959 64.3911 72.8262 57.8214 72.8262 49.7173C72.8262 41.6132 79.3959 35.0435 87.5001 35.0435C95.6042 35.0435 102.174 41.6132 102.174 49.7173C102.174 57.8214 95.6045 64.3911 87.5001 64.3911Z" fill="#607D8B"/>
</svg>
