<svg width="175" height="175" viewBox="0 0 175 175" fill="none" xmlns="http://www.w3.org/2000/svg">
<path d="M141.15 106.919C141.15 140.101 114.248 167 81.067 167C72.927 167 65.1675 165.382 58.0899 162.448C38.7454 154.435 24.4969 136.607 21.5512 115.177C21.1767 112.478 20.986 109.721 20.986 106.919C20.986 73.7349 47.8849 46.8359 81.067 46.8359C114.248 46.8359 141.15 73.7349 141.15 106.919Z" fill="#937DE2"/>
<path d="M81.067 46.8359C77.8899 46.8359 74.7717 47.0845 71.7286 47.5594C100.476 52.0455 122.474 76.911 122.474 106.919C122.474 136.923 100.478 161.787 71.7326 166.276C74.7747 166.75 77.8909 167 81.066 167C114.248 167 141.15 140.101 141.15 106.919C141.15 73.7349 114.248 46.8359 81.067 46.8359V46.8359Z" fill="#7570D6"/>
<path d="M148.651 102.478L114.342 125.196C111.898 126.816 108.937 127.458 106.043 126.995C103.142 126.533 100.174 127.167 97.7235 128.789L93.1319 131.832L67.4192 93.9297L73.7276 66.6766C74.2177 64.5548 74.4602 62.4047 74.4602 60.2626C74.4602 54.7213 72.8397 49.252 69.7317 44.5569C68.9676 43.4022 68.6023 42.0962 68.6023 40.8065C68.6023 38.6026 69.6718 36.4402 71.6485 35.1313C74.3121 33.3667 77.8423 33.6944 80.1355 35.9187L84.2228 39.8771C88.8965 44.4118 92.5018 49.9329 94.7656 56.0394L96.9818 62.0059L119.804 46.9273C123.448 44.5143 128.379 45.5696 130.707 49.3027C132.951 52.8989 131.799 57.6508 128.262 59.9917C128.22 60.0201 128.217 60.0658 128.231 60.1003C128.251 60.1378 128.294 60.1632 128.341 60.1429C129.243 59.7959 130.187 59.6274 131.123 59.6274C132.616 59.6274 134.097 60.0576 135.363 60.8765C136.236 61.4407 137.009 62.1906 137.619 63.1119C138.797 64.8917 139.148 66.979 138.762 68.9191C138.158 71.9754 135.937 73.5503 135.5 73.8466C135.426 73.8983 135.406 74.0008 135.458 74.0779C135.458 74.0799 135.461 74.083 135.463 74.083C135.511 74.152 135.611 74.1713 135.682 74.1266C136.304 73.9754 136.937 73.9034 137.57 73.9034C139.116 73.9034 140.653 74.3427 141.96 75.1758C142.844 75.741 143.625 76.4878 144.23 77.4031C146.602 80.985 145.622 85.813 142.036 88.1865C141.948 88.2463 141.859 88.3062 141.771 88.363C141.72 88.4036 141.705 88.4685 141.732 88.5142C141.737 88.5254 141.749 88.5375 141.76 88.5426C141.8 88.5741 141.862 88.5771 141.914 88.5375C144.141 87.7785 146.566 88.1235 148.516 89.3869C149.414 89.9632 150.21 90.7395 150.841 91.6913C153.214 95.2762 152.233 100.104 148.651 102.478V102.478Z" fill="#FDD7BD"/>
<path d="M93.4597 139.026L78.9858 148.611L58.0899 162.448C38.7454 154.434 24.4968 136.61 21.5511 115.177L45.8007 99.118L60.5627 89.3413C62.2624 88.2149 64.5556 88.6827 65.6819 90.3854L94.5038 133.903C95.6301 135.606 95.1623 137.895 93.4597 139.026V139.026Z" fill="#87DBFF"/>
<path d="M93.4597 139.026L78.9858 148.611L45.8007 99.118L60.5627 89.3413C62.2624 88.2149 64.5556 88.6827 65.682 90.3854L94.5038 133.902C95.6301 135.606 95.1624 137.895 93.4597 139.026V139.026Z" fill="#6FC7FF"/>
<path d="M135.363 60.8755L123.947 66.9851C122.327 67.8496 120.319 67.3981 119.23 65.9237L128.231 60.1003C128.251 60.1378 128.294 60.1632 128.341 60.1429C129.243 59.7959 130.187 59.6274 131.123 59.6274C132.617 59.6274 134.097 60.0577 135.363 60.8755V60.8755Z" fill="#FAC5AA"/>
<path d="M141.96 75.176L130.792 81.1476C129.172 82.0152 127.164 81.5646 126.075 80.0903L135.075 74.2658L135.464 74.0832C135.512 74.1522 135.612 74.1714 135.683 74.1268C136.305 73.9756 136.938 73.9036 137.571 73.9036C139.117 73.9036 140.654 74.3429 141.96 75.176Z" fill="#FAC5AA"/>
<path d="M148.517 89.3873L138.68 94.6496C137.063 95.5131 135.056 95.0625 133.963 93.5882L141.76 88.543C141.801 88.5745 141.863 88.5775 141.914 88.5369C144.141 87.7789 146.566 88.124 148.517 89.3873V89.3873Z" fill="#FAC5AA"/>
</svg>
