<svg width="175" height="175" viewBox="0 0 175 175" fill="none" xmlns="http://www.w3.org/2000/svg">
<path d="M59.3992 55.3938L51.6332 47.6117C49.8317 45.8066 47.4354 44.8127 44.8853 44.8127C42.3351 44.8127 39.9388 45.8069 38.1376 47.6117L32.5082 53.2533C28.8026 56.9662 28.8026 63.0078 32.5082 66.7209L40.2905 74.5194C41.0516 75.282 42.0499 75.6634 43.0487 75.6634C44.0444 75.6634 45.0406 75.2839 45.8012 74.5251C47.3245 73.0049 57.8726 62.4223 59.3938 60.9042C60.9168 59.3843 60.9194 56.9173 59.3992 55.3938Z" fill="#105C6E"/>
<path d="M86.9489 29.7791C84.797 29.7791 83.0524 31.5236 83.0524 33.6756V46.1443C83.0524 48.2962 84.797 50.0408 86.9489 50.0408C89.1008 50.0408 90.8454 48.2962 90.8454 46.1443V33.6756C90.8454 31.5236 89.1008 29.7791 86.9489 29.7791Z" fill="#26879C"/>
<path d="M96.5603 28.9998H77.3375C75.1856 28.9998 73.441 30.7443 73.441 32.8963C73.441 35.0482 75.1856 36.7928 77.3375 36.7928H96.5603C98.7122 36.7928 100.457 35.0482 100.457 32.8963C100.457 30.7443 98.7122 28.9998 96.5603 28.9998Z" fill="#DE513C"/>
<path d="M86.9489 28.9998H77.3375C75.1856 28.9998 73.441 30.7443 73.441 32.8963C73.441 35.0482 75.1856 36.7928 77.3375 36.7928H86.9489V28.9998Z" fill="#FC6249"/>
<path d="M129.199 59.8119C117.914 48.5038 102.909 42.2759 86.9489 42.2759C70.9886 42.2759 55.984 48.5038 44.6992 59.8119C33.4165 71.118 27.2029 86.1499 27.2029 102.138C27.2029 118.126 33.4165 133.158 44.6992 144.464C55.984 155.772 70.9886 162 86.9489 162C102.909 162 117.914 155.772 129.199 144.464C140.481 133.158 146.695 118.126 146.695 102.138C146.695 86.1499 140.481 71.118 129.199 59.8119Z" fill="#DE513C"/>
<path d="M86.9489 42.2759C70.9886 42.2759 55.984 48.5038 44.6992 59.8119C33.4165 71.118 27.2029 86.1499 27.2029 102.138C27.2029 118.126 33.4165 133.158 44.6992 144.464C55.984 155.772 70.9886 162 86.9489 162V42.2759Z" fill="#FC6249"/>
<path d="M86.9488 57.1941C62.2144 57.1941 42.0913 77.3556 42.0913 102.138C42.0913 126.92 62.2144 147.081 86.9488 147.081C111.683 147.081 131.806 126.92 131.806 102.138C131.806 77.3556 111.683 57.1941 86.9488 57.1941Z" fill="#96D1D9"/>
<path d="M86.9488 57.1941C62.2144 57.1941 42.0913 77.3556 42.0913 102.138C42.0913 126.92 62.2144 147.081 86.9488 147.081V57.1941Z" fill="#F4F2E6"/>
<path d="M86.9487 66.9273C89.1006 66.9273 90.8452 65.1827 90.8452 63.0308V57.3658C89.5607 57.2546 88.2616 57.1943 86.9487 57.1943C85.6359 57.1943 84.3368 57.2546 83.0522 57.3658V63.0308C83.0522 65.1827 84.7968 66.9273 86.9487 66.9273Z" fill="#105C6E"/>
<path d="M86.9486 137.348C84.7967 137.348 83.0521 139.093 83.0521 141.245V146.91C84.3367 147.021 85.6358 147.081 86.9486 147.081C88.2615 147.081 89.5606 147.021 90.8451 146.91V141.245C90.8451 139.093 89.1005 137.348 86.9486 137.348Z" fill="#105C6E"/>
<path d="M131.636 98.2415H126.056C123.904 98.2415 122.159 99.986 122.159 102.138C122.159 104.29 123.904 106.034 126.056 106.034H131.636C131.747 104.75 131.806 103.451 131.806 102.138C131.806 100.825 131.747 99.526 131.636 98.2415Z" fill="#105C6E"/>
<path d="M51.7381 102.138C51.7381 99.986 49.9935 98.2415 47.8416 98.2415H42.2616C42.1509 99.526 42.0912 100.825 42.0912 102.138C42.0912 103.451 42.1509 104.75 42.2616 106.034H47.8416C49.9935 106.034 51.7381 104.29 51.7381 102.138Z" fill="#105C6E"/>
<path d="M96.5601 99.8889H91.0629V84.1297C91.0629 81.9777 89.3183 80.2332 87.1664 80.2332C85.0145 80.2332 83.2699 81.9777 83.2699 84.1297V103.785C83.2699 105.937 85.0145 107.682 87.1664 107.682H96.5601C98.712 107.682 100.457 105.937 100.457 103.785C100.457 101.634 98.712 99.8889 96.5601 99.8889Z" fill="#105C6E"/>
<circle cx="86.9518" cy="102.251" r="34.094" fill="white"/>
<path d="M84.6763 110.89V116.239H63.7404V111.984L74.4261 101.652C75.5606 100.545 76.3257 99.5993 76.7215 98.816C77.1173 98.0056 77.3151 97.2087 77.3151 96.4254C77.3151 95.2909 76.9326 94.4265 76.1674 93.8322C75.4287 93.211 74.3337 92.9003 72.8826 92.9003C71.6689 92.9003 70.574 93.1434 69.5977 93.6297C68.6215 94.0889 67.8036 94.7912 67.144 95.7366L62.474 92.6572C63.5558 91.0095 65.0465 89.7264 66.9461 88.808C68.8458 87.8626 71.0225 87.3899 73.4762 87.3899C75.5342 87.3899 77.3283 87.741 78.8586 88.4434C80.4153 89.1187 81.6158 90.0911 82.4601 91.3607C83.3307 92.6032 83.7661 94.0754 83.7661 95.7771C83.7661 97.3168 83.4495 98.7619 82.8163 100.113C82.183 101.463 80.9562 103.003 79.1356 104.732L72.7639 110.89H84.6763Z" fill="#FF4D4D"/>
<path d="M112.304 110.283H107.792V116.239H101.539V110.283H86.6187V105.866L99.6789 87.8761H106.407L94.2965 104.934H101.737V99.6263H107.792V104.934H112.304V110.283Z" fill="#FF4D4D"/>
</svg>
