<svg width="435" height="330" viewBox="0 0 435 330" fill="none" xmlns="http://www.w3.org/2000/svg">
<g opacity="0.2">
<path opacity="0.2" d="M434.553 319.09C434.553 324.917 337.275 329.641 217.277 329.641C97.2785 329.641 0 324.914 0 319.09C0 317.319 9.03302 315.645 24.9807 314.173H409.573C425.52 315.642 434.553 317.316 434.553 319.09Z" fill="#000072"/>
</g>
<path d="M188.257 314.826H150.463C149.901 314.826 149.363 314.603 148.966 314.206C148.569 313.808 148.346 313.27 148.346 312.709C148.346 312.147 148.569 311.609 148.966 311.212C149.363 310.815 149.901 310.591 150.463 310.591H190.969L189.91 314.824L188.257 314.826Z" fill="#000072"/>
<path d="M89.6363 223.54C88.4035 223.332 87.1384 223.622 86.1194 224.346C85.1004 225.071 84.4109 226.17 84.2025 227.403L78.6531 260.247L87.9497 261.818L93.5032 228.975C93.6065 228.365 93.5884 227.739 93.4499 227.136C93.3115 226.532 93.0554 225.961 92.6962 225.456C92.3371 224.952 91.882 224.523 91.357 224.194C90.8319 223.865 90.2472 223.643 89.6363 223.54Z" fill="#4089FF"/>
<path d="M93.5058 228.975L92.5912 234.385L83.2932 232.813L84.2078 227.403C84.4333 226.186 85.1283 225.106 86.1429 224.397C87.1574 223.688 88.4102 223.406 89.6308 223.612C90.8513 223.819 91.9418 224.497 92.6668 225.5C93.3917 226.504 93.6931 227.752 93.5058 228.975Z" fill="#FFCE00"/>
<path d="M92.5953 236.401C92.4817 236.401 92.3684 236.392 92.2563 236.373L82.9584 234.801C82.6967 234.757 82.4464 234.661 82.2216 234.521C81.9968 234.38 81.802 234.196 81.6483 233.98C81.4946 233.763 81.3851 233.519 81.3261 233.26C81.267 233.002 81.2595 232.734 81.304 232.472L82.2186 227.063C82.537 225.322 83.5284 223.776 84.978 222.76C86.4276 221.744 88.219 221.34 89.9643 221.635C91.7097 221.93 93.2686 222.901 94.3037 224.337C95.3388 225.773 95.7668 227.559 95.4951 229.308L94.5805 234.717C94.5017 235.187 94.2592 235.614 93.8958 235.922C93.5325 236.23 93.0718 236.4 92.5953 236.401ZM85.6201 231.156L90.9396 232.055L91.5179 228.635C91.6216 227.937 91.4474 227.225 91.0325 226.654C90.6177 226.083 89.9954 225.696 89.2991 225.579C88.6029 225.461 87.8882 225.621 87.3085 226.024C86.7288 226.427 86.3303 227.042 86.1985 227.735L85.6201 231.156Z" fill="#000072"/>
<path d="M87.9526 263.839C87.8399 263.839 87.7274 263.83 87.6163 263.811L78.3169 262.239C78.0554 262.194 77.8052 262.099 77.5806 261.958C77.3559 261.817 77.1612 261.633 77.0077 261.417C76.8542 261.201 76.7448 260.957 76.6858 260.698C76.6268 260.439 76.6194 260.172 76.6639 259.91L81.3042 232.472C81.3934 231.945 81.6885 231.474 82.1246 231.164C82.5607 230.854 83.1021 230.73 83.6297 230.819L92.9277 232.392C93.4553 232.481 93.9259 232.776 94.2359 233.212C94.5459 233.648 94.6699 234.19 94.5808 234.717L89.9418 262.155C89.8624 262.625 89.619 263.052 89.2548 263.36C88.8907 263.668 88.4293 263.836 87.9526 263.836V263.839ZM80.9787 258.594L86.2995 259.493L90.266 236.034L84.9465 235.134L80.9787 258.594Z" fill="#000072"/>
<path d="M98.8334 250.939C98.7198 250.939 98.6065 250.93 98.4945 250.911C97.9669 250.822 97.4963 250.527 97.1863 250.091C96.8763 249.655 96.7523 249.113 96.8414 248.586L97.8663 242.526C98.0923 241.184 97.7765 239.807 96.9882 238.698C96.1999 237.588 95.0036 236.837 93.6619 236.608L90.4998 236.07C90.2375 236.027 89.9862 235.933 89.7605 235.793C89.5348 235.652 89.339 235.469 89.1844 235.253C89.0299 235.036 88.9196 234.792 88.8599 234.533C88.8002 234.274 88.7923 234.005 88.8366 233.743C88.8809 233.481 88.9765 233.23 89.118 233.005C89.2596 232.78 89.4442 232.586 89.6612 232.432C89.8782 232.279 90.1235 232.17 90.3828 232.111C90.6421 232.053 90.9104 232.046 91.1723 232.092L94.3344 232.63C96.7302 233.038 98.8665 234.379 100.274 236.36C101.682 238.341 102.247 240.799 101.845 243.196L100.82 249.256C100.741 249.726 100.498 250.153 100.135 250.461C99.7711 250.769 99.3101 250.939 98.8334 250.939Z" fill="#000072"/>
<path d="M51.7344 273.215L67.1582 269.948L57.1646 222.77L41.7407 226.037L51.7344 273.215Z" fill="#D2E4FF"/>
<path d="M51.7073 275.243C51.2449 275.243 50.7967 275.084 50.4375 274.793C50.0783 274.502 49.83 274.097 49.7342 273.644L40.2116 228.712C39.9771 227.593 40.1953 226.428 40.8185 225.47C41.4416 224.512 42.4189 223.84 43.5364 223.601L54.4699 221.285C55.5882 221.05 56.7542 221.267 57.7122 221.89C58.6703 222.513 59.3423 223.491 59.5809 224.608L69.1022 269.542C69.2129 270.065 69.1114 270.611 68.8198 271.06C68.5283 271.508 68.0706 271.822 67.5473 271.933L52.1229 275.202C51.9862 275.23 51.8469 275.244 51.7073 275.243ZM55.3643 225.223C55.3451 225.221 55.3257 225.221 55.3065 225.223L44.3743 227.54C44.3023 227.556 44.2393 227.599 44.199 227.661C44.1587 227.723 44.1444 227.798 44.1591 227.87L53.2634 270.829L64.739 268.396L55.636 225.438C55.6205 225.378 55.5856 225.325 55.5367 225.287C55.4877 225.249 55.4276 225.228 55.3657 225.228L55.3643 225.223Z" fill="#000072"/>
<path d="M47.5339 224.82L41.7114 226.053" stroke="#000072" stroke-width="17.29" stroke-linecap="round" stroke-linejoin="round"/>
<path d="M49.5323 234.255L43.7112 235.489" stroke="#000072" stroke-width="17.29" stroke-linecap="round" stroke-linejoin="round"/>
<path d="M51.5325 243.691L45.71 244.924" stroke="#000072" stroke-width="17.29" stroke-linecap="round" stroke-linejoin="round"/>
<path d="M53.5311 253.126L47.71 254.36" stroke="#000072" stroke-width="17.29" stroke-linecap="round" stroke-linejoin="round"/>
<path d="M55.5314 262.561L49.7102 263.795" stroke="#000072" stroke-width="17.29" stroke-linecap="round" stroke-linejoin="round"/>
<path d="M57.5312 271.998L51.7087 273.231" stroke="#000072" stroke-width="17.29" stroke-linecap="round" stroke-linejoin="round"/>
<path d="M91.9619 267.233H46.4565V311.93H91.9619V267.233Z" fill="#F9B812"/>
<path d="M91.962 314.255H46.462C45.8452 314.255 45.2537 314.01 44.8176 313.574C44.3815 313.138 44.1365 312.547 44.1365 311.93V267.233C44.1365 266.616 44.3815 266.024 44.8176 265.588C45.2537 265.152 45.8452 264.907 46.462 264.907H91.9674C92.5842 264.907 93.1757 265.152 93.6118 265.588C94.0479 266.024 94.2929 266.616 94.2929 267.233V311.93C94.2929 312.236 94.2326 312.538 94.1154 312.821C93.9982 313.103 93.8264 313.36 93.6099 313.576C93.3934 313.792 93.1364 313.963 92.8536 314.08C92.5709 314.196 92.2679 314.256 91.962 314.255ZM48.7875 309.604H89.6365V269.558H48.7821L48.7875 309.604Z" fill="#000072"/>
<g opacity="0.3">
<path opacity="0.3" d="M93.7158 269.619V273.385C93.7171 274.239 93.4941 275.078 93.0692 275.819C92.6444 276.559 92.0325 277.175 91.2948 277.605V311.938H45.7894V304.921H73.2974C76.8289 304.921 80.2157 303.518 82.7128 301.021C85.21 298.524 86.6129 295.137 86.6129 291.605C86.6111 288.075 85.2076 284.689 82.7109 282.192C80.2141 279.695 76.8283 278.292 73.2974 278.29H48.2562C47.6126 278.289 46.9756 278.161 46.3815 277.914C45.7874 277.667 45.2479 277.304 44.7939 276.848C44.3399 276.392 43.9803 275.851 43.7357 275.256C43.4911 274.661 43.3663 274.023 43.3684 273.379V269.613C43.3684 268.315 43.8841 267.07 44.802 266.152C45.7199 265.235 46.9648 264.719 48.2629 264.719H88.8281C90.1259 264.721 91.37 265.238 92.2865 266.157C93.2031 267.076 93.7172 268.321 93.7158 269.619Z" fill="#000072"/>
</g>
<path d="M89.491 258.913H48.9272C46.224 258.913 44.0327 261.104 44.0327 263.807V267.566C44.0327 270.269 46.224 272.461 48.9272 272.461H89.491C92.1941 272.461 94.3854 270.269 94.3854 267.566V263.807C94.3854 261.104 92.1941 258.913 89.491 258.913Z" fill="#F9B812"/>
<g opacity="0.5">
<path opacity="0.5" d="M94.3883 262.466V266.232C94.3902 266.58 94.3532 266.927 94.278 267.266C94.0427 266.172 93.4395 265.192 92.569 264.488C91.6984 263.785 90.6131 263.401 89.4939 263.401H48.9287C47.8095 263.401 46.7241 263.785 45.8536 264.488C44.983 265.192 44.3798 266.172 44.1445 267.266C44.0694 266.927 44.0324 266.58 44.0342 266.232V262.466C44.0342 261.168 44.5499 259.923 45.4678 259.005C46.3857 258.087 47.6306 257.572 48.9287 257.572H89.4939C90.792 257.572 92.0369 258.087 92.9548 259.005C93.8727 259.923 94.3883 261.168 94.3883 262.466Z" fill="white"/>
</g>
<path d="M89.4911 274.786H48.9272C47.013 274.784 45.1779 274.023 43.8243 272.669C42.4708 271.316 41.7094 269.48 41.7073 267.566V263.811C41.7094 261.897 42.4707 260.061 43.8242 258.708C45.1777 257.354 47.0129 256.592 48.9272 256.59H89.4911C91.4054 256.592 93.2406 257.354 94.5941 258.708C95.9476 260.061 96.7089 261.897 96.7111 263.811V267.569C96.7082 269.483 95.9465 271.317 94.5931 272.67C93.2396 274.023 91.4048 274.784 89.4911 274.786ZM48.9272 261.238C48.246 261.239 47.593 261.51 47.1114 261.992C46.6298 262.474 46.359 263.127 46.3583 263.808V267.566C46.359 268.247 46.6299 268.9 47.1115 269.382C47.5931 269.864 48.2461 270.134 48.9272 270.135H89.4911C90.1722 270.134 90.8252 269.864 91.3068 269.382C91.7885 268.9 92.0593 268.247 92.0601 267.566V263.811C92.0593 263.13 91.7885 262.477 91.3069 261.995C90.8253 261.513 90.1723 261.242 89.4911 261.241L48.9272 261.238Z" fill="#000072"/>
<path d="M70.5992 220.889C69.9805 220.888 69.3676 221.01 68.7957 221.246C68.2238 221.482 67.704 221.829 67.2662 222.266C66.8283 222.703 66.481 223.222 66.244 223.794C66.007 224.365 65.885 224.978 65.885 225.597V258.906H75.3135V225.604C75.3135 224.353 74.8168 223.154 73.9327 222.27C73.0486 221.386 71.8495 220.889 70.5992 220.889Z" fill="#FFCE00"/>
<path d="M75.3162 225.602V231.088H65.885V225.602C65.885 224.352 66.3818 223.152 67.2662 222.268C68.1505 221.383 69.3499 220.887 70.6006 220.887C71.8512 220.887 73.0507 221.383 73.935 222.268C74.8193 223.152 75.3162 224.352 75.3162 225.602Z" fill="#F91228"/>
<path d="M75.3163 233.106H65.8852C65.3501 233.106 64.8369 232.893 64.4586 232.515C64.0802 232.137 63.8677 231.624 63.8677 231.088V225.602C63.8677 223.817 64.5771 222.104 65.8397 220.841C67.1024 219.579 68.815 218.869 70.6007 218.869C72.3865 218.869 74.099 219.579 75.3617 220.841C76.6244 222.104 77.3338 223.817 77.3338 225.602V231.088C77.3338 231.624 77.1213 232.137 76.7429 232.515C76.3645 232.893 75.8514 233.106 75.3163 233.106ZM67.9027 229.071H73.2988V225.602C73.2988 224.887 73.0146 224.2 72.5086 223.694C72.0026 223.188 71.3163 222.904 70.6007 222.904C69.8852 222.904 69.1989 223.188 68.6929 223.694C68.1869 224.2 67.9027 224.887 67.9027 225.602V229.071Z" fill="#000072"/>
<path d="M75.3163 260.933H65.8852C65.3501 260.933 64.8369 260.72 64.4586 260.342C64.0802 259.963 63.8677 259.45 63.8677 258.915V231.088C63.8677 230.553 64.0802 230.04 64.4586 229.662C64.8369 229.284 65.3501 229.071 65.8852 229.071H75.3163C75.8514 229.071 76.3645 229.284 76.7429 229.662C77.1213 230.04 77.3338 230.553 77.3338 231.088V258.915C77.3338 259.45 77.1213 259.963 76.7429 260.342C76.3645 260.72 75.8514 260.933 75.3163 260.933ZM67.9027 256.898H73.2988V233.106H67.9027V256.898Z" fill="#000072"/>
<path d="M269.987 312.708H307.775C312.159 312.708 316.47 311.587 320.298 309.451C324.127 307.314 327.345 304.235 329.647 300.504C331.95 296.773 333.26 292.516 333.453 288.136C333.646 283.757 332.716 279.4 330.75 275.482L309.801 233.717C305.864 225.87 300.079 219.099 292.943 213.985C285.808 208.871 277.537 205.569 268.841 204.362L231.894 203.85H230.986L194.038 204.362C185.343 205.569 177.071 208.872 169.936 213.986C162.801 219.1 157.016 225.872 153.08 233.719L132.129 275.818V312.656H180.404" fill="#FF4D4D"/>
<g opacity="0.35">
<path opacity="0.35" d="M294.859 286.81H268.236V279.077H302.593C302.593 281.128 301.778 283.095 300.328 284.545C298.877 285.996 296.91 286.81 294.859 286.81Z" fill="white"/>
</g>
<g opacity="0.3">
<path opacity="0.3" d="M333.485 287.004C333.484 293.821 330.776 300.358 325.956 305.178C321.136 309.998 314.599 312.706 307.782 312.707H269.988L180.401 312.66H132.128V299.857H180.402L269.989 299.909H307.783C312.917 299.909 317.933 298.372 322.185 295.495C326.438 292.619 329.731 288.535 331.641 283.769C332.052 282.736 332.398 281.677 332.678 280.601C333.215 282.693 333.486 284.844 333.485 287.004Z" fill="#000072"/>
</g>
<g opacity="0.5">
<path opacity="0.5" d="M333.485 287.004C333.485 288.163 333.406 289.321 333.247 290.469C332.863 287.672 332.022 284.956 330.756 282.433L309.804 240.666C307.818 236.703 305.353 232.999 302.464 229.637C292.445 217.983 277.724 211.43 262.356 211.211L231.9 210.787H230.989L200.528 211.222C185.16 211.435 170.44 217.988 160.42 229.648C157.531 233.01 155.066 236.714 153.08 240.677L132.128 282.776V275.823L153.08 233.725C155.066 229.762 157.532 226.058 160.421 222.696C170.441 211.041 185.161 204.487 200.53 204.269L230.984 203.846H231.894L262.348 204.269C277.717 204.483 292.438 211.037 302.457 222.696C305.347 226.058 307.812 229.762 309.798 233.725L330.751 275.486C332.546 279.06 333.482 283.004 333.485 287.004Z" fill="white"/>
</g>
<path d="M307.775 314.824H269.987C269.435 314.81 268.91 314.581 268.525 314.186C268.139 313.79 267.924 313.26 267.924 312.708C267.924 312.156 268.139 311.625 268.525 311.23C268.91 310.834 269.435 310.605 269.987 310.591H307.775C314.031 310.591 320.03 308.106 324.453 303.683C328.876 299.26 331.362 293.261 331.362 287.006C331.358 283.334 330.501 279.714 328.859 276.43L307.908 234.666C304.138 227.144 298.599 220.649 291.766 215.739C284.934 210.828 277.012 207.649 268.68 206.474L231.865 205.963H230.986L200.567 206.379C185.559 206.588 171.515 213.035 162.026 224.068C159.25 227.297 156.88 230.854 154.971 234.661L134.246 276.319V310.543H180.404C180.965 310.543 181.504 310.766 181.901 311.163C182.298 311.56 182.521 312.099 182.521 312.66C182.521 313.222 182.298 313.76 181.901 314.157C181.504 314.554 180.965 314.777 180.404 314.777H130.013V275.323L151.185 232.774C153.25 228.656 155.813 224.807 158.815 221.313C169.091 209.361 184.288 202.378 200.51 202.153L231.897 201.73L269.005 202.245L269.14 202.262C278.176 203.515 286.771 206.946 294.185 212.261C301.598 217.575 307.608 224.614 311.696 232.768L332.647 274.532C334.586 278.405 335.599 282.675 335.606 287.006C335.605 294.383 332.674 301.459 327.457 306.676C322.24 311.893 315.164 314.824 307.786 314.824H307.775Z" fill="#000072"/>
<path d="M214.22 187.906H244.024V204.694C244.024 206.651 243.638 208.588 242.889 210.396C242.141 212.204 241.043 213.846 239.66 215.23C238.276 216.614 236.633 217.711 234.826 218.46C233.018 219.209 231.08 219.594 229.124 219.594C225.172 219.594 221.382 218.024 218.588 215.23C215.794 212.436 214.224 208.646 214.224 204.694V187.906H214.22Z" fill="#FFCFAE"/>
<path d="M229.121 221.712C224.609 221.707 220.284 219.912 217.094 216.722C213.903 213.532 212.109 209.206 212.104 204.694V185.792H246.133V204.694C246.128 209.205 244.334 213.53 241.145 216.72C237.956 219.91 233.632 221.706 229.121 221.712ZM216.343 190.024V204.694C216.343 208.085 217.69 211.336 220.088 213.734C222.485 216.131 225.737 217.478 229.128 217.478C232.518 217.478 235.77 216.131 238.167 213.734C240.565 211.336 241.912 208.085 241.912 204.694V190.024H216.343Z" fill="#000072"/>
<path d="M184.424 166.913C193.221 166.913 200.352 159.782 200.352 150.986C200.352 142.189 193.221 135.058 184.424 135.058C175.628 135.058 168.497 142.189 168.497 150.986C168.497 159.782 175.628 166.913 184.424 166.913Z" fill="#FFCFAE"/>
<g opacity="0.3">
<path opacity="0.3" d="M200.352 150.987C200.351 153.265 199.862 155.517 198.917 157.59C197.972 159.664 196.593 161.51 194.874 163.005C193.154 164.5 191.134 165.608 188.95 166.256C186.765 166.903 184.467 167.075 182.211 166.758C179.955 166.442 177.793 165.645 175.87 164.422C173.948 163.199 172.311 161.577 171.069 159.667C169.827 157.757 169.009 155.603 168.671 153.35C168.332 151.097 168.481 148.797 169.107 146.606C170.06 149.933 172.07 152.859 174.834 154.942C177.597 157.025 180.964 158.152 184.424 158.152C187.885 158.152 191.251 157.025 194.015 154.942C196.778 152.859 198.788 149.933 199.741 146.606C200.147 148.031 200.353 149.506 200.352 150.987Z" fill="#000072"/>
</g>
<path d="M184.424 169.029C174.471 169.029 166.379 160.935 166.379 150.986C166.379 141.037 174.473 132.942 184.424 132.942C194.374 132.942 202.467 141.037 202.467 150.987C202.467 160.937 194.373 169.029 184.424 169.029ZM184.424 137.175C181.692 137.175 179.022 137.985 176.751 139.503C174.48 141.02 172.71 143.177 171.664 145.701C170.619 148.224 170.346 151.001 170.879 153.68C171.411 156.359 172.727 158.82 174.658 160.751C176.59 162.682 179.05 163.998 181.729 164.531C184.408 165.064 187.185 164.79 189.709 163.745C192.232 162.7 194.389 160.929 195.907 158.658C197.424 156.387 198.234 153.717 198.234 150.986C198.23 147.324 196.773 143.814 194.184 141.225C191.595 138.636 188.085 137.179 184.424 137.175Z" fill="#000072"/>
<path d="M278.85 121.08C263.248 125.903 244.884 109.899 244.575 111.3C243.991 113.924 247.265 117.015 249.403 118.348C249.679 118.516 249.89 118.772 250.002 119.075C250.113 119.379 250.119 119.71 250.018 120.017C249.941 120.276 249.792 120.507 249.588 120.683C249.383 120.859 249.133 120.972 248.865 121.01C239.461 122.473 220.52 144.701 218.065 154.715H185.247C185.247 154.715 168.703 117.214 174.738 93.5475C176.553 86.4419 182.328 81.2852 192.959 84.9637C192.959 84.9637 197.454 78.2764 205.014 71.5837C217.309 60.7053 237.698 49.8229 259.99 67.741C283.814 86.8925 292.335 86.302 292.335 86.302C292.335 86.302 299.143 114.804 278.85 121.08Z" fill="#94452F"/>
<g opacity="0.35">
<path opacity="0.35" d="M249.632 120.64C249.421 120.84 249.153 120.969 248.866 121.01C247.86 121.188 246.884 121.505 245.966 121.951C244.954 120.687 244.286 119.261 244.575 117.952C244.675 117.511 246.58 118.811 249.632 120.64Z" fill="white"/>
<path opacity="0.35" d="M245.861 122.403L245.682 122.181C244.445 120.634 243.933 119.147 244.221 117.877C244.236 117.804 244.269 117.736 244.316 117.679C244.362 117.621 244.422 117.576 244.49 117.546C244.921 117.362 245.584 117.751 248.051 119.258C248.589 119.585 249.175 119.946 249.815 120.334L250.219 120.579L249.874 120.909C249.609 121.159 249.274 121.323 248.913 121.377C247.941 121.55 246.997 121.858 246.11 122.29L245.861 122.403ZM244.888 118.281C244.754 119.431 245.413 120.624 246.077 121.509C246.947 121.107 247.865 120.82 248.809 120.656C248.844 120.656 248.879 120.642 248.913 120.634C248.472 120.365 248.059 120.114 247.675 119.881C246.494 119.155 245.369 118.468 244.888 118.282V118.281Z" fill="#000072"/>
</g>
<g opacity="0.35">
<path opacity="0.35" d="M278.849 127.733C268.189 131.03 256.229 124.597 249.632 120.64C249.792 120.486 249.914 120.299 249.991 120.091C250.067 119.883 250.096 119.661 250.074 119.441C250.052 119.221 249.98 119.008 249.864 118.82C249.748 118.631 249.59 118.472 249.403 118.353C247.265 117.02 243.991 113.93 244.575 111.305C244.884 109.904 263.253 125.908 278.849 121.085C289.552 117.776 292.715 108.289 293.318 100.057C293.917 108.921 292.649 123.467 278.849 127.733Z" fill="white"/>
<path opacity="0.35" d="M272.529 129.019C264.056 129.019 255.565 124.622 249.447 120.949L249.034 120.702L249.383 120.372C249.503 120.257 249.595 120.116 249.653 119.96C249.71 119.804 249.732 119.637 249.715 119.472C249.699 119.306 249.645 119.147 249.558 119.005C249.471 118.864 249.353 118.744 249.212 118.655C246.865 117.191 243.6 114.005 244.221 111.219C244.236 111.147 244.268 111.079 244.315 111.021C244.362 110.963 244.422 110.918 244.49 110.888C244.923 110.706 245.584 111.093 248.049 112.599C254.263 116.396 267.195 124.301 278.739 120.728C289.475 117.41 292.395 107.638 292.953 100.024H293.678C294.259 108.621 293.12 123.696 278.954 128.076L278.847 127.729L278.954 128.076C276.872 128.711 274.706 129.029 272.529 129.019ZM250.177 120.546C257.726 125.039 268.754 130.478 278.742 127.389C290.144 123.864 292.807 113.078 293.05 104.73C291.666 111.509 287.971 118.644 278.957 121.431C267.098 125.097 253.978 117.08 247.672 113.226C246.492 112.504 245.367 111.818 244.888 111.631C244.607 113.983 247.578 116.788 249.596 118.044C249.94 118.254 250.204 118.574 250.344 118.953C250.483 119.332 250.491 119.746 250.365 120.13C250.32 120.274 250.257 120.413 250.177 120.542V120.546Z" fill="#000072"/>
</g>
<g opacity="0.3">
<path opacity="0.3" d="M250.018 120.017C249.941 120.276 249.792 120.507 249.587 120.683C249.383 120.859 249.132 120.972 248.865 121.01C239.461 122.473 220.52 144.7 218.065 154.715H190.733C182.379 131.663 188.636 106.461 188.636 106.461C188.636 106.461 233.865 116.492 250.018 120.017Z" fill="#000072"/>
</g>
<path d="M283.216 166.913C292.012 166.913 299.143 159.782 299.143 150.986C299.143 142.189 292.012 135.058 283.216 135.058C274.419 135.058 267.288 142.189 267.288 150.986C267.288 159.782 274.419 166.913 283.216 166.913Z" fill="#FFCFAE"/>
<g opacity="0.3">
<path opacity="0.3" d="M299.143 150.987C299.143 153.265 298.653 155.517 297.708 157.59C296.763 159.664 295.385 161.51 293.665 163.005C291.946 164.5 289.926 165.608 287.741 166.256C285.557 166.903 283.259 167.075 281.003 166.758C278.746 166.442 276.584 165.645 274.662 164.422C272.74 163.199 271.102 161.577 269.86 159.667C268.618 157.757 267.8 155.603 267.462 153.35C267.124 151.097 267.273 148.797 267.899 146.606C268.852 149.933 270.862 152.859 273.625 154.942C276.389 157.025 279.755 158.152 283.216 158.152C286.676 158.152 290.043 157.025 292.806 154.942C295.569 152.859 297.58 149.933 298.532 146.606C298.939 148.031 299.144 149.506 299.143 150.987Z" fill="#000072"/>
</g>
<path d="M283.216 169.029C273.263 169.029 265.171 160.935 265.171 150.986C265.171 141.037 273.265 132.942 283.216 132.942C293.166 132.942 301.259 141.037 301.259 150.987C301.259 160.937 293.165 169.029 283.216 169.029ZM283.216 137.175C280.484 137.175 277.814 137.985 275.543 139.503C273.272 141.02 271.502 143.177 270.456 145.701C269.411 148.224 269.138 151.001 269.671 153.68C270.203 156.359 271.519 158.82 273.45 160.751C275.382 162.682 277.842 163.998 280.521 164.531C283.2 165.064 285.977 164.79 288.501 163.745C291.024 162.7 293.181 160.929 294.699 158.658C296.216 156.387 297.026 153.717 297.026 150.986C297.022 147.324 295.565 143.814 292.976 141.225C290.387 138.636 286.877 137.179 283.216 137.175Z" fill="#000072"/>
<path d="M281.793 154.717C281.793 154.717 294.185 123.814 288.141 100.147C287.242 96.6488 285.486 93.4291 283.032 90.7786C280.578 88.128 277.503 86.1301 274.084 84.965" fill="#94452F"/>
<path d="M281.794 156.832C281.448 156.832 281.107 156.747 280.802 156.585C280.496 156.422 280.235 156.188 280.042 155.901C279.848 155.615 279.727 155.285 279.69 154.941C279.653 154.597 279.701 154.25 279.83 153.929C279.951 153.626 291.889 123.378 286.091 100.667C285.284 97.5061 283.701 94.5973 281.484 92.2043C279.268 89.8113 276.489 88.0099 273.4 86.9636C273.137 86.8737 272.894 86.7329 272.685 86.5493C272.477 86.3656 272.307 86.1426 272.184 85.8932C272.062 85.6437 271.99 85.3726 271.972 85.0952C271.955 84.8179 271.992 84.5399 272.082 84.277C272.172 84.0141 272.313 83.7715 272.496 83.563C272.68 83.3545 272.903 83.1842 273.153 83.0619C273.402 82.9395 273.673 82.8675 273.95 82.85C274.228 82.8324 274.506 82.8697 274.769 82.9596C278.524 84.2317 281.902 86.4221 284.595 89.3317C287.289 92.2414 289.213 95.7779 290.192 99.6201C296.336 123.678 284.274 154.212 283.759 155.5C283.602 155.893 283.331 156.23 282.981 156.467C282.63 156.705 282.217 156.832 281.794 156.832Z" fill="#000072"/>
<g opacity="0.3">
<path opacity="0.3" d="M244.022 187.907V203.336C240.632 203.682 237.226 203.853 233.819 203.847C226.856 203.847 220.234 203.174 214.221 201.785V187.907H244.022Z" fill="#000072"/>
</g>
<path d="M282.821 162.97C282.821 186.911 260.704 197.151 233.425 197.151C206.146 197.151 184.029 186.911 184.029 162.97C184.029 157.309 187.417 138.826 189.511 127.939C190.19 124.402 191.238 120.945 192.635 117.626C194.389 113.453 196.713 109.544 199.54 106.01C203.54 101.034 208.662 96.6033 214.251 96.6033H252.599C258.188 96.6033 263.31 101.03 267.31 106.01C272.413 112.371 275.797 119.934 277.339 127.934C277.405 128.274 277.474 128.617 277.538 128.972C279.639 139.963 282.821 157.485 282.821 162.97Z" fill="#FFCFAE"/>
<path d="M202.904 131.867C201.503 132.597 200.046 130.98 200.924 129.666C202.821 126.834 205.893 123.818 210.529 123.324C218.451 122.481 221.675 126.283 220.178 128.799C219.188 130.458 214.167 129.025 210.197 129.525C207.353 129.876 204.86 130.843 202.904 131.867Z" fill="#000072"/>
<path d="M263.994 132.298C265.331 132.993 266.72 131.452 265.877 130.199C264.069 127.498 261.138 124.621 256.717 124.146C249.161 123.339 246.092 126.971 247.516 129.367C248.458 130.95 253.247 129.583 257.035 130.06C259.469 130.389 261.825 131.147 263.994 132.298Z" fill="#000072"/>
<g opacity="0.3">
<path opacity="0.3" d="M283.215 162.97C283.215 186.911 261.099 197.151 233.819 197.151C206.538 197.151 184.424 186.911 184.424 162.97C184.424 162.285 184.473 161.419 184.558 160.399C186.46 182.054 207.789 191.372 233.816 191.372C259.843 191.372 281.168 182.053 283.071 160.402C283.165 161.423 283.215 162.289 283.215 162.97Z" fill="#000072"/>
</g>
<path d="M233.821 199.27C226.488 199.27 219.686 198.546 213.606 197.118C193.423 192.402 182.308 180.274 182.308 162.968C182.308 161.243 182.585 158.445 183.154 154.417C184.287 146.387 186.32 135.368 187.828 127.538C189.458 119.08 193.074 111.175 198.286 104.68C203.722 97.9147 209.227 94.4849 214.646 94.4849H252.996C258.415 94.4849 263.919 97.9147 269.354 104.679C274.567 111.175 278.183 119.08 279.814 127.537C281.321 135.369 283.356 146.388 284.487 154.418C285.056 158.444 285.333 161.241 285.333 162.968C285.333 180.274 274.218 192.402 254.035 197.118C247.955 198.546 241.153 199.27 233.821 199.27ZM214.646 98.7203C209.573 98.7203 204.744 103.405 201.586 107.328C196.805 113.287 193.485 120.551 191.984 128.336C190.483 136.121 188.464 147.062 187.345 155.006C186.807 158.784 186.538 161.462 186.538 162.966C186.538 182.371 201.781 190 214.567 192.994C220.33 194.346 226.806 195.03 233.815 195.03C240.824 195.03 247.301 194.346 253.065 192.994C265.853 190.005 281.095 182.369 281.095 162.966C281.095 161.459 280.826 158.783 280.288 155.007C279.169 147.064 277.147 136.118 275.649 128.335C274.15 120.551 270.828 113.287 266.047 107.327C262.89 103.4 258.06 98.719 252.988 98.719L214.646 98.7203Z" fill="#000072"/>
<g opacity="0.3">
<path opacity="0.3" d="M244.58 118.94C243.997 121.564 247.27 124.655 249.409 125.992C249.66 126.147 249.857 126.376 249.975 126.647C250.092 126.918 250.123 127.218 250.065 127.508C250.006 127.797 249.86 128.062 249.647 128.266C249.434 128.47 249.163 128.604 248.871 128.649C240.188 130.002 211.575 130.632 193.035 117.62C194.789 113.448 197.113 109.539 199.94 106.005C203.94 101.028 209.062 96.5979 214.65 96.5979H252.999C258.587 96.5979 263.71 101.024 267.709 106.005C272.812 112.365 276.196 119.928 277.74 127.928C277.805 128.269 277.875 128.612 277.938 128.967C262.543 132.924 244.878 117.565 244.58 118.94Z" fill="#000072"/>
</g>
<path d="M192.958 84.965C192.958 84.965 224.001 38.8072 259.99 67.7409C283.813 86.8924 292.339 86.3019 292.339 86.3019C292.339 86.3019 299.143 114.796 278.85 121.073C263.254 125.897 244.887 109.891 244.575 111.292C243.991 113.92 247.265 117.01 249.402 118.342C249.653 118.498 249.85 118.727 249.968 118.998C250.085 119.269 250.116 119.57 250.057 119.859C249.999 120.148 249.853 120.413 249.64 120.617C249.427 120.821 249.156 120.956 248.864 121.002C239.461 122.466 206.68 123.088 188.638 106.455L192.958 84.965Z" fill="#94452F"/>
<path d="M272.653 124.094C264.819 124.094 257.069 120.597 251.573 117.549C251.915 118.046 252.126 118.621 252.185 119.222C252.245 119.822 252.151 120.428 251.913 120.982C251.675 121.536 251.301 122.021 250.824 122.392C250.348 122.762 249.786 123.006 249.19 123.1C239.063 124.677 205.943 125.292 187.203 108.018C186.805 107.634 186.574 107.11 186.558 106.557C186.542 106.005 186.743 105.468 187.118 105.061C187.492 104.655 188.011 104.411 188.563 104.382C189.115 104.353 189.656 104.541 190.072 104.906C206.805 120.33 236.795 120.215 246.851 119.135C244.457 117.252 241.781 114.112 242.509 110.84C242.586 110.495 242.744 110.174 242.969 109.902C243.195 109.63 243.482 109.416 243.807 109.277C245.087 108.739 245.986 109.277 248.969 111.106C254.964 114.77 267.437 122.396 278.224 119.057C293.932 114.199 291.548 93.8729 290.563 88.2467C286.755 87.5473 277.154 84.2534 258.664 69.3898C249.664 62.1551 240.213 59.2297 230.574 60.6944C209.937 63.8309 194.865 85.9239 194.714 86.1458C194.559 86.3764 194.36 86.5742 194.129 86.7279C193.897 86.8816 193.638 86.9882 193.365 87.0416C193.092 87.095 192.812 87.0941 192.54 87.0391C192.267 86.9841 192.008 86.8759 191.778 86.7208C191.547 86.5658 191.349 86.3668 191.196 86.1353C191.042 85.9038 190.935 85.6442 190.882 85.3715C190.829 85.0988 190.829 84.8183 190.884 84.5459C190.939 84.2735 191.048 84.0146 191.203 83.784C191.856 82.8116 207.477 59.9224 229.939 56.5101C240.801 54.8598 251.356 58.0824 261.318 66.0905C283.62 84.0207 292.118 84.1943 292.253 84.1943L294.039 84.0719L294.394 85.8204C296.906 96.3423 297.022 117.677 279.472 123.105C277.262 123.775 274.963 124.108 272.653 124.094Z" fill="#000072"/>
<path d="M302.593 281.199H275.179C274.618 281.199 274.079 280.976 273.682 280.579C273.285 280.182 273.062 279.644 273.062 279.082C273.062 278.521 273.285 277.982 273.682 277.585C274.079 277.188 274.618 276.965 275.179 276.965H302.593C303.155 276.965 303.693 277.188 304.09 277.585C304.487 277.982 304.71 278.521 304.71 279.082C304.71 279.644 304.487 280.182 304.09 280.579C303.693 280.976 303.155 281.199 302.593 281.199Z" fill="#000072"/>
<g opacity="0.5">
<path opacity="0.5" d="M293.318 99.3242C293.031 95.1547 292.336 92.2361 292.336 92.2361C292.336 92.2361 283.815 92.8198 259.991 73.6751C256.558 70.9138 253.165 68.8331 249.846 67.3374C250.354 68.0099 250.633 68.7322 250.633 69.4814C250.633 73.1129 244.124 76.0544 236.096 76.0544C228.068 76.0544 221.558 73.1129 221.558 69.4814C221.558 68.3045 222.241 67.1949 223.441 66.2413C216.257 68.7403 209.982 73.129 205.014 77.5178C197.454 84.2091 192.959 90.8978 192.959 90.8978C182.334 87.2192 176.55 92.3773 174.738 99.4802C174.051 102.269 173.637 105.118 173.501 107.987C173.232 102.658 173.551 97.4748 174.738 92.8265C176.553 85.7222 182.328 80.5655 192.959 84.2441C192.959 84.2441 197.454 77.5554 205.014 70.864C217.309 59.9857 237.698 49.1033 259.99 67.0214C283.814 86.1728 292.335 85.5824 292.335 85.5824C292.335 85.5824 293.857 91.9456 293.318 99.3242Z" fill="white"/>
</g>
<path d="M185.25 156.832C184.839 156.833 184.437 156.714 184.093 156.49C183.749 156.266 183.477 155.946 183.311 155.571C182.624 154.012 166.537 117.123 172.686 93.0283C173.847 88.4849 176.299 85.0928 179.777 83.2206C183.206 81.3739 187.353 81.1304 192.121 82.4876C195.845 77.4223 210.271 59.5028 229.933 56.5143C240.795 54.8639 251.351 58.0866 261.312 66.0947C283.616 84.0262 292.112 84.1984 292.247 84.1984L294.033 84.076L294.388 85.8245C296.901 96.3464 297.016 117.681 279.467 123.109C269.523 126.184 258.664 121.484 251.565 117.557C251.907 118.054 252.118 118.629 252.177 119.23C252.237 119.83 252.143 120.436 251.905 120.99C251.667 121.545 251.292 122.03 250.816 122.4C250.34 122.77 249.777 123.014 249.181 123.108C239.055 124.686 205.934 125.3 187.194 108.026C186.797 107.642 186.566 107.118 186.55 106.565C186.534 106.013 186.735 105.476 187.109 105.07C187.484 104.663 188.003 104.419 188.555 104.39C189.107 104.361 189.648 104.549 190.063 104.914C206.796 120.339 236.787 120.223 246.842 119.143C244.448 117.26 241.773 114.121 242.501 110.848C242.578 110.503 242.735 110.182 242.961 109.91C243.187 109.638 243.474 109.424 243.799 109.285C245.079 108.747 245.978 109.285 248.961 111.115C254.955 114.778 267.429 122.404 278.216 119.065C293.924 114.207 291.539 93.8811 290.555 88.2549C286.747 87.5555 277.145 84.2616 258.656 69.398C249.662 62.1686 240.217 59.2406 230.584 60.6999C209.976 63.8203 194.857 85.9321 194.706 86.1554L193.796 87.5004L192.258 86.9691C188.009 85.499 184.484 85.4896 181.779 86.9476C178.737 88.5844 177.383 91.7277 176.784 94.0761C170.993 116.753 187.014 153.498 187.177 153.865C187.319 154.188 187.378 154.54 187.35 154.891C187.321 155.242 187.206 155.58 187.014 155.875C186.821 156.17 186.559 156.412 186.249 156.58C185.94 156.748 185.594 156.836 185.241 156.836L185.25 156.832Z" fill="#000072"/>
<path d="M286.84 304.441H171.525C169.242 304.441 167.391 306.292 167.391 308.575C167.391 310.859 169.242 312.71 171.525 312.71H286.84C289.124 312.71 290.975 310.859 290.975 308.575C290.975 306.292 289.124 304.441 286.84 304.441Z" fill="#ADB9C4"/>
<g opacity="0.3">
<path opacity="0.3" d="M290.972 308.575C290.971 309.671 290.535 310.721 289.761 311.496C288.986 312.27 287.936 312.706 286.84 312.707H171.524C170.428 312.706 169.378 312.271 168.603 311.496C167.828 310.721 167.393 309.671 167.392 308.575C167.39 307.849 167.582 307.135 167.948 306.507C168.309 307.136 168.829 307.659 169.457 308.022C170.086 308.385 170.798 308.576 171.524 308.575H286.84C287.383 308.577 287.921 308.471 288.423 308.263C288.924 308.055 289.379 307.75 289.762 307.365C290.018 307.11 290.238 306.822 290.417 306.508C290.783 307.135 290.974 307.849 290.972 308.575Z" fill="#000072"/>
</g>
<path d="M286.84 314.825H171.525C170.697 314.838 169.874 314.685 169.105 314.376C168.336 314.068 167.636 313.609 167.046 313.027C166.455 312.446 165.987 311.753 165.667 310.988C165.347 310.224 165.182 309.403 165.182 308.575C165.182 307.746 165.347 306.926 165.667 306.161C165.987 305.397 166.455 304.703 167.046 304.122C167.636 303.54 168.336 303.082 169.105 302.773C169.874 302.464 170.697 302.312 171.525 302.324H286.84C288.482 302.348 290.049 303.017 291.201 304.187C292.354 305.356 293 306.932 293 308.575C293 310.217 292.354 311.793 291.201 312.963C290.049 314.132 288.482 314.801 286.84 314.825ZM171.525 306.556C170.99 306.556 170.477 306.769 170.099 307.147C169.72 307.526 169.508 308.039 169.508 308.574C169.508 309.109 169.72 309.622 170.099 310.001C170.477 310.379 170.99 310.591 171.525 310.591H286.84C287.375 310.591 287.889 310.379 288.267 310.001C288.645 309.622 288.858 309.109 288.858 308.574C288.858 308.039 288.645 307.526 288.267 307.147C287.889 306.769 287.375 306.556 286.84 306.556H171.525Z" fill="#000072"/>
<path d="M288.418 304.441H169.948C169.244 304.44 168.565 304.181 168.039 303.713C167.514 303.244 167.179 302.599 167.099 301.9L159.723 237.559C159.657 236.986 159.713 236.405 159.888 235.855C160.062 235.305 160.351 234.797 160.735 234.367C161.119 233.936 161.59 233.591 162.117 233.355C162.644 233.119 163.214 232.997 163.792 232.997H294.574C295.151 232.997 295.722 233.119 296.249 233.355C296.775 233.591 297.246 233.936 297.63 234.367C298.014 234.797 298.303 235.305 298.478 235.855C298.652 236.405 298.708 236.986 298.643 237.559L291.265 301.9C291.185 302.599 290.851 303.245 290.326 303.713C289.801 304.182 289.122 304.441 288.418 304.441Z" fill="#ADB9C4"/>
<g opacity="0.5">
<path opacity="0.5" d="M236.709 276.767C239.974 273.502 239.974 268.209 236.709 264.944C233.444 261.679 228.15 261.679 224.885 264.944C221.62 268.209 221.62 273.502 224.885 276.767C228.15 280.032 233.444 280.032 236.709 276.767Z" fill="white"/>
</g>
<g opacity="0.3">
<path opacity="0.3" d="M298.641 237.557L291.265 301.901C291.184 302.6 290.85 303.244 290.325 303.712C289.801 304.18 289.122 304.439 288.419 304.439H169.946C169.243 304.439 168.564 304.18 168.039 303.712C167.514 303.245 167.18 302.6 167.099 301.901L166.354 295.401H284.135C284.839 295.402 285.518 295.143 286.043 294.674C286.568 294.206 286.902 293.561 286.981 292.862L293.85 232.998H294.575C295.152 232.998 295.722 233.12 296.249 233.356C296.775 233.592 297.245 233.936 297.629 234.367C298.013 234.797 298.302 235.304 298.476 235.853C298.651 236.403 298.707 236.984 298.641 237.557Z" fill="#000072"/>
</g>
<g opacity="0.5">
<path opacity="0.5" d="M298.166 237.557L297.74 241.255C297.397 240.585 296.876 240.022 296.233 239.629C295.591 239.237 294.852 239.03 294.099 239.031H163.314C162.561 239.03 161.822 239.237 161.18 239.63C160.537 240.022 160.016 240.585 159.673 241.255L159.248 237.557C159.182 236.984 159.239 236.403 159.413 235.853C159.587 235.304 159.876 234.797 160.26 234.367C160.644 233.936 161.114 233.592 161.641 233.356C162.167 233.12 162.737 232.998 163.314 232.998H294.099C294.676 232.998 295.246 233.12 295.772 233.356C296.299 233.592 296.769 233.936 297.153 234.367C297.537 234.797 297.826 235.304 298.001 235.853C298.175 236.403 298.232 236.984 298.166 237.557Z" fill="white"/>
</g>
<path d="M288.418 306.557H169.948C168.724 306.558 167.543 306.109 166.63 305.295C165.717 304.481 165.135 303.359 164.997 302.144L157.621 237.803C157.521 236.933 157.606 236.052 157.871 235.217C158.135 234.383 158.573 233.614 159.156 232.96C159.738 232.307 160.453 231.784 161.252 231.426C162.051 231.068 162.916 230.883 163.792 230.883H294.574C295.45 230.883 296.315 231.068 297.114 231.426C297.913 231.784 298.627 232.307 299.21 232.96C299.793 233.614 300.231 234.383 300.495 235.217C300.76 236.052 300.845 236.933 300.745 237.803L293.369 302.144C293.23 303.359 292.649 304.481 291.736 305.295C290.823 306.109 289.641 306.558 288.418 306.557ZM163.792 235.114C163.513 235.114 163.237 235.173 162.982 235.286C162.728 235.4 162.5 235.567 162.315 235.775C162.129 235.983 161.989 236.228 161.905 236.494C161.821 236.76 161.793 237.04 161.825 237.317L169.203 301.659C169.224 301.842 169.311 302.011 169.448 302.134C169.586 302.256 169.764 302.324 169.948 302.324H288.418C288.602 302.324 288.78 302.256 288.917 302.133C289.054 302.011 289.142 301.842 289.163 301.659L296.54 237.315C296.572 237.037 296.545 236.757 296.461 236.491C296.377 236.225 296.237 235.98 296.051 235.772C295.866 235.564 295.638 235.398 295.383 235.284C295.129 235.17 294.853 235.111 294.574 235.111L163.792 235.114Z" fill="#000072"/>
<path d="M148.81 309.624C152.579 309.624 155.634 306.04 155.634 301.618C155.634 297.196 152.579 293.611 148.81 293.611C145.041 293.611 141.985 297.196 141.985 301.618C141.985 306.04 145.041 309.624 148.81 309.624Z" fill="#FFCFAE"/>
<path d="M148.816 311.741C143.886 311.741 139.875 307.199 139.875 301.618C139.875 296.036 143.886 291.494 148.816 291.494C153.747 291.494 157.757 296.035 157.757 301.618C157.757 307.201 153.739 311.741 148.816 311.741ZM148.816 295.727C146.22 295.727 144.109 298.369 144.109 301.618C144.109 304.866 146.222 307.507 148.816 307.507C151.411 307.507 153.524 304.866 153.524 301.618C153.524 298.369 151.405 295.727 148.816 295.727Z" fill="#000072"/>
<path d="M128.523 292.235C133.157 292.236 137.6 294.078 140.876 297.355C144.152 300.632 145.992 305.076 145.992 309.709C145.992 310.491 145.681 311.241 145.129 311.794C144.576 312.347 143.826 312.657 143.044 312.657H113.992C113.21 312.657 112.461 312.347 111.908 311.794C111.355 311.242 111.045 310.492 111.045 309.71C111.045 307.415 111.497 305.143 112.375 303.022C113.253 300.902 114.541 298.975 116.164 297.352C117.787 295.729 119.714 294.442 121.835 293.564C123.955 292.686 126.228 292.234 128.523 292.235Z" fill="#ADB9C4"/>
<path d="M143.05 314.774H113.998C112.656 314.773 111.368 314.239 110.419 313.29C109.47 312.34 108.936 311.053 108.934 309.71C108.934 298.907 117.723 290.119 128.526 290.119C139.329 290.119 148.117 298.907 148.117 309.71C148.115 311.054 147.581 312.341 146.631 313.291C145.681 314.24 144.393 314.774 143.05 314.774ZM128.524 294.352C124.452 294.356 120.548 295.976 117.669 298.855C114.789 301.734 113.17 305.638 113.166 309.71C113.166 309.931 113.254 310.142 113.41 310.297C113.565 310.453 113.777 310.54 113.997 310.54H143.049C143.269 310.54 143.48 310.453 143.636 310.297C143.792 310.142 143.88 309.931 143.88 309.71C143.876 305.639 142.256 301.735 139.377 298.856C136.498 295.977 132.595 294.357 128.523 294.352H128.524Z" fill="#000072"/>
<path d="M102.917 304.413C104.356 305.963 108.577 309.285 117.424 304.664C126.272 300.043 136.779 298.998 140.195 298.746C145.602 298.343 149.898 295.76 148.518 289.401C147.15 283.092 138.873 277.222 127.116 277.459C103.276 277.934 97.5868 298.668 102.917 304.413Z" fill="#FFCFAE"/>
<g opacity="0.2">
<path opacity="0.2" d="M148.518 289.393C148.155 287.718 147.299 286.075 146.026 284.567C145.52 288.587 141.878 290.338 137.504 290.669C134.089 290.928 123.582 291.974 114.734 296.587C107.322 300.46 103.159 298.755 101.156 297.189C100.854 300.222 101.482 302.858 102.917 304.406C104.352 305.954 108.577 309.279 117.424 304.657C126.272 300.036 136.779 298.991 140.194 298.739C145.602 298.33 149.892 295.752 148.518 289.393Z" fill="#000072"/>
</g>
<g opacity="0.5">
<path opacity="0.5" d="M129.133 282.159C138.265 281.975 145.294 285.476 148.621 290.003C148.588 289.8 148.563 289.6 148.518 289.393C147.15 283.085 138.873 277.215 127.116 277.452C103.275 277.935 97.5865 298.668 102.917 304.412C102.991 304.49 103.073 304.577 103.162 304.664C102.303 296.451 109.663 282.554 129.133 282.159Z" fill="white"/>
</g>
<path d="M109.291 309.124C105.045 309.124 102.508 307.082 101.366 305.852C98.4743 302.735 98.1623 296.8 100.589 291.081C104.664 281.475 114.565 275.589 127.073 275.336C140.507 275.067 149.075 281.977 150.586 288.945C151.267 292.083 150.83 294.728 149.286 296.792C147.537 299.137 144.444 300.54 140.354 300.85C136.468 301.144 126.55 302.286 118.405 306.54C114.758 308.445 111.74 309.124 109.291 309.124ZM104.468 302.972C106.916 305.609 111.168 305.545 116.438 302.789C124.963 298.336 134.877 297.018 140.028 296.629C142.824 296.418 144.905 295.577 145.887 294.262C146.666 293.217 146.853 291.729 146.444 289.842C145.326 284.695 138.192 279.351 127.152 279.569C111.16 279.892 105.753 289.728 104.478 292.735C102.517 297.355 102.985 301.382 104.461 302.972H104.468Z" fill="#000072"/>
<path d="M130.367 275.426C133.084 275.247 135.793 275.292 138.508 275.378C141.499 275.5 144.43 276.245 147.116 277.565C148.461 278.173 149.684 279.016 150.866 279.862C151.427 280.333 152.015 280.759 152.523 281.282L153.301 282.038L154.027 282.845C154.968 283.919 155.79 285.092 156.479 286.342L156.979 287.274L157.406 288.24C157.553 288.558 157.681 288.884 157.786 289.218L157.953 289.714L158.036 289.96L158.078 290.084L158.098 290.145L158.109 290.176V290.192C157.988 290.251 158.386 290.071 157.84 290.326C157.294 290.582 157.685 290.392 157.56 290.446V290.439L157.551 290.427L157.533 290.4L157.497 290.348L157.423 290.244L157.278 290.037L156.989 289.624C156.798 289.355 156.611 289.075 156.394 288.817L155.779 288.037L155.123 287.297C154.702 286.797 154.203 286.364 153.758 285.899C153.263 285.476 152.798 285.031 152.278 284.649C151.294 283.827 150.182 283.188 149.1 282.554C147.995 281.97 146.844 281.478 145.658 281.082C143.311 280.268 140.85 279.995 138.433 279.959C135.728 279.959 133.015 279.916 130.311 279.65C129.78 279.598 129.288 279.348 128.933 278.95C128.578 278.552 128.386 278.035 128.395 277.502C128.403 276.969 128.612 276.459 128.979 276.073C129.347 275.686 129.846 275.452 130.378 275.417L130.367 275.426Z" fill="#000072"/>
<path d="M133.794 284.333C134.817 285.247 135.729 286.278 136.512 287.404C137.312 288.54 137.999 289.751 138.563 291.02C139.115 292.316 139.574 293.698 139.765 295.167C139.927 296.638 139.847 298.204 139.331 299.678C139.172 300.135 138.857 300.52 138.442 300.767C138.026 301.014 137.536 301.106 137.06 301.027C136.583 300.948 136.149 300.703 135.835 300.335C135.521 299.968 135.347 299.501 135.344 299.018V298.79C135.344 297.714 135.377 296.672 135.344 295.553C135.271 294.439 135.209 293.266 135.036 292.073C134.668 289.681 134.032 287.207 133.313 284.657V284.644C133.295 284.581 133.298 284.514 133.321 284.453C133.344 284.393 133.387 284.341 133.442 284.306C133.497 284.271 133.561 284.255 133.626 284.26C133.691 284.265 133.753 284.29 133.802 284.333H133.794Z" fill="#000072"/>
<path d="M123.074 286.558C123.916 287.564 124.696 288.619 125.412 289.718C126.122 290.807 126.792 291.916 127.412 293.053C128.047 294.182 128.612 295.35 129.104 296.55C129.573 297.76 129.971 299.004 130.146 300.324C130.209 300.808 130.098 301.299 129.833 301.71C129.569 302.121 129.167 302.424 128.7 302.567C128.233 302.71 127.73 302.683 127.281 302.491C126.831 302.299 126.465 301.954 126.246 301.517L126.228 301.478C125.698 300.363 125.259 299.206 124.916 298.02C124.543 296.835 124.266 295.607 123.974 294.376C123.4 291.912 122.858 289.412 122.54 286.794C122.535 286.754 122.539 286.714 122.549 286.675C122.56 286.636 122.579 286.6 122.604 286.568C122.629 286.537 122.66 286.51 122.695 286.491C122.73 286.471 122.769 286.459 122.809 286.454C122.859 286.449 122.908 286.456 122.954 286.474C123 286.492 123.041 286.521 123.074 286.558Z" fill="#000072"/>
<path d="M112.616 292.699C113.489 293.434 114.31 294.23 115.073 295.08C115.826 295.919 116.544 296.785 117.214 297.686C117.9 298.581 118.519 299.525 119.066 300.511C119.594 301.507 120.054 302.555 120.292 303.708C120.393 304.181 120.325 304.675 120.1 305.104C119.875 305.533 119.507 305.87 119.06 306.056C118.613 306.242 118.115 306.267 117.652 306.124C117.189 305.982 116.791 305.682 116.526 305.277L116.487 305.218C115.926 304.336 115.447 303.405 115.057 302.435C114.637 301.466 114.301 300.442 113.951 299.416C113.257 297.357 112.581 295.257 112.111 293.008C112.103 292.968 112.102 292.927 112.109 292.887C112.117 292.847 112.132 292.809 112.154 292.775C112.176 292.741 112.205 292.711 112.238 292.688C112.272 292.665 112.31 292.649 112.349 292.641C112.395 292.63 112.443 292.629 112.489 292.639C112.535 292.649 112.579 292.67 112.616 292.699Z" fill="#000072"/>
<path d="M238.431 153.467C238.011 153.467 237.607 153.3 237.31 153.003C237.012 152.705 236.845 152.302 236.845 151.881C236.845 151.599 236.774 151.23 236.216 150.877C235.685 150.538 234.902 150.339 234.064 150.339C232.988 150.339 231.288 150.756 231.288 151.876C231.288 152.297 231.121 152.7 230.823 152.997C230.526 153.295 230.123 153.462 229.702 153.462C229.282 153.462 228.878 153.295 228.581 152.997C228.284 152.7 228.116 152.297 228.116 151.876C228.116 149.146 230.617 147.169 234.064 147.169C237.511 147.169 240.011 149.148 240.011 151.876C240.012 152.084 239.972 152.291 239.893 152.483C239.814 152.676 239.698 152.851 239.551 152.999C239.404 153.147 239.23 153.264 239.038 153.344C238.845 153.425 238.639 153.466 238.431 153.467Z" fill="#000072"/>
<path d="M211.359 171.82C200.365 171.82 191.421 162.875 191.421 151.881C191.421 140.887 200.365 131.945 211.359 131.945C222.353 131.945 231.296 140.887 231.296 151.881C231.296 162.875 222.349 171.82 211.359 171.82ZM211.359 135.116C208.043 135.116 204.802 136.099 202.045 137.942C199.288 139.784 197.139 142.402 195.87 145.466C194.601 148.529 194.269 151.9 194.916 155.152C195.563 158.404 197.16 161.392 199.504 163.736C201.849 166.081 204.836 167.678 208.088 168.325C211.341 168.972 214.712 168.64 217.775 167.371C220.839 166.102 223.457 163.953 225.299 161.196C227.141 158.439 228.125 155.197 228.125 151.881C228.12 147.437 226.352 143.175 223.209 140.032C220.066 136.889 215.804 135.121 211.359 135.116Z" fill="#000072"/>
<path d="M256.282 171.189C245.635 171.189 236.973 162.527 236.973 151.881C236.973 141.236 245.635 132.574 256.282 132.574C266.929 132.574 275.589 141.234 275.589 151.881C275.589 162.528 266.929 171.189 256.282 171.189ZM256.282 135.646C253.071 135.646 249.932 136.598 247.262 138.382C244.592 140.166 242.511 142.702 241.282 145.668C240.054 148.635 239.732 151.899 240.358 155.049C240.985 158.198 242.531 161.091 244.802 163.362C247.072 165.632 249.965 167.178 253.115 167.805C256.264 168.431 259.528 168.11 262.495 166.881C265.462 165.652 267.997 163.571 269.781 160.901C271.565 158.231 272.517 155.092 272.517 151.881C272.512 147.577 270.8 143.45 267.757 140.407C264.713 137.363 260.586 135.651 256.282 135.646Z" fill="#000072"/>
<path d="M193.357 150.697H183.043C182.657 150.697 182.287 150.543 182.014 150.271C181.742 149.998 181.589 149.628 181.589 149.243C181.589 148.857 181.742 148.487 182.014 148.214C182.287 147.942 182.657 147.789 183.043 147.789H193.357C193.743 147.789 194.113 147.942 194.385 148.214C194.658 148.487 194.811 148.857 194.811 149.243C194.811 149.628 194.658 149.998 194.385 150.271C194.113 150.543 193.743 150.697 193.357 150.697Z" fill="#000072"/>
<path d="M283.72 150.697H274.049C273.858 150.697 273.669 150.659 273.493 150.586C273.316 150.513 273.156 150.406 273.021 150.271C272.886 150.136 272.779 149.975 272.706 149.799C272.633 149.623 272.595 149.434 272.595 149.243C272.595 149.052 272.633 148.863 272.706 148.686C272.779 148.51 272.886 148.349 273.021 148.214C273.156 148.079 273.316 147.972 273.493 147.899C273.669 147.826 273.858 147.789 274.049 147.789H283.72C284.105 147.789 284.475 147.942 284.748 148.214C285.021 148.487 285.174 148.857 285.174 149.243C285.174 149.628 285.021 149.998 284.748 150.271C284.475 150.543 284.105 150.697 283.72 150.697Z" fill="#000072"/>
<path d="M127.908 314.774C127.347 314.774 126.809 314.551 126.412 314.154C126.016 313.757 125.793 313.219 125.793 312.657V301.618C125.786 301.335 125.835 301.054 125.938 300.791C126.041 300.528 126.196 300.289 126.393 300.086C126.591 299.884 126.826 299.723 127.087 299.613C127.347 299.504 127.627 299.447 127.909 299.447C128.192 299.447 128.471 299.504 128.731 299.613C128.992 299.723 129.227 299.884 129.425 300.086C129.622 300.289 129.777 300.528 129.88 300.791C129.983 301.054 130.032 301.335 130.025 301.618V312.657C130.025 313.219 129.802 313.757 129.405 314.154C129.008 314.551 128.47 314.774 127.908 314.774Z" fill="#000072"/>
<path d="M213.289 164.807C218.647 164.304 222.461 158.265 221.808 151.319C221.155 144.373 216.282 139.15 210.924 139.654C205.566 140.157 201.752 146.196 202.405 153.142C203.058 160.088 207.93 165.311 213.289 164.807Z" fill="#000072"/>
<path d="M215.719 153.694C217.152 153.528 218.089 151.456 217.812 149.066C217.535 146.676 216.149 144.873 214.716 145.039C213.283 145.205 212.346 147.277 212.623 149.667C212.9 152.057 214.286 153.86 215.719 153.694Z" fill="white"/>
<path d="M209.096 156.103C209.131 157.306 208.575 158.273 207.852 158.255C207.13 158.238 206.517 157.261 206.482 156.058C206.447 154.854 207.004 153.89 207.726 153.906C208.448 153.922 209.062 154.901 209.096 156.103Z" fill="white"/>
<path d="M266.159 153.17C266.811 146.224 262.997 140.185 257.639 139.682C252.281 139.178 247.408 144.4 246.755 151.346C246.102 158.292 249.916 164.332 255.275 164.835C260.633 165.339 265.506 160.116 266.159 153.17Z" fill="#000072"/>
<path d="M255.922 149.676C256.199 147.286 255.262 145.214 253.829 145.048C252.396 144.882 251.01 146.685 250.733 149.075C250.456 151.465 251.393 153.537 252.826 153.703C254.259 153.869 255.646 152.066 255.922 149.676Z" fill="white"/>
<path d="M259.441 156.103C259.406 157.306 259.963 158.273 260.685 158.255C261.407 158.238 262.021 157.261 262.056 156.058C262.091 154.854 261.534 153.89 260.812 153.906C260.089 153.922 259.476 154.901 259.441 156.103Z" fill="white"/>
<path d="M221.356 172.586C221.357 175.375 222.241 178.092 223.882 180.347C225.838 183.009 228.932 184.911 233.162 184.911C236.66 184.911 239.873 183.02 242.061 180.317C243.869 178.094 244.972 175.314 244.972 172.586C244.972 169.627 243.697 169.587 241.628 170.316C240.863 170.577 239.986 170.956 239.025 171.323C237.301 171.988 235.302 172.64 233.162 172.64C230.916 172.64 228.817 171.941 227.033 171.259C226.043 170.88 225.142 170.512 224.377 170.269C222.495 169.682 221.356 169.86 221.356 172.586Z" fill="#000072"/>
<path d="M224.061 171.765C224.061 174.027 226.154 176.266 229.191 176.553C232.228 176.839 233.764 176.839 236.798 176.553C240.239 176.227 242.47 173.399 241.819 170.866C241.772 170.678 241.71 170.494 241.634 170.316C240.866 170.585 239.99 170.959 239.03 171.323C237.303 171.989 235.304 172.64 233.165 172.64C230.918 172.64 228.818 171.942 227.036 171.262C226.045 170.881 225.153 170.51 224.38 170.269C224.296 170.462 224.228 170.662 224.178 170.866C224.1 171.159 224.061 171.461 224.061 171.765Z" fill="white"/>
<path d="M223.882 180.347C225.837 183.009 228.932 184.911 233.162 184.911C236.659 184.911 239.873 183.02 242.061 180.317C240.519 179.333 235.901 178.031 233.809 179.779C233.157 180.331 233.002 181.38 233.002 181.38C233.002 181.38 232.842 180.331 232.185 179.779C230.065 178.011 225.376 179.357 223.882 180.347Z" fill="#FF4AA1"/>
<path d="M233.166 185.149C228.166 185.149 225.254 182.615 223.69 180.488C223.671 180.462 223.658 180.432 223.651 180.401C223.643 180.37 223.643 180.337 223.648 180.305C223.654 180.274 223.666 180.243 223.683 180.216C223.701 180.189 223.724 180.166 223.75 180.148C225.247 179.157 230.108 177.736 232.334 179.6C232.627 179.862 232.855 180.188 232.999 180.553C233.142 180.189 233.367 179.863 233.658 179.602C235.864 177.754 240.64 179.126 242.192 180.117C242.22 180.135 242.244 180.159 242.262 180.187C242.281 180.215 242.293 180.246 242.298 180.279C242.304 180.312 242.302 180.346 242.293 180.378C242.285 180.411 242.269 180.441 242.248 180.467C239.841 183.443 236.531 185.149 233.166 185.149ZM224.229 180.413C225.763 182.405 228.527 184.674 233.166 184.674C236.305 184.674 239.402 183.112 241.702 180.381C240.071 179.486 235.862 178.374 233.965 179.966C233.392 180.451 233.237 181.41 233.236 181.42C233.199 181.653 232.801 181.653 232.765 181.42C232.765 181.411 232.609 180.451 232.029 179.966C230.153 178.394 225.9 179.457 224.229 180.413Z" fill="#390075"/>
<path d="M233.166 186.205C224.656 186.205 220.064 179.188 220.064 172.585C220.064 171.525 220.198 170.02 221.307 169.201C222.363 168.425 223.71 168.705 224.766 169.034C225.375 169.225 226.041 169.486 226.747 169.762L227.499 170.052C229.256 170.725 231.158 171.346 233.166 171.346C235.112 171.346 236.987 170.725 238.564 170.116C238.954 169.968 239.323 169.821 239.677 169.679C240.226 169.459 240.739 169.255 241.213 169.092C242.447 168.658 243.866 168.317 244.979 169.102C246.135 169.921 246.269 171.482 246.269 172.585C246.266 179.014 240.664 186.205 233.166 186.205ZM222.819 171.299C222.828 171.309 222.652 171.588 222.652 172.585C222.652 177.933 226.336 183.614 233.166 183.614C239.084 183.614 243.678 177.684 243.678 172.585C243.678 171.458 243.467 171.202 243.464 171.2C243.462 171.197 243.163 171.149 242.063 171.536C241.616 171.689 241.143 171.879 240.637 172.082C240.27 172.229 239.887 172.382 239.488 172.533C237.696 173.224 235.537 173.934 233.167 173.934C230.732 173.934 228.469 173.193 226.576 172.469L225.808 172.172C225.144 171.913 224.517 171.668 223.994 171.5C223.125 171.232 222.862 171.286 222.819 171.299Z" fill="#000072"/>
<path d="M229.344 277.763C233.962 277.763 237.705 274.02 237.705 269.402C237.705 264.785 233.962 261.042 229.344 261.042C224.727 261.042 220.984 264.785 220.984 269.402C220.984 274.02 224.727 277.763 229.344 277.763Z" fill="#000072"/>
<g opacity="0.2">
<path opacity="0.2" d="M152.094 295.796C152.094 295.796 153.234 305.884 144.906 301.618L145.997 305.669L147.497 309.624L151.342 308.574L154.454 306.115L155.521 300.16L154.838 297.866L152.094 295.796Z" fill="#000072"/>
</g>
<path d="M19.562 313.179C27.8001 311.961 36.0382 311.669 44.2764 311.519C52.5145 311.35 60.7526 311.44 68.9907 311.532L81.3486 311.606H93.7051H365.563H377.921L384.099 311.549L390.278 311.451C394.398 311.402 398.517 311.477 402.635 311.677C406.754 311.931 410.874 312.289 414.992 313.179C415.168 313.222 415.324 313.323 415.436 313.465C415.547 313.607 415.608 313.782 415.608 313.963C415.608 314.144 415.547 314.32 415.436 314.462C415.324 314.604 415.168 314.705 414.992 314.747C410.874 315.638 406.754 315.996 402.635 316.25C398.515 316.447 394.396 316.522 390.278 316.476L384.099 316.378L377.921 316.321H365.563H93.7051H81.3486L68.9907 316.394C60.7526 316.487 52.5145 316.575 44.2764 316.407C36.0382 316.239 27.8001 315.965 19.562 314.746C19.3734 314.719 19.2008 314.625 19.0761 314.481C18.9513 314.337 18.8826 314.153 18.8826 313.962C18.8826 313.771 18.9513 313.587 19.0761 313.443C19.2008 313.299 19.3734 313.205 19.562 313.178V313.179Z" fill="#000072"/>
<path d="M380.685 278.264C380.298 278.265 379.918 278.161 379.585 277.963C379.252 277.766 378.979 277.482 378.794 277.143L368.073 257.506C367.937 257.258 367.852 256.985 367.822 256.704C367.792 256.423 367.817 256.139 367.897 255.868C367.977 255.597 368.109 255.344 368.287 255.124C368.464 254.904 368.683 254.721 368.931 254.586C369.179 254.45 369.451 254.365 369.732 254.335C370.013 254.305 370.297 254.33 370.569 254.41C370.84 254.49 371.093 254.622 371.313 254.799C371.533 254.977 371.716 255.196 371.851 255.444L382.577 275.081C382.756 275.408 382.847 275.776 382.84 276.149C382.834 276.522 382.731 276.887 382.541 277.208C382.351 277.529 382.081 277.795 381.757 277.98C381.433 278.166 381.067 278.263 380.694 278.264H380.685Z" fill="#000072"/>
<path d="M392.659 258.459L392.272 263.496L388.409 313.498H357.229L353.367 263.496L352.979 258.459H392.659Z" fill="white"/>
<path d="M388.722 313.834H356.918L352.614 258.123H393.02L388.722 313.834ZM357.541 313.162H388.099L392.297 258.795H353.343L357.541 313.162Z" fill="#000072"/>
<g opacity="0.3">
<path opacity="0.3" d="M392.665 258.459L388.415 313.498H357.229L352.979 258.459H353.294L356.857 304.605H374.03C377.101 304.604 380.059 303.445 382.313 301.359C384.567 299.272 385.951 296.412 386.187 293.35L388.877 258.459H392.665Z" fill="#000072"/>
</g>
<g opacity="0.3">
<path opacity="0.3" d="M392.659 258.459L392.272 263.496H353.367L352.979 258.459H392.659Z" fill="#000072"/>
</g>
<path d="M395.276 248.547H350.363C348.654 248.547 347.269 249.932 347.269 251.641V255.364C347.269 257.074 348.654 258.459 350.363 258.459H395.276C396.985 258.459 398.37 257.074 398.37 255.364V251.641C398.37 249.932 396.985 248.547 395.276 248.547Z" fill="#26BA02"/>
<path d="M395.277 258.796H350.363C349.454 258.795 348.582 258.433 347.938 257.79C347.295 257.147 346.933 256.275 346.932 255.366V251.641C346.933 250.732 347.295 249.859 347.938 249.216C348.581 248.573 349.453 248.211 350.363 248.21H395.277C396.186 248.211 397.058 248.573 397.701 249.217C398.344 249.86 398.706 250.732 398.707 251.641V255.366C398.705 256.275 398.344 257.147 397.701 257.79C397.058 258.433 396.186 258.794 395.277 258.796ZM350.363 248.882C349.632 248.882 348.931 249.173 348.413 249.69C347.896 250.207 347.605 250.909 347.605 251.64V255.364C347.605 256.096 347.896 256.797 348.413 257.314C348.931 257.831 349.632 258.121 350.363 258.122H395.277C396.008 258.121 396.709 257.83 397.226 257.313C397.743 256.796 398.033 256.095 398.034 255.364V251.64C398.034 250.909 397.743 250.208 397.226 249.69C396.709 249.173 396.008 248.882 395.277 248.882H350.363Z" fill="#000072"/>
<g opacity="0.5">
<path opacity="0.5" d="M398.369 251.323V254.065C398.369 253.508 398.148 252.973 397.754 252.579C397.361 252.184 396.827 251.962 396.269 251.962H349.369C348.812 251.962 348.278 252.184 347.884 252.579C347.49 252.973 347.269 253.508 347.27 254.065V251.323C347.269 250.765 347.49 250.231 347.884 249.836C348.278 249.442 348.812 249.22 349.369 249.219H396.269C396.827 249.22 397.361 249.442 397.754 249.836C398.148 250.231 398.369 250.765 398.369 251.323Z" fill="white"/>
</g>
<g opacity="0.3">
<path opacity="0.3" d="M398.369 252.474V256.356C398.369 256.913 398.148 257.448 397.755 257.842C397.361 258.237 396.827 258.459 396.269 258.459H349.369C348.812 258.459 348.278 258.237 347.884 257.842C347.49 257.448 347.269 256.913 347.27 256.356V252.474C347.269 252.75 347.323 253.023 347.429 253.279C347.534 253.534 347.688 253.766 347.883 253.961C348.078 254.156 348.31 254.311 348.565 254.417C348.82 254.523 349.093 254.577 349.369 254.578H396.269C396.545 254.577 396.819 254.523 397.073 254.417C397.328 254.311 397.56 254.156 397.755 253.961C397.95 253.766 398.104 253.534 398.21 253.279C398.315 253.023 398.369 252.75 398.369 252.474Z" fill="#000072"/>
</g>
<path d="M392.836 248.547H352.803V247.546C352.803 245.752 353.516 244.031 354.785 242.763C356.054 241.495 357.774 240.782 359.568 240.782H386.074C387.868 240.782 389.589 241.495 390.857 242.763C392.126 244.032 392.838 245.752 392.838 247.546L392.836 248.547Z" fill="#26BA02"/>
<path d="M393.172 248.881H352.467V247.545C352.469 245.662 353.218 243.857 354.549 242.526C355.881 241.195 357.686 240.446 359.568 240.444H386.074C387.957 240.446 389.762 241.195 391.093 242.526C392.424 243.857 393.172 245.662 393.175 247.545L393.172 248.881ZM353.139 248.209H392.499V247.545C392.497 245.84 391.819 244.207 390.614 243.002C389.409 241.797 387.776 241.119 386.072 241.117H359.568C357.864 241.119 356.23 241.796 355.025 243.001C353.82 244.206 353.141 245.84 353.139 247.545V248.209Z" fill="#000072"/>
<g opacity="0.5">
<path opacity="0.5" d="M392.837 245.654V248.544H392.818C392.719 247.324 392.164 246.186 391.264 245.356C390.364 244.527 389.184 244.066 387.96 244.066H357.679C356.455 244.066 355.275 244.527 354.375 245.356C353.475 246.186 352.92 247.324 352.821 248.544H352.802V245.654C352.802 244.361 353.317 243.121 354.231 242.207C355.146 241.293 356.386 240.78 357.679 240.781H387.957C388.598 240.78 389.232 240.906 389.824 241.15C390.416 241.395 390.953 241.754 391.407 242.206C391.86 242.659 392.219 243.196 392.465 243.788C392.71 244.379 392.837 245.013 392.837 245.654Z" fill="white"/>
</g>
<path d="M395.277 260.477H350.363C349.007 260.477 347.707 259.938 346.749 258.98C345.79 258.021 345.252 256.721 345.252 255.366V251.641C345.254 250.286 345.793 248.988 346.751 248.029C347.709 247.071 349.008 246.532 350.363 246.53H395.277C396.632 246.53 397.932 247.069 398.891 248.027C399.849 248.986 400.388 250.286 400.388 251.641V255.366C400.388 256.721 399.849 258.021 398.891 258.98C397.932 259.938 396.632 260.477 395.277 260.477ZM350.363 250.564C350.078 250.564 349.804 250.677 349.602 250.879C349.4 251.081 349.287 251.355 349.287 251.64V255.364C349.287 255.65 349.4 255.923 349.602 256.125C349.804 256.327 350.078 256.44 350.363 256.44H395.277C395.562 256.44 395.836 256.327 396.037 256.125C396.239 255.923 396.353 255.65 396.353 255.364V251.64C396.353 251.355 396.239 251.081 396.037 250.879C395.836 250.677 395.562 250.564 395.277 250.564H350.363Z" fill="#000072"/>
<path d="M394.853 250.564H350.786V247.546C350.788 245.218 351.715 242.985 353.361 241.339C355.008 239.693 357.24 238.767 359.569 238.764H386.074C388.403 238.767 390.635 239.693 392.281 241.34C393.927 242.986 394.853 245.218 394.856 247.546L394.853 250.564ZM354.931 246.529H390.708C390.475 245.473 389.888 244.527 389.045 243.849C388.202 243.171 387.152 242.801 386.07 242.799H359.569C358.486 242.801 357.437 243.171 356.594 243.849C355.751 244.527 355.164 245.473 354.931 246.529Z" fill="#000072"/>
<path d="M391.778 269.872L389.766 295.93H355.874L353.862 269.872H391.778Z" fill="#26BA02"/>
<path d="M368.917 286.703C369.102 286.873 369.311 287.015 369.538 287.125C371.502 288.077 374.29 286.38 375.764 283.338C376.864 281.074 376.927 278.7 376.083 277.242C375.362 277.486 373.518 278.326 373.319 280.66C373.191 282.17 372.805 286.688 368.917 286.703Z" fill="white"/>
<path d="M368.063 285.393C368.14 285.297 368.239 285.22 368.351 285.171C368.463 285.121 368.586 285.099 368.709 285.107C370.003 285.166 371.378 284.68 371.733 280.534C371.936 278.127 373.449 276.738 374.78 276.06C372.823 275.215 370.106 276.905 368.657 279.897C367.696 281.872 367.525 283.931 368.063 285.393Z" fill="white"/>
<g opacity="0.3">
<path opacity="0.3" d="M391.778 269.872L389.761 295.93H355.867L355.513 291.35H373.606C376.579 291.35 379.442 290.228 381.624 288.208C383.805 286.188 385.144 283.419 385.372 280.455L386.19 269.869L391.778 269.872Z" fill="#000072"/>
</g>
<path d="M391.32 297.61H354.318L352.046 268.19H393.596L391.32 297.61ZM357.426 294.247H388.205L389.953 271.553H355.677L357.426 294.247Z" fill="#000072"/>
<path d="M390.401 315.649H355.239L350.653 256.31H394.988L390.401 315.649ZM359.223 311.345H386.416L390.337 260.614H355.302L359.223 311.345Z" fill="#000072"/>
<g opacity="0.4">
<path opacity="0.4" d="M367.936 223.542L367.869 221.19C367.853 220.33 368.025 219.477 368.373 218.69C368.728 217.894 369.251 217.183 369.905 216.607C370.56 216.031 371.331 215.603 372.166 215.352C373.004 215.083 373.933 215.083 374.672 215.067L377.019 215.016L381.713 214.924L391.102 214.79L393.449 214.759C394.113 214.765 394.772 214.649 395.394 214.417C396.605 213.954 397.59 213.04 398.142 211.867C398.693 210.693 398.769 209.352 398.353 208.124C398.043 207.222 397.476 206.429 396.722 205.844C395.969 205.259 395.061 204.907 394.11 204.83L393.628 204.812H393.042L391.868 204.822L387.174 204.833L368.396 204.843L349.618 204.779L348.446 204.772H347.859H347.559L347.2 204.753C346.239 204.693 345.305 204.407 344.475 203.918C343.648 203.438 342.943 202.772 342.417 201.973C341.891 201.174 341.558 200.263 341.445 199.313C341.331 198.363 341.44 197.4 341.762 196.499C342.085 195.599 342.613 194.785 343.304 194.124C343.992 193.472 344.82 192.984 345.725 192.698C346.608 192.395 347.655 192.413 348.363 192.429L367.14 192.652C373.399 192.775 379.659 192.854 385.917 193.024C386.023 193.03 386.123 193.076 386.196 193.153C386.269 193.23 386.309 193.332 386.309 193.438C386.309 193.545 386.269 193.647 386.196 193.724C386.123 193.801 386.023 193.847 385.917 193.853C379.659 194.023 373.399 194.102 367.14 194.225L348.363 194.448C347.513 194.448 346.966 194.456 346.357 194.668C345.768 194.872 345.232 195.205 344.788 195.642C344.354 196.077 344.025 196.605 343.828 197.187C343.631 197.769 343.57 198.389 343.65 198.998C343.731 199.607 343.951 200.19 344.293 200.7C344.635 201.211 345.09 201.636 345.622 201.942C346.149 202.246 346.741 202.42 347.348 202.448L347.575 202.459H347.863H348.45L349.622 202.452L368.4 202.389L387.178 202.4L391.872 202.41L393.046 202.418H393.632L394.322 202.455C395.487 202.56 396.608 202.948 397.59 203.583C398.571 204.218 399.384 205.083 399.957 206.102C400.531 207.121 400.848 208.264 400.882 209.433C400.915 210.601 400.664 211.761 400.15 212.811C399.32 214.48 397.873 215.759 396.115 216.379C395.26 216.674 394.36 216.81 393.456 216.783L391.109 216.752L381.72 216.618L377.025 216.526L374.678 216.475C373.857 216.452 373.199 216.427 372.526 216.609C371.85 216.782 371.218 217.099 370.675 217.538C370.132 217.977 369.69 218.528 369.379 219.154C369.057 219.788 368.873 220.483 368.841 221.193L368.769 223.535C368.762 223.641 368.716 223.74 368.639 223.813C368.562 223.886 368.46 223.927 368.354 223.927C368.247 223.927 368.145 223.886 368.068 223.813C367.991 223.74 367.945 223.641 367.939 223.535L367.936 223.542Z" fill="#000072"/>
<path opacity="0.4" d="M393.987 193.111C394.529 192.835 395.111 192.648 395.713 192.557C396.283 192.466 396.861 192.431 397.438 192.453C398.016 192.466 398.593 192.522 399.163 192.62C399.755 192.718 400.333 192.882 400.888 193.111C400.932 193.13 400.971 193.158 401.005 193.192C401.038 193.227 401.064 193.267 401.081 193.312C401.098 193.356 401.107 193.404 401.106 193.451C401.105 193.499 401.094 193.546 401.075 193.59C401.038 193.673 400.972 193.74 400.888 193.777C400.334 194.006 399.755 194.171 399.163 194.268C398.593 194.366 398.016 194.422 397.438 194.434C396.861 194.456 396.283 194.421 395.713 194.331C395.111 194.24 394.529 194.053 393.987 193.777C393.899 193.729 393.833 193.649 393.804 193.553C393.775 193.457 393.785 193.354 393.832 193.266C393.868 193.2 393.922 193.147 393.987 193.111Z" fill="#000072"/>
<path opacity="0.4" d="M382.99 182.611C385.265 182.223 387.539 182.05 389.813 181.918C392.088 181.814 394.362 181.758 396.637 181.794C397.774 181.804 398.911 181.813 400.049 181.857C401.187 181.902 402.323 181.935 403.461 182C405.736 182.134 408.01 182.296 410.284 182.611C410.385 182.623 410.478 182.673 410.545 182.749C410.613 182.825 410.65 182.924 410.65 183.025C410.65 183.127 410.613 183.226 410.545 183.302C410.478 183.378 410.385 183.428 410.284 183.44C408.01 183.755 405.736 183.922 403.461 184.051C402.323 184.116 401.185 184.165 400.049 184.192C398.912 184.219 397.774 184.247 396.637 184.257C394.362 184.293 392.088 184.237 389.813 184.133C387.539 183.999 385.265 183.828 382.99 183.44C382.892 183.424 382.804 183.373 382.74 183.297C382.675 183.221 382.64 183.125 382.64 183.025C382.64 182.926 382.675 182.83 382.74 182.754C382.804 182.678 382.892 182.627 382.99 182.611Z" fill="#000072"/>
</g>
</svg>
