<svg width="126" height="126" viewBox="0 0 126 126" fill="none" xmlns="http://www.w3.org/2000/svg">
<circle cx="63" cy="63" r="63" fill="url(#paint0_linear)"/>
<path d="M35.0973 99.0376L29 30.5434H96L89.896 99.0268L62.4589 106.645L35.0973 99.0376Z" fill="#E44D26"/>
<path d="M62.5 100.822L84.6703 94.6659L89.8869 36.144H62.5V100.822Z" fill="#F16529"/>
<path d="M62.5 61.5475H51.4012L50.6345 52.9453H62.5V44.5447H41.4675L41.6685 46.7984L43.73 69.9479H62.5V61.5475ZM62.5 83.3644L62.4632 83.3745L53.1219 80.8481L52.5247 74.1485H44.1049L45.2801 87.3386L62.4617 92.1155L62.5 92.1047V83.3644Z" fill="#EBEBEB"/>
<path d="M62.4711 61.5475V69.9479H72.7997L71.8259 80.8429L62.4711 83.3714V92.1111L79.6663 87.3386L79.7921 85.9189L81.7634 63.8034L81.9681 61.5475H79.708H62.4711ZM62.4711 44.5447V52.9453H82.7314L82.8994 51.057L83.2816 46.7984L83.4823 44.5447H62.4711Z" fill="white"/>
<defs>
<linearGradient id="paint0_linear" x1="118" y1="32.5" x2="-12.5" y2="126" gradientUnits="userSpaceOnUse">
<stop stop-color="#FFB7A7"/>
<stop offset="1" stop-color="#FF886D"/>
</linearGradient>
</defs>
</svg>
