<svg width="126" height="126" viewBox="0 0 126 126" fill="none" xmlns="http://www.w3.org/2000/svg">
<circle cx="63" cy="63" r="63" fill="url(#paint0_linear)"/>
<path d="M45.0003 91.4657L51.5048 87.5291C52.7599 89.7541 53.9014 91.6367 56.6397 91.6367C59.2644 91.6367 60.9196 90.61 60.9196 86.6164V59.4569H68.9072V86.7293C68.9072 95.0025 64.0576 98.7684 56.982 98.7684C50.5921 98.7684 46.8829 95.459 45 91.465L45.0003 91.4657ZM73.2459 90.6097L79.7497 86.8441C81.462 89.6402 83.6873 91.6941 87.6239 91.6941C90.9339 91.6941 93.0443 90.0393 93.0443 87.7569C93.0443 85.0183 90.8761 84.0481 87.2244 82.451L85.2279 81.5944C79.4648 79.1417 75.6422 76.0604 75.6422 69.5559C75.6422 63.5648 80.2066 59 87.339 59C92.4171 59 96.0687 60.7691 98.6931 65.3906L92.4735 69.3849C91.1039 66.9316 89.621 65.9617 87.3386 65.9617C84.9991 65.9617 83.5156 67.4452 83.5156 69.3849C83.5156 71.7812 84.9991 72.7517 88.4224 74.2353L90.4192 75.0909C97.2093 78.0012 101.032 80.9679 101.032 87.643C101.032 94.8328 95.3834 98.7694 87.7948 98.7694C80.3776 98.7694 75.5847 95.2319 73.2456 90.61" fill="black"/>
<defs>
<linearGradient id="paint0_linear" x1="118" y1="32.5" x2="-12.5" y2="126" gradientUnits="userSpaceOnUse">
<stop stop-color="#FFF17D"/>
<stop offset="1" stop-color="#F7DF1E"/>
</linearGradient>
</defs>
</svg>
