<svg width="154" height="88" viewBox="0 0 154 88" fill="none" xmlns="http://www.w3.org/2000/svg">
<path d="M90.5835 1.22603C90.5835 3.1979 90.5835 3.1979 88.9637 3.1979C87.2912 3.1979 86.4109 3.58523 85.3193 4.80005C84.4038 5.80359 83.7524 7.10643 83.4707 8.42688C83.365 8.93746 82.9953 10.0818 82.6432 10.9798C81.7981 13.1277 81.6749 14.501 82.203 16.2087L82.5904 17.4764L82.0094 18.2686C81.4812 19.0081 81.446 19.1489 81.446 20.5222C81.4636 22.0011 81.8685 23.2863 82.6432 24.2371C82.8016 24.4307 82.7136 24.1138 82.4495 23.5328C82.027 22.6173 81.9742 22.2476 81.9566 20.7863C81.9566 18.8848 82.203 18.3391 83.0833 18.3391C83.9989 18.3391 84.6855 18.9729 85.3545 20.4694C85.7066 21.2264 86.094 21.8603 86.1996 21.8603C86.6221 21.8603 87.3264 20.8039 87.3264 20.1701C87.3264 18.7088 88.2067 17.5996 90.7948 15.7686C91.7103 15.1172 92.6082 14.3073 92.8723 13.92C93.1188 13.5326 93.4357 13.2333 93.5413 13.2861C93.6645 13.3214 93.7702 13.7791 93.8054 14.3425C93.8406 14.9235 93.9462 15.346 94.0519 15.346C94.3688 15.346 95.5132 13.9904 95.8653 13.2333C96.0414 12.846 96.2702 12.5291 96.3759 12.5291C96.4815 12.5291 97.0097 12.9868 97.5555 13.5502C98.3301 14.3425 99.0168 14.8003 100.936 15.7862C103.594 17.1419 104.756 18.0222 105.302 19.0785C105.83 20.0997 106.165 19.7299 106.165 18.1454C106.165 17.494 106.235 16.8954 106.341 16.8426C106.429 16.7897 106.763 17.089 107.08 17.5468C107.679 18.3919 107.925 18.4975 108.278 18.075C108.577 17.7229 108.753 17.8637 109.193 18.8144C109.404 19.2546 109.844 19.906 110.197 20.2405L110.813 20.8567L111.2 20.3638C112.415 18.832 112.837 14.765 111.957 12.8812C111.711 12.353 111.165 11.5255 110.76 11.0678L110.021 10.2051L110.654 9.51846C110.989 9.14873 111.271 8.79661 111.271 8.74379C111.271 8.69097 110.918 8.49731 110.496 8.32125C109.475 7.86349 108.7 7.15925 107.133 5.20498C104.827 2.33521 104.034 1.93027 100.355 1.78942C98.2949 1.70139 97.7139 1.61336 97.309 1.34927C96.8688 1.06757 96.6928 1.04997 95.7597 1.22603C95.1787 1.33167 94.2632 1.61336 93.7174 1.85984C93.1892 2.12393 92.661 2.3176 92.573 2.3176C92.4849 2.3176 92.3089 2.05351 92.168 1.7366C91.8863 1.04997 91.2877 0.257698 90.8828 0.0464268C90.6187 -0.0944214 90.5835 0.02882 90.5835 1.22603Z" fill="#252525"/>
<path d="M95.753 23.1024C95.05 23.4793 95.278 24.1912 96.1139 24.2749C96.9688 24.3587 97.9567 23.6049 97.5957 23.1443C97.3488 22.8093 96.3799 22.7883 95.753 23.1024Z" fill="#252525"/>
<path d="M104.696 24.4888C104.043 24.879 104.061 25.2497 104.714 25.5619C105.15 25.7375 105.331 25.7375 105.803 25.4643C106.366 25.1716 106.692 24.6839 106.493 24.4692C106.257 24.2156 105.131 24.2156 104.696 24.4888Z" fill="#252525"/>
<path d="M127.697 27.3533C124.739 31.0506 119.158 39.5895 117.662 42.7586C116.852 44.4311 116.904 44.9769 117.926 45.7516C119.052 46.6143 119.211 46.4558 118.243 45.4699C117.732 44.9417 117.433 44.5015 117.503 44.3607C117.556 44.2375 118.155 43.3748 118.841 42.4593C119.51 41.5437 121.148 39.0261 122.486 36.8605C125.954 31.2442 128.648 27.142 128.947 27.0364C129.282 26.9132 130.637 27.6174 132.046 28.6562C134.299 30.3111 139.088 35.4521 139.088 36.2267C139.088 36.5084 139 36.5436 135.479 37.1775C129.986 38.1634 129.264 38.5155 127.715 40.8923C126.852 42.2128 125.003 45.6635 125.003 45.9276C125.003 46.2974 125.584 46.3326 126.359 45.9805C127.222 45.5931 127.468 45.6459 127.468 46.1565C127.468 46.7199 126.359 47.653 124.88 48.3397C122.714 49.3432 122.292 49.6073 121.957 50.1355C121.781 50.4172 120.901 51.8256 120.021 53.2517C118.559 55.6637 118.102 56.2271 117.855 55.963C117.679 55.787 117.943 55.2412 119.017 53.4454L120.074 51.7024L119.44 51.0686C118.665 50.2587 118.929 50.1883 114.528 52.4947C108.841 55.4877 106.623 56.5617 105.866 56.6673C104.897 56.7905 103.647 56.2095 102.027 54.8891C100.355 53.4982 98.9464 52.8116 98.9464 53.375C98.9464 53.7271 98.0661 54.1144 96.8865 54.2729C95.9181 54.3961 95.1083 54.7306 92.5202 56.0335C90.7772 56.9138 89.2807 57.706 89.1926 57.7941C88.9462 58.023 90.1434 58.0053 90.8124 57.7589C92.0096 57.3363 91.9744 57.6356 90.5835 59.2554C89.8441 60.1005 89.2807 60.8575 89.3335 60.9103C89.5272 61.0864 90.9004 59.9596 91.9392 58.7624C93.5765 56.861 94.2104 56.4384 95.8477 56.1567C96.3231 56.0863 96.3935 55.7342 95.9534 55.6109C95.7597 55.5581 95.6012 55.4349 95.6012 55.3116C95.6012 55.1884 95.9357 55.1356 96.6048 55.1708C97.9428 55.2412 97.9956 55.5581 96.8865 56.6145C96.4287 57.0546 95.6012 57.8469 95.0555 58.3575C93.7878 59.5723 93.2772 60.8047 91.992 65.6816C90.9533 69.6781 90.6187 70.5056 89.6504 71.5796C89.087 72.2134 89.0518 72.2838 89.3511 72.4951C89.7384 72.7768 91.1821 73.0937 92.1329 73.0937C93.0836 73.0937 94.7033 72.6711 95.9357 72.1254C99.2281 70.6112 103.277 66.6675 106.077 62.266C106.728 61.2272 108.489 57.9525 108.665 57.4243C108.806 57.0018 109.387 57.618 113.383 62.5301C115.39 64.9949 117.397 67.3717 117.838 67.7943C118.63 68.5513 118.665 68.5689 119.528 68.4633C120.567 68.3401 120.514 68.1992 120.443 70.8049C120.408 71.6324 120.479 72.6359 120.584 73.0409C120.795 73.8507 121.641 74.6958 122.626 75.1008C124.44 75.8754 129.528 76.5269 132.768 76.4212C134.81 76.3508 135.144 76.2099 135.672 75.1536C135.901 74.731 135.901 74.555 135.637 73.7451C135.479 73.2345 135.25 72.6887 135.144 72.5303C135.021 72.3718 134.141 71.7908 133.172 71.2275C131.077 70.0302 129.933 69.2556 129.933 69.0619C129.933 68.9739 131.042 68.8859 132.38 68.833C135.074 68.745 135.514 68.6042 136.025 67.6182C136.165 67.3189 136.342 66.6499 136.394 66.1217C136.482 65.259 136.447 65.1534 135.972 64.678C135.356 64.0618 134.44 63.7625 133.137 63.7625C132.239 63.7625 132.151 63.7097 131.201 62.8294C130.655 62.3188 129.827 61.597 129.352 61.2272C128.894 60.8575 128.401 60.2765 128.26 59.9244C128.102 59.5899 127.662 58.9913 127.257 58.6216C126.852 58.2518 126.623 57.9525 126.746 57.9525C127.239 57.9525 130.532 58.868 132.715 59.6251C135.285 60.5054 138.313 61.9315 140.021 63.0935C141.588 64.1498 143.349 65.9809 143.947 67.2133C144.387 68.1288 144.458 68.4457 144.458 69.8366C144.458 71.2275 144.387 71.5444 143.947 72.4599C143.349 73.6747 141.588 75.5233 140.056 76.5621C134.581 80.2241 125.796 82.6361 114.809 83.4812C111.746 83.7101 104.439 83.7101 101.394 83.4812C86.3933 82.3192 75.0374 77.9705 72.2557 72.2838C71.8155 71.4035 71.7451 71.0338 71.7627 69.8366C71.7627 68.076 72.2909 66.8964 73.7346 65.2942C74.5797 64.3963 74.6325 64.2907 74.1219 64.6428C72.7486 65.5759 71.0057 67.5478 70.319 68.9563C69.6676 70.2591 69.6324 70.4528 69.6324 71.9317C69.6324 73.3754 69.6852 73.6395 70.2134 74.7134C74.7733 84.0446 99.7034 89.8722 123.595 87.1785C139.423 85.3827 150.972 80.3298 153.384 74.0972C153.859 72.9176 153.877 70.8753 153.419 69.7485C151.148 64.009 141.905 59.4314 127.926 57.1603C125.901 56.8257 125.056 56.6145 124.88 56.4032C124.387 55.7342 124.598 55.5229 126.482 54.8539C128.401 54.1848 129.088 53.5862 130.69 51.2623C133.525 47.1072 138.859 38.3042 139.634 36.526L139.951 35.769L138.859 34.1492C137.574 32.2126 134.405 28.9378 132.75 27.8287C131.394 26.9308 129.88 26.2793 129.123 26.2617C128.665 26.2617 128.436 26.4378 127.697 27.3533ZM129.475 40.2057C129.317 40.7515 127.539 43.7973 126.817 44.7832C126.482 45.2586 126.095 45.6283 125.954 45.6283C125.813 45.6283 125.707 45.5931 125.707 45.5403C125.707 45.3995 127.521 42.3888 128.384 41.086C129.229 39.836 129.722 39.431 129.475 40.2057ZM123.067 50.2059C123.067 50.6813 120.531 55.0299 119.862 55.699C119.457 56.1039 119.123 56.1215 119.281 55.699C119.44 55.2588 122.186 50.6989 122.503 50.3291C122.803 49.9946 123.067 49.9418 123.067 50.2059Z" fill="#252525"/>
<path d="M94.8816 29.5085C96.0012 31.5991 97.6696 32.7173 99.6892 32.693C100.414 32.693 101.336 32.5471 101.687 32.377L102.346 32.0609L101.687 31.988C99.1624 31.6963 97.5599 31.1129 95.6719 29.8245C95.1451 29.4598 94.7938 29.314 94.8816 29.5085Z" fill="#252525"/>
<path d="M89.087 35.0647C89.087 36.3323 92.08 38.762 93.6469 38.762C94.2103 38.762 94.6505 38.2514 94.4744 37.776C94.3336 37.4239 94.0519 37.4767 93.9286 37.8817C93.8758 38.0753 93.6821 38.2338 93.5061 38.2338C92.9603 38.2338 91.1469 36.9309 90.0905 35.7689C89.2278 34.8182 89.087 34.7126 89.087 35.0647Z" fill="#252525"/>
<path d="M87.4145 38.0929C85.7067 41.7726 83.8581 46.9664 82.9426 50.646C81.4989 56.456 81.2172 61.4913 82.1327 65.1005C82.5905 66.914 83.682 68.8858 84.9673 70.2063C85.7948 71.069 86.0236 71.245 85.7595 70.8049C84.0518 68.0055 83.2067 65.4175 82.9426 62.1427C82.5024 56.8785 83.7525 50.1178 86.8159 40.9627C87.661 38.4451 88.33 36.3676 88.3124 36.3323C88.2772 36.3147 87.8899 37.107 87.4145 38.0929Z" fill="#252525"/>
<path d="M96.1294 38.2338C96.2703 38.3394 97.0802 38.7796 97.9428 39.2197C98.7879 39.6775 99.5626 40.188 99.6682 40.3641C99.8443 40.6986 99.457 41.8254 98.8408 42.7761L98.5767 43.1635L97.8372 42.7937C97.4323 42.5825 96.9041 42.2832 96.6576 42.1071C95.6012 41.4029 94.897 41.0331 94.897 41.2092C94.897 41.3676 95.7421 42.1071 97.8724 43.8325C98.6295 44.4487 98.7703 44.748 98.3302 44.748C97.8372 44.748 96.2879 45.6283 95.478 46.3854C95.0555 46.7727 94.4921 47.4593 94.2456 47.8995C93.9991 48.3396 93.6822 48.903 93.5413 49.1319L93.2773 49.5368L92.1857 48.3748C91.1469 47.2657 91.0765 47.2128 90.2666 47.2128C89.8089 47.2128 89.4391 47.248 89.4391 47.3009C89.4391 47.3361 90.0201 47.8114 90.7244 48.3396C91.411 48.8854 92.4322 49.6953 92.9603 50.1354C94.1752 51.1742 95.1083 51.5967 96.1294 51.6143C96.5872 51.6143 97.0273 51.7024 97.1506 51.8256C97.309 51.9841 97.4147 51.9841 97.5555 51.8432C97.714 51.6848 97.6083 51.5439 97.2034 51.2974C96.7456 51.0157 96.5344 50.9805 96.147 51.139C95.0203 51.5615 94.7738 50.7869 95.4956 49.2199C95.7245 48.7093 96.2175 47.9875 96.5696 47.5826C97.2562 46.8255 99.0872 45.8044 99.7739 45.8044C100.249 45.8044 100.284 45.5931 99.8795 44.9241C99.5978 44.4311 99.5978 44.3783 100.056 43.4804C100.584 42.424 100.637 41.843 100.284 40.9979C99.9675 40.2409 99.2985 39.6951 97.5731 38.7972C96.2703 38.1105 95.5132 37.8288 96.1294 38.2338Z" fill="#252525"/>
<path d="M108.753 44.6424C107.485 45.1706 106.851 45.6459 104.792 47.653C102.696 49.6601 102.626 49.801 103.277 50.3291C104.07 50.963 105.725 51.7904 106.2 51.7904C106.957 51.7904 111.957 49.9418 115.197 48.4453L116.394 47.8995L116.024 47.3889C115.408 46.5262 113.7 45.0826 112.767 44.6424C111.587 44.079 110.126 44.079 108.753 44.6424Z" fill="#252525"/>
<path d="M126.746 57.9525C127.239 57.9525 130.531 58.868 132.715 59.6251C135.285 60.5054 138.313 61.9315 140.021 63.0935C141.588 64.1498 143.349 65.9809 143.947 67.2133C144.387 68.1288 144.458 68.4457 144.458 69.8366C144.458 71.2275 144.387 71.5444 143.947 72.4599C143.349 73.6747 141.588 75.5233 140.056 76.5621C134.581 80.2241 125.795 82.6361 114.809 83.4812C111.746 83.7101 104.439 83.7101 101.394 83.4812C86.3933 82.3192 75.0374 77.9705 72.2556 72.2838C71.8155 71.4035 71.7451 71.0338 71.7627 69.8366C71.7627 68.076 72.2908 66.8964 73.7345 65.2942C74.5796 64.3963 74.6324 64.2907 74.1219 64.6428C72.7486 65.5759 71.0056 67.5478 70.319 68.9563C69.6676 70.2591 69.6323 70.4528 69.6323 71.9317C69.6323 73.3754 69.6852 73.6395 70.2133 74.7134C74.7733 84.0446 99.7034 89.8722 123.595 87.1785C139.423 85.3827 150.972 80.3298 153.384 74.0972C153.859 72.9176 153.877 70.8753 153.419 69.7485C151.148 64.009 141.905 59.4314 127.926 57.1603C126.134 56.8642 125.266 56.6646 124.968 56.4762L124.88 56.4032C124.9 56.4275 124.929 56.4517 124.968 56.4762L126.746 57.9525Z" fill="#FF4D4D"/>
<path d="M89.087 35.0647C89.087 36.3323 92.08 38.762 93.6469 38.762C94.2103 38.762 94.6504 38.2514 94.4744 37.776C94.3335 37.4239 94.0518 37.4767 93.9286 37.8817C93.8758 38.0753 93.6821 38.2338 93.5061 38.2338C92.9603 38.2338 91.1469 36.9309 90.0905 35.7689C89.2278 34.8182 89.087 34.7126 89.087 35.0647Z" fill="#FF4D4D"/>
<path fill-rule="evenodd" clip-rule="evenodd" d="M127.749 27.3533C124.791 31.0506 119.21 39.5895 117.714 42.7585C116.904 44.4311 116.956 44.9769 117.978 45.7516C119.104 46.6143 119.263 46.4558 118.295 45.4699C117.784 44.9417 117.485 44.5015 117.555 44.3607C117.608 44.2374 118.206 43.3748 118.893 42.4592C119.562 41.5437 121.2 39.0261 122.538 36.8605C126.006 31.2442 128.7 27.142 128.999 27.0364C129.333 26.9131 130.689 27.6174 132.098 28.6561C134.351 30.3111 139.14 35.4521 139.14 36.2267C139.14 36.5084 139.052 36.5436 135.531 37.1774C130.038 38.1634 129.316 38.5155 127.767 40.8923C126.904 42.2128 125.055 45.6635 125.055 45.9276C125.055 46.2973 125.636 46.3326 126.411 45.9804C127.274 45.5931 127.52 45.6459 127.52 46.1565C127.52 46.7199 126.411 47.653 124.932 48.3396C122.766 49.3432 122.344 49.6073 122.009 50.1355L122.009 50.1356L122.009 50.1358C121.832 50.4185 120.953 51.8263 120.073 53.2517C118.611 55.6637 118.247 55.9476 117.907 55.963C117.907 55.963 119.288 56.4455 120.21 56.5341C122.138 56.7194 125.055 55.4701 125.055 55.4701C125.341 55.2974 125.816 55.1089 126.534 54.8539C128.453 54.1848 129.14 53.5862 130.742 51.2622C133.577 47.1072 138.911 38.3042 139.686 36.526L140.003 35.769L138.911 34.1492C137.626 32.2125 134.457 28.9378 132.802 27.8287C131.446 26.9307 129.932 26.2793 129.175 26.2617C128.717 26.2617 128.488 26.4378 127.749 27.3533ZM126.869 44.7832C127.59 43.7973 129.369 40.7515 129.527 40.2057C129.773 39.431 129.281 39.836 128.435 41.086C127.573 42.3888 125.759 45.3994 125.759 45.5403C125.759 45.5931 125.865 45.6283 126.006 45.6283C126.147 45.6283 126.534 45.2586 126.869 44.7832ZM119.914 55.699C120.583 55.0299 123.118 50.6812 123.118 50.2059C123.118 49.9418 122.854 49.9946 122.555 50.3291C122.238 50.6989 119.492 55.2588 119.333 55.699C119.175 56.1215 119.509 56.1039 119.914 55.699Z" fill="#FF4D4D"/>
<path d="M79.8587 31.398C78.4144 32.3103 70.7364 36.6433 62.8304 40.9764L48.6024 48.5826L44.4338 47.9702C42.1532 47.4381 40.1007 47.286 39.7966 47.5901C38.7323 48.6544 43.1408 49.4979 45.498 50.0987C47.2178 50.5371 50.0044 50.6856 50.0044 50.6856L62.0702 43.8652C68.7599 40.1402 76.3618 35.8832 79.0225 34.4388C83.7357 31.8541 85.7122 29.8016 83.5076 29.8016C82.9755 29.8016 81.3031 30.5618 79.8587 31.398Z" fill="#252525"/>
<path d="M31.2064 46.6019C31.2064 51.6191 31.3584 52.6074 32.1946 51.9992C32.9548 51.3151 33.639 51.4671 34.8553 52.3033L36.5277 53.4436V47.4381C36.5277 41.8127 36.3757 41.3566 34.8553 40.9004C31.2824 39.9882 31.2064 40.1402 31.2064 46.6019Z" fill="#FF4D4D"/>
<path fill-rule="evenodd" clip-rule="evenodd" d="M66.1575 12.1778C64.3404 11.8331 62.4273 11.4701 60.4738 11.101L42.9894 7.7561L24.0606 17.1065C13.57 22.1997 3.91554 27.3691 2.54719 28.5854C-0.493575 31.17 -0.797652 34.8189 1.55894 38.7719L3.07933 41.2806L1.55894 43.2571C-0.417556 45.7657 -0.417556 49.7947 1.63496 53.0635L3.23137 55.6482L1.63496 57.6247C-0.721633 60.5895 -0.493575 64.9225 2.1671 67.7353C4.06758 69.7878 5.74 70.3199 25.353 74.577C36.9839 77.1616 47.2465 79.2142 48.1587 79.2142C49.9072 79.2142 62.9329 72.1296 71.8767 66.671C72.7725 66.1243 73.5967 65.6458 74.4132 65.1716C75.6456 64.4561 76.8606 63.7507 78.278 62.8362L81.5493 60.9669L82.0633 64.3144C82.5954 66.595 83.6597 69.0276 84.5719 69.7878L86.1683 71.2321L84.8 69.1036C83.8877 67.7353 83.2796 64.9986 83.0515 61.5017C82.7475 56.3324 83.2796 53.2916 86.3964 41.9647L86.9285 40.0643L85.4841 41.7367C83.5837 44.0173 49.9832 62.4899 47.7786 62.4899C46.8664 62.4899 36.9839 60.5895 25.8851 58.2329C8.47669 54.5079 5.51194 53.7477 4.06758 52.0753C0.798751 48.6544 2.62321 42.7249 6.80427 42.7249C8.02058 42.7249 13.1139 43.5611 18.2832 44.6254C26.2809 46.2801 27.8755 46.6542 28.1483 46.2122C28.2515 46.0451 28.1657 45.7611 28.1657 45.3856C28.1657 44.7775 28.0136 44.2453 27.7856 44.2453C27.1014 44.2453 9.693 40.4444 6.80427 39.6842C2.24312 38.4679 0.798751 32.9945 4.21962 29.8017L6.19612 27.9772L26.1131 31.9302C37.0599 34.1348 46.9424 35.9592 48.0827 35.8832C49.223 35.8832 56.2167 32.5384 63.6666 28.3573C71.1165 24.2523 78.6424 20.2233 80.3909 19.311L83.6597 17.7906V15.4021L79.7827 14.6738C78.9944 14.6132 73.321 13.5368 66.1575 12.1778ZM81.6359 59.385C81.788 59.233 84.1446 47.526 84.1446 46.9178C84.1446 46.2465 83.7786 46.4535 59.6371 60.1052L58.222 60.9054C53.6608 63.49 50.0879 65.0104 48.5676 65.0104C47.1992 65.0104 41.5738 64.0222 36.0244 62.8059C19.9843 59.233 10.4059 57.4085 7.66923 57.4085C4.7805 57.4085 2.804 59.6131 2.804 62.8059C2.804 66.4548 4.93254 67.9752 12.3064 69.6476C30.2469 73.6006 47.4273 77.1735 48.5676 77.1735C49.4798 77.1735 80.3436 60.6013 81.6359 59.385Z" fill="#252525"/>
<path d="M45.0974 14.4674L61.2204 17.9724L52.5 22.5L37 18.5L45.0974 14.4674Z" fill="#FF4D4D"/>
</svg>
