<svg width="126" height="126" viewBox="0 0 126 126" fill="none" xmlns="http://www.w3.org/2000/svg">
<circle cx="63" cy="63" r="63" fill="url(#paint0_linear)"/>
<path fill-rule="evenodd" clip-rule="evenodd" d="M27 80L32.5358 52.2056H45.3361C50.8715 52.5488 53.6394 55.2937 53.6394 60.098C53.6394 68.3333 47.0662 73.1373 41.1843 72.7941H34.9576L33.5736 80H27ZM36.3411 67.6472L38.0711 57.3528H42.5686C44.9904 57.3528 46.7201 58.3821 46.7201 60.4409C46.3744 66.2746 43.6065 67.304 40.4929 67.6472H36.3415H36.3411ZM52.3533 72.7941L57.8887 45H64.4623L63.0783 52.2056H69.3055C74.8412 52.5488 76.917 55.2937 76.2252 58.7254L73.8034 72.7941H66.8841L69.3059 60.098C69.6516 58.3821 69.6516 57.3528 67.2302 57.3528H62.0405L58.9269 72.7941H52.3533ZM73.3602 80L78.8956 52.2056H91.6964C97.2321 52.5488 100 55.2937 100 60.098C100 68.3333 93.4264 73.1373 87.5449 72.7941H81.3174L79.9335 80H73.3602ZM82.7009 67.6472L84.431 57.3528H88.9289C91.3507 57.3528 93.0803 58.3821 93.0803 60.4409C92.7346 66.2746 89.9667 67.304 86.8532 67.6472H82.7013H82.7009Z" fill="#232531"/>
<defs>
<linearGradient id="paint0_linear" x1="115.5" y1="20.5" x2="8.5" y2="100.5" gradientUnits="userSpaceOnUse">
<stop stop-color="#C0C8E9"/>
<stop offset="1" stop-color="#8993BE"/>
</linearGradient>
</defs>
</svg>
