<svg width="85" height="65" viewBox="0 0 85 65" fill="none" xmlns="http://www.w3.org/2000/svg">
<path d="M65.6808 25.9218C66.6257 25.9218 67.5325 26.0695 68.4351 26.2041C68.1427 25.1967 67.8419 24.172 67.3588 23.2515C66.8757 21.9142 66.1215 20.7548 65.3715 19.5868C64.7443 18.3233 63.6384 17.4679 62.8248 16.3868C61.9731 15.336 60.812 14.6369 59.8925 13.7642C58.99 12.8524 57.8077 12.3965 56.867 11.7538C55.8839 11.1764 55.028 10.5381 54.1127 10.2341L51.8288 9.27021L49.8203 8.41483L51.8754 0L54.4051 0.625249C55.2144 0.833665 56.2018 1.07682 57.3247 1.36773C58.473 1.58483 59.6976 2.17969 61.062 2.72244C62.4095 3.33901 63.9689 3.75584 65.4181 4.74582C66.8757 5.69238 68.558 6.48263 70.0411 7.7505C71.4775 9.05745 73.2106 10.1907 74.4903 11.8537C75.8887 13.4081 77.27 15.0407 78.3421 16.8991C79.5837 18.6707 80.4269 20.6159 81.3167 22.5394C82.1219 24.4629 82.7702 26.4299 83.2998 28.3403C84.3041 32.17 84.7533 35.8086 84.927 38.9218C85.0711 42.0394 84.9863 44.6316 84.8084 46.5073C84.7448 47.3931 84.6261 48.2528 84.5414 48.8477L84.4355 49.5771L84.3253 49.5511C83.5716 53.1586 81.8367 56.4737 79.3211 59.113C76.8055 61.7523 73.6122 63.6079 70.1104 64.4652C66.6086 65.3224 62.9415 65.1463 59.5334 63.9572C56.1252 62.7681 53.1152 60.6145 50.8516 57.7457C48.588 54.8769 47.1632 51.41 46.7421 47.7461C46.3211 44.0822 46.9209 40.371 48.4722 37.0418C50.0235 33.7127 52.4629 30.9015 55.5083 28.9337C58.5536 26.9658 62.0805 25.9216 65.6808 25.9218ZM19.0695 25.9218C20.0145 25.9218 20.9213 26.0695 21.8238 26.2041C21.5314 25.1967 21.2306 24.172 20.7475 23.2515C20.2645 21.9142 19.5102 20.7548 18.7602 19.5868C18.1331 18.3233 17.0271 17.4679 16.2135 16.3868C15.3618 15.336 14.2008 14.6369 13.2813 13.7642C12.3787 12.8524 11.1965 12.3965 10.2558 11.7538C9.2727 11.1764 8.41674 10.5381 7.50146 10.2341L5.21751 9.27021L3.20899 8.41483L5.26413 0L7.79385 0.625249C8.60319 0.833665 9.59049 1.07682 10.7134 1.36773C11.8617 1.58483 13.0863 2.17969 14.4508 2.72244C15.794 3.34335 17.3576 3.75584 18.8068 4.75017C20.2645 5.69673 21.9467 6.48697 23.4298 7.75484C24.8663 9.06179 26.5994 10.1951 27.8791 11.8537C29.2774 13.4081 30.6588 15.0407 31.7308 16.8991C32.9724 18.6707 33.8156 20.6159 34.7055 22.5394C35.5106 24.4629 36.1589 26.4299 36.6886 28.3403C37.6928 32.17 38.142 35.8086 38.3157 38.9218C38.4598 42.0394 38.3751 44.6316 38.1971 46.5073C38.1335 47.3931 38.0149 48.2528 37.9301 48.8477L37.8242 49.5771L37.714 49.5511C36.9604 53.1586 35.2254 56.4737 32.7098 59.113C30.1943 61.7523 27.0009 63.6079 23.4991 64.4652C19.9974 65.3224 16.3303 65.1463 12.9221 63.9572C9.51396 62.7681 6.50397 60.6145 4.24034 57.7457C1.97672 54.8769 0.551949 51.41 0.130875 47.7461C-0.290199 44.0822 0.309616 40.371 1.86094 37.0418C3.41226 33.7127 5.85169 30.9015 8.89704 28.9337C11.9424 26.9658 15.4692 25.9216 19.0695 25.9218Z" fill="#818181"/>
</svg>
