<svg width="494" height="525" viewBox="0 0 494 525" fill="none" xmlns="http://www.w3.org/2000/svg">
<path d="M245.074 281.092H211.597V320.217H245.074V281.092Z" fill="#FFC38F"/>
<path d="M245.381 320.525H211.289V280.783H245.381V320.525ZM211.905 319.909H244.765V281.4H211.905V319.909Z" fill="#390075"/>
<path d="M245.074 300.659H211.597V320.217H245.074V300.659Z" fill="#64B9E3"/>
<path d="M245.381 320.525H211.289V300.351H245.381V320.525ZM211.905 319.909H244.765V300.967H211.905V319.909Z" fill="#390075"/>
<path d="M245.073 322.538H211.597C210.981 322.538 210.391 322.294 209.956 321.858C209.52 321.423 209.275 320.833 209.275 320.217V281.092C209.275 280.476 209.52 279.885 209.955 279.45C210.391 279.014 210.981 278.77 211.597 278.77H245.073C245.689 278.77 246.279 279.014 246.715 279.45C247.15 279.885 247.395 280.476 247.395 281.092V320.217C247.395 320.833 247.15 321.423 246.714 321.858C246.279 322.294 245.689 322.538 245.073 322.538ZM213.918 317.896H242.752V283.411H213.918V317.896Z" fill="#390075"/>
<path d="M245.073 322.538H211.597C210.981 322.538 210.391 322.294 209.956 321.858C209.52 321.423 209.275 320.833 209.275 320.217V300.659C209.275 300.043 209.52 299.453 209.956 299.018C210.391 298.582 210.981 298.338 211.597 298.338H245.073C245.689 298.338 246.279 298.582 246.714 299.018C247.15 299.453 247.395 300.043 247.395 300.659V320.217C247.395 320.833 247.15 321.423 246.714 321.858C246.279 322.294 245.689 322.538 245.073 322.538ZM213.918 317.896H242.752V302.983H213.918V317.896Z" fill="#390075"/>
<path d="M245.073 312.355V331.506C245.073 340.587 234.241 339.055 234.241 339.055H202.291C196.498 339.055 192.335 337.36 192.198 329.13C192.191 328.987 192.191 328.844 192.191 328.693C192.191 320.089 199.627 320.089 205.378 317.461C211.129 314.834 217.017 308.42 222.626 308.711C228.235 309.002 229.362 318.031 234.553 318.344C239.7 318.646 240.943 312.355 245.073 312.355Z" fill="#FFDA22"/>
<path d="M245.073 329.129V331.506C245.073 340.587 234.241 339.055 234.241 339.055H202.291C196.498 339.055 192.335 337.36 192.198 329.129H245.073Z" fill="white"/>
<path d="M235.992 339.465C235.393 339.469 234.795 339.434 234.2 339.36H202.293C196.98 339.36 192.043 338.128 191.892 329.131V328.818H245.389V331.501C245.389 333.987 244.596 335.938 243.034 337.294C240.911 339.134 237.894 339.465 235.992 339.465ZM192.516 329.438C192.744 337.154 196.593 338.747 202.293 338.747H234.243C234.338 338.758 239.599 339.462 242.624 336.829C244.045 335.596 244.765 333.803 244.765 331.504V329.438H192.516Z" fill="#390075"/>
<path d="M236.002 341.483C235.364 341.485 234.726 341.45 234.092 341.377H202.293C197.056 341.377 190.075 340.113 189.881 329.2C189.873 329.034 189.872 328.867 189.872 328.695C189.872 320.337 195.845 318.35 200.644 316.752C201.981 316.307 203.246 315.889 204.419 315.35C206.311 314.488 208.267 313.132 210.335 311.71C214.29 308.984 218.381 306.163 222.746 306.388C226.75 306.597 228.972 309.778 230.758 312.334C232.324 314.575 233.371 315.942 234.694 316.022C236.282 316.116 237.25 315.191 238.813 313.547C240.302 311.982 242.155 310.035 245.073 310.035C245.689 310.035 246.279 310.279 246.715 310.714C247.15 311.149 247.395 311.74 247.395 312.355V331.505C247.395 335.36 245.736 337.608 244.346 338.816C241.752 341.07 238.233 341.483 236.002 341.483ZM222.265 311.019C219.518 311.019 216.191 313.313 212.969 315.533C210.826 317.012 208.608 318.539 206.346 319.574C204.947 320.213 203.502 320.693 202.107 321.158C197.117 322.819 194.512 323.909 194.512 328.696C194.512 328.808 194.512 328.915 194.512 329.022C194.512 329.046 194.512 329.069 194.512 329.091C194.62 335.554 197.214 336.733 202.284 336.733H234.235C234.343 336.733 234.451 336.741 234.559 336.756C235.779 336.92 239.383 336.982 241.307 335.301C242.275 334.454 242.746 333.212 242.746 331.504V316.149C242.565 316.334 242.374 316.533 242.172 316.747C240.51 318.493 238.236 320.884 234.407 320.656C230.744 320.434 228.724 317.544 226.942 314.987C225.256 312.573 224.116 311.103 222.497 311.018C222.427 311.019 222.346 311.019 222.265 311.019Z" fill="#390075"/>
<path d="M236.002 341.483C235.364 341.485 234.726 341.449 234.092 341.377H202.293C197.051 341.377 190.062 340.111 189.879 329.168C189.874 328.86 189.93 328.554 190.045 328.268C190.159 327.981 190.329 327.721 190.545 327.501C190.761 327.282 191.019 327.107 191.303 326.988C191.587 326.869 191.892 326.808 192.2 326.808H245.074C245.69 326.808 246.281 327.053 246.716 327.488C247.151 327.923 247.396 328.514 247.396 329.13V331.505C247.396 335.36 245.738 337.608 244.347 338.816C241.752 341.07 238.233 341.483 236.002 341.483ZM194.701 331.45C195.38 335.853 197.913 336.734 202.291 336.734H234.241C234.349 336.734 234.458 336.742 234.565 336.758C235.785 336.922 239.39 336.983 241.313 335.302C242.282 334.455 242.752 333.213 242.752 331.505V331.45H194.701Z" fill="#390075"/>
<path d="M204.899 316.369C205.731 316.361 206.557 316.511 207.334 316.811C208.882 317.404 210.257 318.376 211.332 319.638C211.86 320.278 212.252 321.019 212.484 321.816C212.5 321.876 212.492 321.94 212.462 321.993C212.431 322.047 212.38 322.087 212.32 322.103C212.29 322.111 212.258 322.113 212.227 322.109C212.196 322.104 212.166 322.094 212.139 322.077L212.124 322.069C211.515 321.687 210.874 321.357 210.209 321.083C209.579 320.84 208.936 320.631 208.284 320.456C207.634 320.289 206.977 320.168 206.337 320.002C205.696 319.835 205.022 319.664 204.478 319.416L204.284 319.327C203.965 319.181 203.704 318.93 203.546 318.616C203.387 318.302 203.34 317.944 203.412 317.6C203.483 317.256 203.669 316.946 203.94 316.721C204.21 316.497 204.549 316.37 204.901 316.363L204.899 316.369Z" fill="#390075"/>
<path d="M211.427 312.52C211.896 312.561 212.357 312.659 212.803 312.811C213.228 312.948 213.64 313.122 214.035 313.331C214.833 313.753 215.57 314.283 216.224 314.905C216.89 315.523 217.464 316.234 217.926 317.016C218.378 317.788 218.675 318.64 218.799 319.526C218.805 319.572 218.796 319.62 218.775 319.662C218.753 319.703 218.72 319.738 218.678 319.76C218.637 319.782 218.59 319.791 218.543 319.786C218.496 319.781 218.452 319.761 218.417 319.73L218.402 319.717C217.772 319.152 217.206 318.648 216.563 318.245C215.948 317.842 215.303 317.486 214.634 317.183C213.975 316.88 213.294 316.638 212.632 316.366C212.298 316.235 211.967 316.102 211.639 315.96C211.321 315.833 211.011 315.686 210.712 315.519L210.466 315.36C210.174 315.175 209.954 314.897 209.839 314.571C209.724 314.246 209.722 313.891 209.833 313.564C209.944 313.237 210.162 312.957 210.451 312.769C210.74 312.58 211.084 312.495 211.428 312.525L211.427 312.52Z" fill="#390075"/>
<g opacity="0.2">
<path opacity="0.2" d="M192.009 328.697C192.009 328.845 192.009 328.984 192.016 329.131C192.156 337.363 196.33 339.057 202.106 339.057H234.059C234.059 339.057 244.892 340.589 244.892 331.506C230.348 332.558 220.04 331.289 212.768 329.131C204.218 326.608 199.854 322.856 197.731 320.217C194.508 321.61 192.009 323.707 192.009 328.697Z" fill="#390075"/>
</g>
<path d="M278.55 281.092H245.073V320.217H278.55V281.092Z" fill="#FFC38F"/>
<path d="M278.858 320.525H244.765V280.783H278.858V320.525ZM245.381 319.909H278.242V281.4H245.381V319.909Z" fill="#390075"/>
<path d="M278.55 300.659H245.073V320.217H278.55V300.659Z" fill="#64B9E3"/>
<path d="M278.858 320.525H244.765V300.351H278.858V320.525ZM245.381 319.909H278.242V300.967H245.381V319.909Z" fill="#390075"/>
<path d="M278.55 322.538H245.073C244.457 322.538 243.867 322.294 243.432 321.858C242.997 321.423 242.752 320.833 242.752 320.217V281.092C242.752 280.787 242.812 280.485 242.928 280.203C243.045 279.921 243.216 279.665 243.431 279.45C243.647 279.234 243.903 279.063 244.184 278.946C244.466 278.83 244.768 278.77 245.073 278.77H278.55C278.855 278.77 279.157 278.83 279.439 278.946C279.72 279.063 279.976 279.234 280.192 279.45C280.407 279.665 280.578 279.921 280.695 280.203C280.811 280.485 280.871 280.787 280.871 281.092V320.217C280.871 320.522 280.811 320.824 280.694 321.105C280.578 321.387 280.407 321.643 280.191 321.858C279.976 322.074 279.72 322.245 279.438 322.361C279.157 322.478 278.855 322.538 278.55 322.538ZM247.395 317.896H276.229V283.411H247.395V317.896Z" fill="#390075"/>
<path d="M278.55 322.538H245.073C244.457 322.538 243.867 322.293 243.432 321.858C242.997 321.423 242.752 320.833 242.752 320.217V300.659C242.752 300.043 242.997 299.453 243.432 299.018C243.867 298.582 244.457 298.338 245.073 298.338H278.55C279.166 298.338 279.756 298.582 280.191 299.018C280.626 299.453 280.871 300.043 280.871 300.659V320.217C280.871 320.833 280.626 321.423 280.191 321.858C279.756 322.293 279.166 322.538 278.55 322.538ZM247.395 317.896H276.229V302.983H247.395V317.896Z" fill="#390075"/>
<path d="M245.073 312.355V331.506C245.073 340.587 255.907 339.055 255.907 339.055H287.856C293.642 339.055 297.812 337.36 297.95 329.13C297.956 328.987 297.956 328.844 297.956 328.693C297.956 320.089 290.52 320.089 284.768 317.461C279.016 314.834 273.131 308.42 267.52 308.711C261.91 309.002 260.785 318.031 255.595 318.344C250.447 318.646 249.203 312.355 245.073 312.355Z" fill="#FFDA22"/>
<path d="M245.073 329.129V331.506C245.073 340.587 255.907 339.055 255.907 339.055H287.856C293.642 339.055 297.812 337.36 297.95 329.129H245.073Z" fill="white"/>
<path d="M254.153 339.467C252.26 339.467 249.239 339.136 247.12 337.296C245.557 335.94 244.765 333.99 244.765 331.503V328.82H298.263V329.133C298.112 338.123 293.174 339.363 287.86 339.363H255.907C255.325 339.437 254.739 339.472 254.153 339.467ZM245.381 329.438V331.504C245.381 333.803 246.102 335.594 247.523 336.829C250.551 339.462 255.81 338.758 255.863 338.75H287.855C293.557 338.75 297.405 337.158 297.634 329.441L245.381 329.438Z" fill="#390075"/>
<path d="M254.144 341.483C251.915 341.483 248.396 341.07 245.8 338.816C244.41 337.608 242.752 335.365 242.752 331.505V312.355C242.752 311.74 242.997 311.149 243.432 310.714C243.867 310.279 244.457 310.034 245.073 310.034C247.993 310.034 249.845 311.982 251.333 313.547C252.897 315.191 253.866 316.112 255.454 316.022C256.777 315.942 257.823 314.575 259.39 312.334C261.176 309.778 263.398 306.597 267.401 306.387C271.779 306.184 275.861 308.984 279.815 311.709C281.885 313.137 283.841 314.484 285.731 315.35C286.902 315.885 288.166 316.307 289.505 316.752C294.304 318.354 300.275 320.337 300.275 328.695C300.275 328.867 300.275 329.033 300.268 329.2C300.072 340.112 293.091 341.377 287.854 341.377H256.056C255.421 341.45 254.783 341.485 254.144 341.483ZM247.395 316.149V331.505C247.395 333.213 247.866 334.455 248.834 335.302C250.757 336.983 254.362 336.922 255.589 336.756C255.694 336.742 255.8 336.734 255.907 336.734H287.856C292.926 336.734 295.52 335.552 295.629 329.093C295.629 329.069 295.629 329.047 295.629 329.024C295.629 328.916 295.629 328.809 295.629 328.697C295.629 323.91 293.023 322.82 288.033 321.159C286.638 320.694 285.198 320.214 283.796 319.575C281.532 318.54 279.314 317.012 277.171 315.534C273.854 313.249 270.44 310.884 267.63 311.027C266.014 311.112 264.874 312.582 263.193 314.995C261.411 317.547 259.391 320.437 255.73 320.665C251.889 320.893 249.628 318.502 247.966 316.755C247.766 316.533 247.577 316.334 247.395 316.149Z" fill="#390075"/>
<path d="M254.144 341.483C251.914 341.483 248.396 341.07 245.8 338.816C244.41 337.608 242.752 335.365 242.752 331.505V329.13C242.752 328.514 242.997 327.924 243.432 327.488C243.867 327.053 244.457 326.808 245.073 326.808H297.947C298.255 326.808 298.56 326.869 298.844 326.988C299.128 327.107 299.386 327.282 299.601 327.502C299.817 327.721 299.987 327.982 300.102 328.268C300.216 328.554 300.272 328.86 300.267 329.168C300.084 340.111 293.095 341.377 287.853 341.377H256.054C255.42 341.449 254.782 341.485 254.144 341.483ZM247.395 331.45V331.505C247.395 333.213 247.866 334.455 248.834 335.302C250.757 336.983 254.362 336.922 255.589 336.756C255.694 336.742 255.8 336.734 255.907 336.734H287.855C292.234 336.734 294.766 335.853 295.445 331.45H247.395Z" fill="#390075"/>
<path d="M285.668 319.422C285.126 319.669 284.436 319.849 283.809 320.008C283.183 320.167 282.513 320.295 281.862 320.462C281.21 320.637 280.567 320.846 279.937 321.089C279.272 321.363 278.632 321.693 278.022 322.075L278.008 322.083C277.968 322.107 277.922 322.118 277.875 322.116C277.829 322.113 277.784 322.097 277.747 322.069C277.71 322.041 277.682 322.002 277.667 321.958C277.652 321.914 277.65 321.867 277.662 321.822C277.894 321.025 278.286 320.284 278.814 319.644C279.889 318.382 281.264 317.41 282.812 316.817C283.589 316.517 284.414 316.368 285.246 316.376C285.598 316.383 285.937 316.509 286.207 316.733C286.478 316.958 286.664 317.268 286.736 317.612C286.807 317.956 286.76 318.315 286.601 318.628C286.443 318.942 286.182 319.193 285.863 319.34L285.668 319.422Z" fill="#390075"/>
<path d="M279.429 315.519C279.131 315.686 278.821 315.833 278.504 315.96C278.176 316.102 277.843 316.235 277.509 316.366C276.849 316.638 276.168 316.88 275.508 317.183C274.838 317.486 274.194 317.842 273.58 318.245C272.937 318.648 272.37 319.152 271.74 319.717L271.726 319.729C271.691 319.761 271.647 319.781 271.6 319.786C271.553 319.792 271.506 319.783 271.464 319.761C271.422 319.739 271.389 319.704 271.367 319.662C271.346 319.62 271.338 319.573 271.344 319.526C271.468 318.64 271.764 317.788 272.217 317.016C272.679 316.234 273.251 315.523 273.918 314.905C274.572 314.283 275.308 313.753 276.107 313.331C276.502 313.123 276.914 312.949 277.339 312.811C277.785 312.659 278.247 312.561 278.716 312.52C279.06 312.489 279.404 312.575 279.693 312.763C279.983 312.952 280.201 313.232 280.312 313.559C280.423 313.886 280.421 314.241 280.306 314.566C280.192 314.892 279.971 315.17 279.68 315.355L279.429 315.519Z" fill="#390075"/>
<g opacity="0.2">
<path opacity="0.2" d="M298.137 328.697C298.137 328.845 298.137 328.984 298.13 329.131C297.99 337.363 293.816 339.057 288.04 339.057H256.082C256.082 339.057 245.251 340.589 245.251 331.506C259.794 332.558 270.101 331.289 277.374 329.131C285.923 326.608 290.287 322.856 292.411 320.217C295.645 321.61 298.137 323.707 298.137 328.697Z" fill="#390075"/>
</g>
<path d="M188.137 156.162L173.862 176.51L169.302 183.016C154.717 171.411 148.412 144.562 139.46 138.103C131.572 132.424 128.837 123.488 133.967 117.36C134.703 116.485 135.548 115.708 136.481 115.047C144.767 109.074 152.69 117.693 156.93 125.933C161.73 135.272 188.137 156.162 188.137 156.162Z" fill="#FFC38F"/>
<g opacity="0.6">
<path opacity="0.6" d="M133.643 119.804C141.929 113.831 149.851 122.45 154.091 130.691C158.537 139.329 181.453 157.843 184.863 160.569L187.955 156.16C187.955 156.16 161.549 135.271 156.742 125.932C152.503 117.692 144.58 109.073 136.294 115.045C135.362 115.707 134.517 116.485 133.78 117.359C132.719 118.609 131.951 120.081 131.53 121.665C132.169 120.974 132.877 120.351 133.643 119.804Z" fill="#FDFDFE"/>
</g>
<g opacity="0.2">
<path opacity="0.2" d="M173.862 176.51L169.302 183.017C154.717 171.411 148.412 144.563 139.46 138.103C131.572 132.424 128.837 123.488 133.967 117.36C134.175 122.906 136.349 130.548 145.255 136.269C145.251 136.269 161.398 165.229 173.862 176.51Z" fill="#390075"/>
</g>
<path d="M169.3 185.34C168.775 185.34 168.266 185.162 167.855 184.836C159.38 178.094 153.74 166.793 148.766 156.823C145.099 149.475 141.636 142.535 138.101 139.989C132.418 135.896 129.026 130.1 129.027 124.489C129.027 120.01 131.19 115.985 135.116 113.16C138.176 110.957 141.427 110.25 144.775 111.052C152.095 112.811 157.155 121.3 158.992 124.869C162.743 132.161 182.341 148.616 189.576 154.34C190.041 154.708 190.348 155.239 190.433 155.825C190.519 156.412 190.377 157.009 190.037 157.494L171.201 184.351C170.987 184.656 170.702 184.905 170.371 185.077C170.041 185.249 169.673 185.338 169.3 185.337V185.34ZM142.15 115.38C140.693 115.38 139.268 115.892 137.836 116.928C135.115 118.887 133.675 121.501 133.675 124.49C133.675 128.613 136.346 132.994 140.823 136.222C145.301 139.45 148.835 146.533 152.929 154.75C157.292 163.501 162.19 173.309 168.885 179.583L184.996 156.61C178.971 151.737 159.172 135.348 154.873 126.992C151.66 120.747 147.478 116.475 143.7 115.567C143.193 115.443 142.672 115.38 142.15 115.38Z" fill="#390075"/>
<path d="M150.087 118.324C149.802 118.167 149.509 118.026 149.208 117.902C148.898 117.778 148.577 117.685 148.249 117.622C147.658 117.495 147.044 117.521 146.466 117.698C145.383 118.024 144.385 119.113 143.737 120.378C143.418 121.023 143.188 121.707 143.052 122.413C142.914 123.078 142.916 123.764 143.059 124.428C143.212 125.045 143.482 125.424 143.922 125.575C144.362 125.725 145.102 125.633 145.794 125.363L145.879 125.329C146.025 125.272 146.186 125.262 146.339 125.299C146.492 125.336 146.629 125.419 146.733 125.537C146.837 125.655 146.903 125.802 146.92 125.958C146.938 126.114 146.908 126.272 146.833 126.41C146.57 126.928 146.382 127.482 146.277 128.053C146.16 128.651 146.123 129.262 146.166 129.87C146.201 130.492 146.326 131.105 146.536 131.691C146.749 132.294 147.025 132.872 147.359 133.417V133.427C147.382 133.465 147.39 133.51 147.381 133.553C147.372 133.597 147.348 133.635 147.312 133.661C147.276 133.687 147.231 133.698 147.188 133.693C147.144 133.688 147.103 133.666 147.074 133.633C146.607 133.133 146.205 132.576 145.879 131.975C145.541 131.36 145.292 130.7 145.139 130.015C144.832 128.586 144.931 127.098 145.427 125.722L146.466 126.77C145.653 127.193 144.674 127.613 143.476 127.386C142.872 127.26 142.321 126.954 141.896 126.509C141.51 126.094 141.216 125.603 141.033 125.067C140.681 124.057 140.646 123.062 140.731 122.109C140.822 121.151 141.061 120.213 141.438 119.328C141.813 118.418 142.348 117.583 143.018 116.863C143.721 116.056 144.631 115.456 145.65 115.127C146.681 114.801 147.783 114.771 148.831 115.04C149.321 115.165 149.798 115.336 150.254 115.553C150.721 115.771 151.161 116.04 151.568 116.355C151.803 116.55 151.957 116.824 152.001 117.125C152.046 117.426 151.977 117.733 151.809 117.986C151.641 118.24 151.384 118.422 151.09 118.498C150.795 118.574 150.482 118.538 150.212 118.398L150.087 118.324Z" fill="#390075"/>
<path d="M134.519 130.612C135.166 130.998 135.915 131.464 136.586 131.772C136.896 131.926 137.218 132.055 137.549 132.158C137.755 132.22 137.969 132.257 138.185 132.266C138.217 132.25 138.27 132.28 138.281 132.266C138.292 132.307 138.404 132.201 138.465 132.166C138.608 132.063 138.712 131.915 138.762 131.746C138.837 131.471 138.853 131.182 138.81 130.9C138.771 130.56 138.695 130.225 138.582 129.902L138.459 129.551C138.384 129.329 138.38 129.09 138.447 128.865C138.513 128.641 138.647 128.443 138.831 128.297C139.014 128.152 139.237 128.066 139.471 128.052C139.705 128.038 139.937 128.097 140.136 128.22C140.548 128.472 140.985 128.678 141.441 128.836C141.886 128.983 142.313 129.033 142.566 128.972C142.71 128.938 142.837 128.853 142.923 128.732C143.049 128.552 143.136 128.347 143.179 128.131C143.302 127.638 143.302 127.064 143.276 126.489V126.482C143.274 126.423 143.295 126.365 143.335 126.321C143.376 126.277 143.432 126.251 143.491 126.249C143.536 126.247 143.58 126.259 143.618 126.282C143.656 126.306 143.687 126.34 143.705 126.381C143.982 126.947 144.162 127.555 144.238 128.18C144.275 128.547 144.24 128.918 144.135 129.271C144.001 129.695 143.733 130.064 143.37 130.322C142.602 130.85 141.788 130.862 141.105 130.824C140.419 130.776 139.743 130.631 139.098 130.393L140.659 128.71C140.976 129.199 141.229 129.726 141.412 130.279C141.608 130.888 141.684 131.529 141.636 132.167C141.577 132.92 141.292 133.637 140.818 134.224C140.699 134.367 140.572 134.503 140.437 134.63C140.292 134.775 140.13 134.902 139.955 135.007C139.595 135.243 139.197 135.414 138.778 135.511C138.081 135.628 137.368 135.602 136.682 135.434C136.129 135.283 135.592 135.076 135.08 134.817C134.142 134.34 133.282 133.724 132.528 132.991C132.253 132.728 132.084 132.373 132.055 131.993C132.025 131.614 132.136 131.237 132.366 130.935C132.597 130.632 132.931 130.425 133.304 130.352C133.678 130.28 134.065 130.348 134.391 130.543L134.519 130.612Z" fill="#390075"/>
<path d="M138.42 129.569C138.437 129.654 138.47 129.735 138.517 129.808C138.535 129.836 138.555 129.862 138.578 129.886V129.865L138.557 129.776C138.511 129.689 138.473 129.605 138.421 129.511C138.318 129.326 138.204 129.141 138.086 128.944L137.353 127.797C136.851 127.031 136.336 126.268 135.815 125.509C136.614 125.967 137.417 126.43 138.206 126.907L139.397 127.646C139.596 127.77 139.797 127.905 140 128.047L140.314 128.282L140.503 128.457L140.55 128.503C140.588 128.55 140.623 128.601 140.653 128.653C140.727 128.775 140.786 128.904 140.831 129.039C140.869 129.198 140.876 129.364 140.849 129.525C140.823 129.687 140.765 129.842 140.679 129.981C140.592 130.12 140.479 130.24 140.345 130.335C140.211 130.429 140.06 130.496 139.9 130.532C139.74 130.567 139.575 130.571 139.414 130.542C139.253 130.512 139.099 130.452 138.962 130.362C138.824 130.273 138.706 130.158 138.614 130.022C138.522 129.887 138.458 129.734 138.425 129.574L138.42 129.569Z" fill="#390075"/>
<path d="M141.099 124.329C140.745 124.207 140.42 124.014 140.143 123.762C139.864 123.508 139.61 123.228 139.385 122.925C138.88 122.298 138.465 121.604 138.153 120.863C138.139 120.83 138.134 120.795 138.138 120.76C138.142 120.725 138.155 120.691 138.176 120.663C138.197 120.634 138.224 120.611 138.257 120.597C138.289 120.582 138.324 120.576 138.36 120.579C139.162 120.653 139.95 120.838 140.701 121.13C141.059 121.253 141.403 121.41 141.729 121.6C142.054 121.787 142.336 122.039 142.56 122.339C142.755 122.626 142.829 122.978 142.764 123.319C142.7 123.66 142.503 123.961 142.216 124.156C142.054 124.266 141.87 124.338 141.677 124.368C141.484 124.398 141.287 124.384 141.099 124.329Z" fill="#390075"/>
<path d="M318.959 179.923L300.123 153.064C300.123 153.064 326.526 132.175 331.332 122.835C335.571 114.595 343.497 105.979 351.791 111.948C360.086 117.917 357.76 128.56 348.808 135.009C339.855 141.459 333.549 168.318 318.959 179.923Z" fill="#FFC38F"/>
<g opacity="0.6">
<path opacity="0.6" d="M333.31 128.279C337.549 120.04 345.475 111.423 353.77 117.391C354.987 118.252 356.05 119.313 356.914 120.529C356.938 116.955 355.34 113.552 351.794 110.998C343.504 105.03 335.579 113.647 331.334 121.886C326.528 131.226 300.125 152.115 300.125 152.115L303.706 157.22C309.487 152.541 329.219 136.23 333.31 128.279Z" fill="#FDFDFE"/>
</g>
<path d="M318.96 182.245C318.588 182.245 318.221 182.155 317.89 181.983C317.56 181.812 317.275 181.563 317.06 181.259L298.222 154.401C297.882 153.915 297.741 153.319 297.826 152.732C297.912 152.146 298.218 151.615 298.682 151.247C305.918 145.523 325.516 129.069 329.268 121.776C331.104 118.202 336.17 109.718 343.483 107.96C346.832 107.155 350.082 107.864 353.143 110.068C357.069 112.894 359.232 116.918 359.232 121.397C359.232 127.008 355.842 132.802 350.159 136.895C346.624 139.442 343.161 146.386 339.495 153.73C334.52 163.7 328.88 175.001 320.405 181.742C319.994 182.068 319.485 182.246 318.96 182.245ZM303.273 153.514L319.386 176.488C326.079 170.214 330.977 160.399 335.342 151.655C339.441 143.438 342.983 136.342 347.446 133.126C351.909 129.911 354.594 125.517 354.594 121.394C354.594 118.407 353.155 115.791 350.434 113.832C348.494 112.435 346.576 111.989 344.572 112.476C340.79 113.384 336.614 117.652 333.4 123.902C329.098 132.253 309.299 148.641 303.273 153.514Z" fill="#390075"/>
<path d="M336.507 113.004C336.727 112.83 336.957 112.669 337.195 112.521C337.415 112.386 337.641 112.263 337.874 112.152C338.347 111.921 338.843 111.74 339.353 111.612C340.46 111.327 341.624 111.359 342.714 111.702C343.788 112.048 344.747 112.681 345.486 113.533C346.226 114.3 346.719 115.186 347.116 116.101C347.5 117.016 347.739 117.986 347.826 118.975C347.904 119.961 347.863 120.998 347.487 122.056C347.285 122.626 346.965 123.148 346.549 123.587C346.086 124.065 345.488 124.393 344.835 124.525C344.256 124.634 343.659 124.607 343.091 124.447C342.606 124.31 342.138 124.115 341.699 123.866L343.015 122.539C343.155 122.908 343.26 123.289 343.329 123.677C343.396 124.04 343.437 124.407 343.453 124.776C343.527 126.578 342.976 128.351 341.892 129.794C341.684 130.068 341.439 130.314 341.218 130.569C341.182 130.608 341.133 130.634 341.08 130.64C341.027 130.646 340.974 130.633 340.93 130.603C340.886 130.573 340.854 130.528 340.841 130.476C340.827 130.425 340.833 130.37 340.857 130.322L340.868 130.301C341.185 129.749 341.445 129.167 341.644 128.562C341.835 127.979 341.941 127.371 341.96 126.758C341.987 126.162 341.934 125.564 341.805 124.982C341.738 124.696 341.656 124.415 341.558 124.139C341.471 123.886 341.362 123.642 341.233 123.408C341.13 123.239 341.082 123.041 341.096 122.844C341.11 122.646 341.186 122.457 341.312 122.305C341.438 122.152 341.609 122.042 341.8 121.99C341.992 121.939 342.194 121.949 342.38 122.018L342.549 122.081C343.222 122.334 343.911 122.406 344.275 122.249C344.442 122.183 344.584 122.064 344.68 121.912C344.806 121.711 344.893 121.487 344.935 121.254C345.055 120.627 345.045 119.982 344.906 119.359C344.764 118.685 344.534 118.033 344.223 117.419C343.588 116.211 342.628 115.211 341.683 114.933C341.163 114.775 340.612 114.75 340.08 114.862C339.775 114.919 339.475 115.002 339.183 115.108C339.033 115.164 338.881 115.232 338.737 115.296C338.593 115.36 338.423 115.451 338.357 115.477L338.004 115.62C337.662 115.758 337.282 115.768 336.934 115.648C336.586 115.527 336.293 115.285 336.11 114.965C335.927 114.646 335.866 114.271 335.938 113.91C336.01 113.548 336.211 113.225 336.502 113.001L336.507 113.004Z" fill="#390075"/>
<path d="M355.72 129.887C354.966 130.621 354.106 131.236 353.168 131.713C352.656 131.972 352.12 132.178 351.566 132.329C350.88 132.497 350.167 132.523 349.471 132.405C349.053 132.309 348.656 132.139 348.298 131.903C348.122 131.8 347.96 131.676 347.816 131.533C347.68 131.406 347.553 131.271 347.435 131.129C346.962 130.542 346.677 129.826 346.619 129.075C346.57 128.438 346.646 127.798 346.842 127.189C347.024 126.636 347.277 126.109 347.594 125.62L349.147 127.297C348.502 127.534 347.827 127.68 347.141 127.728C346.46 127.766 345.645 127.754 344.879 127.228C344.516 126.97 344.248 126.601 344.114 126.178C344.01 125.825 343.975 125.454 344.012 125.088C344.087 124.463 344.267 123.854 344.543 123.289C344.565 123.242 344.602 123.204 344.649 123.181C344.695 123.159 344.748 123.153 344.798 123.165C344.849 123.177 344.893 123.205 344.925 123.246C344.956 123.287 344.973 123.338 344.971 123.39V123.397C344.932 123.946 344.964 124.498 345.067 125.039C345.11 125.255 345.198 125.46 345.324 125.641C345.408 125.765 345.536 125.852 345.681 125.888C345.936 125.951 346.363 125.9 346.809 125.755C347.265 125.597 347.703 125.39 348.115 125.139C348.313 125.016 348.544 124.958 348.777 124.972C349.009 124.985 349.231 125.07 349.414 125.215C349.596 125.359 349.73 125.556 349.797 125.779C349.863 126.002 349.86 126.24 349.786 126.461L349.663 126.815C349.549 127.138 349.473 127.473 349.434 127.813C349.391 128.096 349.408 128.385 349.482 128.661C349.531 128.832 349.636 128.981 349.78 129.085C349.842 129.12 349.953 129.227 349.965 129.186C349.976 129.201 350.03 129.173 350.064 129.186C350.28 129.176 350.495 129.139 350.702 129.076C351.034 128.975 351.356 128.846 351.666 128.691C352.339 128.381 353.087 127.915 353.735 127.53L353.859 127.459C354.184 127.265 354.569 127.197 354.941 127.268C355.313 127.34 355.646 127.546 355.876 127.847C356.105 128.148 356.216 128.524 356.186 128.902C356.157 129.279 355.989 129.633 355.715 129.895L355.72 129.887Z" fill="#390075"/>
<path d="M347.433 125.94C347.477 125.804 347.537 125.674 347.611 125.553C347.641 125.5 347.676 125.449 347.714 125.402L347.761 125.357L347.949 125.182L348.264 124.946C348.467 124.804 348.667 124.673 348.867 124.546L350.059 123.806C350.852 123.329 351.65 122.866 352.45 122.408C351.928 123.168 351.413 123.931 350.912 124.696L350.178 125.845C350.055 126.036 349.946 126.225 349.843 126.412C349.791 126.504 349.753 126.589 349.707 126.675L349.686 126.764V126.785C349.71 126.762 349.73 126.736 349.747 126.707C349.794 126.634 349.827 126.553 349.844 126.468C349.812 126.629 349.749 126.783 349.657 126.919C349.565 127.055 349.447 127.172 349.309 127.261C349.172 127.351 349.018 127.413 348.856 127.442C348.694 127.472 348.528 127.469 348.368 127.433C348.208 127.397 348.056 127.33 347.922 127.235C347.788 127.14 347.674 127.019 347.588 126.88C347.501 126.74 347.443 126.584 347.418 126.422C347.392 126.26 347.399 126.094 347.438 125.935L347.433 125.94Z" fill="#390075"/>
<path d="M345.984 118.309L349.936 116.099L347.727 120.052C347.561 120.348 347.284 120.567 346.957 120.659C346.631 120.752 346.28 120.71 345.984 120.545C345.688 120.379 345.469 120.102 345.377 119.775C345.284 119.449 345.325 119.098 345.491 118.802C345.607 118.596 345.778 118.425 345.984 118.309Z" fill="#390075"/>
<g opacity="0.2">
<path opacity="0.2" d="M314.07 173.417L318.63 179.923C333.214 168.318 339.52 141.463 348.471 135.01C356.359 129.331 359.094 120.395 353.964 114.267C353.756 119.813 351.582 127.454 342.676 133.177C342.681 133.177 326.534 162.133 314.07 173.417Z" fill="#1A1A5A"/>
<path opacity="0.2" d="M318.57 180.374L313.659 173.377L313.861 173.195C326.146 162.078 342.25 133.321 342.411 133.033L342.448 132.965L342.513 132.923C351.359 127.236 353.458 119.636 353.66 114.262L353.691 113.462L354.205 114.078C356.31 116.592 357.203 119.662 356.793 122.952C356.227 127.459 353.263 131.949 348.659 135.263C344.722 138.098 341.314 144.93 337.368 152.835C332.486 162.617 326.952 173.705 318.83 180.168L318.57 180.374ZM314.476 173.472L318.697 179.487C326.575 173.078 332.008 162.187 336.814 152.566C340.796 144.587 344.235 137.696 348.296 134.769C352.762 131.554 355.636 127.22 356.184 122.882C356.542 120.036 355.87 117.367 354.238 115.117C353.847 120.557 351.49 127.866 342.918 133.406C342.034 134.956 326.518 162.415 314.478 173.462L314.476 173.472Z" fill="#390075"/>
</g>
<path d="M298.784 212.216C298.853 216.17 298.969 228.371 298.142 241.965C297.189 257.594 295 275.065 290.057 283.993C290.057 283.993 269.956 294.94 245.071 289.966C220.196 294.94 200.096 283.993 200.096 283.993C195.152 275.065 192.962 257.594 192.01 241.965C191.005 225.385 191.394 210.877 191.394 210.877L160.763 180.045L165.693 171.541L182.085 143.278L193.498 149.754L213.916 161.339C216.013 162.529 218.217 163.52 220.5 164.297C222.962 165.139 225.506 165.723 228.089 166.039L245.057 168.112L262.032 166.039C264.616 165.723 267.159 165.14 269.622 164.297C271.905 163.52 274.109 162.53 276.206 161.339L297.336 149.347L308.037 143.282L327.155 176.226L329.367 180.046L298.736 210.878C298.736 210.878 298.768 211.349 298.784 212.216Z" fill="#64B9E3"/>
<path d="M258.203 291.558C253.795 291.563 249.397 291.135 245.073 290.28C220.402 295.191 200.152 284.374 199.95 284.264L199.871 284.221L199.828 284.142C195.686 276.661 192.953 262.477 191.706 241.991C190.761 226.42 191.054 212.507 191.09 211.008L160.386 180.102L181.989 142.867L214.084 161.076C216.165 162.255 218.352 163.237 220.617 164.008C223.06 164.84 225.583 165.419 228.145 165.733L245.073 167.803L262.01 165.735C264.572 165.42 267.095 164.842 269.538 164.009C271.802 163.238 273.989 162.256 276.071 161.077L308.166 142.868L308.319 143.132L329.764 180.107L299.059 211.012C299.065 211.209 299.076 211.621 299.086 212.222C299.148 215.717 299.285 228.198 298.444 241.996C297.197 262.488 294.463 276.672 290.321 284.147L290.278 284.226L290.199 284.269C290.04 284.354 276.551 291.557 258.203 291.558ZM200.324 283.764C201.72 284.493 221.314 294.4 245.013 289.664L245.073 289.651L245.134 289.664C268.841 294.403 288.434 284.495 289.83 283.764C293.897 276.343 296.597 262.274 297.834 241.946C298.673 228.172 298.537 215.712 298.475 212.222C298.46 211.359 298.445 210.89 298.445 210.888V210.755L329.004 179.996L326.909 176.378L307.944 143.697L276.38 161.606C274.265 162.804 272.042 163.801 269.742 164.585C267.259 165.432 264.694 166.02 262.09 166.34L245.082 168.418H245.045L228.077 166.345C225.473 166.024 222.908 165.436 220.424 164.59C218.125 163.805 215.903 162.808 213.789 161.611L182.223 143.702L161.165 180.001L191.722 210.759V210.891C191.722 211.036 191.34 225.576 192.338 241.95C193.557 262.274 196.25 276.343 200.324 283.764Z" fill="#390075"/>
<path d="M231.745 293.595C213.134 293.595 199.674 286.407 198.984 286.031C198.596 285.821 198.277 285.503 198.064 285.117C193.775 277.372 190.959 262.901 189.692 242.103C188.842 228.081 188.99 215.388 189.056 211.81L159.121 181.682C158.761 181.32 158.53 180.849 158.465 180.342C158.4 179.836 158.503 179.322 158.76 178.88L180.091 142.115C180.398 141.586 180.901 141.199 181.492 141.039C182.082 140.879 182.712 140.959 183.244 141.261L215.073 159.318C217.042 160.434 219.112 161.364 221.255 162.094C223.569 162.884 225.958 163.432 228.385 163.73L245.07 165.769L261.762 163.735C264.186 163.438 266.573 162.89 268.884 162.101C271.031 161.37 273.105 160.439 275.078 159.321L306.904 141.266C307.436 140.964 308.066 140.884 308.656 141.044C309.247 141.204 309.75 141.591 310.057 142.12L331.388 178.88C331.644 179.322 331.747 179.836 331.682 180.342C331.616 180.849 331.386 181.319 331.027 181.682L301.09 211.814C301.157 215.388 301.305 228.083 300.454 242.105C299.189 262.9 296.372 277.371 292.083 285.119C291.87 285.506 291.551 285.823 291.163 286.034C290.472 286.404 277.01 293.596 258.397 293.598C253.924 293.602 249.461 293.179 245.07 292.334C240.678 293.178 236.216 293.6 231.745 293.595ZM201.795 282.256C205.236 283.939 223.22 291.972 244.612 287.693C244.912 287.632 245.222 287.632 245.522 287.693C266.918 291.968 284.899 283.941 288.348 282.256C292.067 275.026 294.647 261.081 295.819 241.83C296.805 225.54 296.435 211.09 296.427 210.948C296.418 210.633 296.473 210.321 296.589 210.028C296.705 209.736 296.879 209.471 297.101 209.248L326.477 179.678L307.192 146.438L277.366 163.362C275.14 164.623 272.801 165.674 270.379 166.499C267.766 167.391 265.068 168.01 262.328 168.347L245.352 170.422C245.165 170.444 244.976 170.444 244.788 170.422L227.822 168.347C225.079 168.011 222.378 167.392 219.763 166.499C217.345 165.676 215.011 164.628 212.789 163.369L182.953 146.442L163.667 179.672L193.044 209.242C193.266 209.465 193.439 209.73 193.555 210.022C193.671 210.314 193.726 210.626 193.717 210.94C193.717 211.083 193.338 225.544 194.326 241.823C195.498 261.079 198.078 275.03 201.798 282.254L201.795 282.256Z" fill="#390075"/>
<path d="M245.073 185.347C259.334 185.347 270.895 178.147 270.895 169.265C270.895 160.384 259.334 153.184 245.073 153.184C230.812 153.184 219.251 160.384 219.251 169.265C219.251 178.147 230.812 185.347 245.073 185.347Z" fill="#FFC38F"/>
<path d="M245.073 185.655C230.664 185.655 218.944 178.303 218.944 169.263C218.944 160.223 230.665 152.871 245.073 152.871C259.481 152.871 271.202 160.224 271.202 169.263C271.202 178.302 259.481 185.655 245.073 185.655ZM245.073 153.487C231.004 153.487 219.56 160.563 219.56 169.263C219.56 177.963 231.005 185.039 245.073 185.039C259.141 185.039 270.586 177.963 270.586 169.263C270.586 160.563 259.141 153.492 245.073 153.492V153.487Z" fill="#390075"/>
<path d="M245.073 187.669C229.297 187.669 216.929 179.585 216.929 169.266C216.929 158.946 229.292 150.863 245.073 150.863C260.854 150.863 273.213 158.946 273.213 169.266C273.213 179.585 260.854 187.669 245.073 187.669ZM245.073 155.501C232.334 155.501 221.572 161.803 221.572 169.262C221.572 176.721 232.334 183.023 245.073 183.023C257.812 183.023 268.574 176.721 268.574 169.262C268.574 161.803 257.807 155.505 245.073 155.505V155.501Z" fill="#390075"/>
<g opacity="0.2">
<path opacity="0.2" d="M298.784 212.216L298.142 212.867C300.069 222.817 296.95 242.344 296.95 242.344C243.758 261.486 192.013 241.965 192.013 241.965V238.731C296.234 264.099 294.906 187.11 294.906 187.11C306.908 192.353 322.575 182.653 327.178 176.223L329.39 180.044L298.758 210.876C298.758 210.876 298.768 211.349 298.784 212.216Z" fill="#390075"/>
</g>
<g opacity="0.2">
<path opacity="0.2" d="M195.332 187.048C195.332 187.048 191.472 200.433 191.401 208.394L160.77 180.046L165.7 171.542C170.032 176.688 181.683 188.642 195.332 187.048Z" fill="#390075"/>
</g>
<path d="M298.142 241.964C297.925 245.562 297.638 249.253 297.267 252.92C296.035 265.183 293.863 277.121 290.057 283.993C290.057 283.993 269.956 294.94 245.071 289.965C220.196 294.94 200.096 283.993 200.096 283.993L199.479 282.793C198.596 280.957 197.854 279.056 197.261 277.107C194.26 267.598 192.751 254.213 192.008 241.964L192.015 241.957C192.015 241.957 239.513 261.347 298.134 241.957L298.142 241.964Z" fill="#6748C2"/>
<path d="M258.397 293.595C253.924 293.599 249.462 293.176 245.07 292.332C219.876 297.192 199.831 286.491 198.984 286.031C198.597 285.821 198.277 285.503 198.065 285.117C193.775 277.372 190.959 262.901 189.692 242.103C189.669 241.709 189.746 241.317 189.915 240.962C190.084 240.606 190.341 240.299 190.661 240.07C190.981 239.84 191.354 239.696 191.745 239.649C192.135 239.603 192.532 239.656 192.897 239.804C193.013 239.852 204.83 244.598 223.554 246.943C240.798 249.101 267.608 249.606 297.404 239.75C297.765 239.632 298.15 239.603 298.524 239.668C298.899 239.732 299.252 239.887 299.552 240.119C299.853 240.351 300.093 240.653 300.251 240.999C300.408 241.344 300.479 241.723 300.457 242.103C299.191 262.896 296.375 277.367 292.086 285.117C291.873 285.504 291.553 285.821 291.165 286.031C290.469 286.407 277.01 293.595 258.397 293.595ZM201.798 282.256C205.239 283.939 223.219 291.971 244.615 287.693C244.915 287.632 245.224 287.632 245.524 287.693C266.921 291.968 284.902 283.941 288.35 282.256C291.848 275.456 294.338 262.716 295.597 245.206C266.218 254.275 239.926 253.695 222.802 251.534C209.311 249.83 199.441 246.973 194.561 245.344C195.823 262.783 198.309 275.473 201.798 282.254V282.256Z" fill="#390075"/>
<path d="M296.429 210.951C296.1 208.796 295.923 206.548 295.753 204.341C295.583 202.135 295.491 199.897 295.31 197.68C295.129 195.462 294.959 193.235 294.646 191.033C294.368 188.805 293.959 186.596 293.422 184.416V184.407C293.402 184.331 293.41 184.251 293.443 184.18C293.476 184.109 293.533 184.052 293.604 184.019C293.675 183.985 293.755 183.977 293.831 183.997C293.907 184.016 293.974 184.061 294.02 184.125C295.41 186.019 296.433 188.159 297.32 190.327C298.208 192.495 298.861 194.745 299.441 197.002C300.028 199.25 300.469 201.533 300.764 203.837C301.041 206.146 301.221 208.425 301.071 210.805C301.034 211.378 300.787 211.918 300.376 212.32C299.966 212.723 299.421 212.959 298.847 212.985C298.273 213.01 297.71 212.823 297.265 212.458C296.821 212.094 296.527 211.579 296.439 211.011L296.429 210.951Z" fill="#390075"/>
<path d="M189.078 210.798C188.933 208.423 189.118 206.149 189.4 203.846C189.7 201.546 190.146 199.269 190.736 197.026C191.32 194.775 191.986 192.541 192.867 190.371C193.748 188.2 194.781 186.076 196.169 184.186C196.215 184.124 196.282 184.079 196.358 184.06C196.434 184.041 196.513 184.049 196.584 184.082C196.655 184.115 196.711 184.172 196.745 184.242C196.778 184.313 196.787 184.393 196.768 184.468V184.476C196.231 186.652 195.819 188.858 195.535 191.082C195.22 193.28 195.042 195.505 194.861 197.715C194.68 199.925 194.597 202.152 194.405 204.363C194.213 206.574 194.048 208.809 193.714 210.96L193.705 211.018C193.615 211.585 193.32 212.099 192.875 212.461C192.429 212.824 191.866 213.01 191.293 212.983C190.719 212.956 190.176 212.718 189.767 212.316C189.357 211.913 189.111 211.374 189.075 210.801L189.078 210.798Z" fill="#390075"/>
<g opacity="0.2">
<path opacity="0.2" d="M303.109 161.926C303.109 177.84 277.376 190.738 245.623 190.738C213.87 190.738 188.137 177.84 188.137 161.926C188.137 157.578 190.063 153.454 193.514 149.755L213.932 161.341C216.029 162.531 218.233 163.521 220.516 164.299C222.978 165.141 225.522 165.724 228.105 166.04L245.073 168.113L262.048 166.04C264.632 165.725 267.175 165.141 269.638 164.299C271.921 163.522 274.125 162.531 276.222 161.341L297.352 149.348C301.043 153.144 303.109 157.415 303.109 161.926Z" fill="#390075"/>
</g>
<path d="M182.032 54.9537C164.013 100.896 128.979 93.7861 120.825 85.7773C119.602 84.5867 118.984 83.3641 119.114 82.3041C119.977 75.147 129.344 79.743 127.818 73.3525C113.644 13.9164 144.979 3.46975 156.384 2.38762C160.886 1.96241 169.572 3.30829 176.57 8.60064C185.777 15.5717 192.067 29.3744 182.032 54.9537Z" fill="#6748C2"/>
<g opacity="0.2">
<path opacity="0.2" d="M182.032 54.9537C164.013 100.896 128.979 93.786 120.825 85.7772C121.373 85.7316 121.934 85.6688 122.48 85.5998C129.026 84.7481 135.579 82.0797 139.826 77.0265C144.106 71.9202 145.567 65.0343 146.063 58.3886C146.558 51.743 146.233 45.0111 147.595 38.4961C150.58 24.1141 162.427 12.2919 176.57 8.60059C185.776 15.5716 192.067 29.3744 182.032 54.9537Z" fill="#390075"/>
</g>
<g opacity="0.6">
<path opacity="0.6" d="M122.593 86.5353C123.466 79.3757 134.672 82.6468 133.15 76.255C118.976 16.8189 148.458 7.69968 159.862 6.61878C164.937 6.13564 175.321 7.91167 182.616 15.0405C175.612 4.37317 162.339 1.82066 156.38 2.38761C144.976 3.47221 113.641 13.9177 127.817 73.3537C129.34 79.7455 119.984 75.1482 119.112 82.3066C118.929 83.8041 120.238 85.6072 122.617 87.2366C122.576 87.0051 122.568 86.769 122.593 86.5353Z" fill="#FDFDFE"/>
</g>
<path d="M139.079 93.987C136.015 93.9918 132.961 93.6193 129.987 92.8777C121.836 90.8182 116.293 86.2543 116.808 82.0317C117.442 76.8281 121.463 75.8594 123.867 75.2801C124.468 75.1347 125.358 74.9202 125.659 74.7255C125.669 74.4459 125.635 74.1664 125.559 73.8972C119.366 47.9285 120.975 28.1197 130.343 15.0207C139.235 2.59217 152.352 0.443919 156.161 0.0815642C162.715 -0.534686 175.937 2.22611 183.533 12.3043C191.267 22.5648 191.489 37.2008 184.191 55.8041C177.826 72.0312 168.844 83.3111 157.494 89.3281C150.703 92.9221 144.294 93.987 139.079 93.987ZM130.075 72.8151C131.368 78.2381 127.035 79.2857 124.954 79.7873C122.465 80.3876 121.642 80.7376 121.416 82.5876C121.365 83.4257 124.562 86.9383 132 88.5849C136.603 89.6042 145.829 90.4793 155.91 84.9059C165.992 79.3326 174.044 68.9722 179.875 54.1033C186.544 37.1034 186.531 23.9785 179.832 15.0934C173.374 6.52507 162.164 4.17223 156.607 4.69851C153.291 5.0128 141.875 6.88373 134.126 17.7174C125.574 29.6727 124.212 48.2119 130.081 72.8102L130.075 72.8151Z" fill="#390075"/>
<path d="M180.149 41.2793C186.67 33.3654 188.362 23.9879 183.928 20.3339C179.494 16.6799 170.613 20.1333 164.091 28.0471C157.57 35.961 155.878 45.3386 160.312 48.9925C164.746 52.6465 173.627 49.1931 180.149 41.2793Z" fill="#E34D4D"/>
<g opacity="0.6">
<path opacity="0.6" d="M185.498 22.7053C180.732 21.1264 173.296 24.6391 167.64 31.5029C161.984 38.3667 159.951 46.3496 162.434 50.7213C161.712 50.4881 161.04 50.1205 160.453 49.638C156.016 45.9861 157.714 36.6092 164.236 28.694C170.758 20.7789 179.634 17.3279 184.067 20.9798C184.647 21.4608 185.132 22.046 185.498 22.7053Z" fill="#FDFDFE"/>
</g>
<path d="M165.467 52.7771C163.186 52.7771 161.172 52.1091 159.562 50.7817C154.055 46.2448 155.578 35.6096 163.026 26.5692C170.474 17.5288 180.626 13.9977 186.131 18.5407C188.952 20.8652 190.027 24.7993 189.157 29.6197C188.374 33.9605 186.076 38.6243 182.667 42.7532C179.264 46.8821 175.126 50.0372 171.015 51.6358C169.055 52.3975 167.185 52.7771 165.467 52.7771ZM180.215 21.214C176.567 21.214 171.182 23.9723 166.608 29.521C160.52 36.916 159.565 44.7683 162.514 47.2C163.96 48.3906 166.443 48.4325 169.334 47.3085C172.715 45.9934 176.179 43.3275 179.084 39.8013C181.99 36.2752 183.945 32.3669 184.589 28.7951C185.139 25.7471 184.625 23.3154 183.178 22.1236C182.444 21.5184 181.424 21.214 180.215 21.214Z" fill="#390075"/>
<path d="M310.104 124.61C310.104 124.61 303.903 163.349 261.282 171.87C218.661 180.39 202.388 154.051 202.388 154.051C202.388 154.051 179.308 156.147 171.494 129.602C171.494 129.602 171.487 129.572 171.471 129.51C171.317 128.894 170.496 125.486 171.145 121.928C171.672 119.026 173.165 116.024 176.786 114.383C186.109 110.144 196.64 122.98 197.204 123.677L197.227 123.707C197.374 123.946 197.522 124.2 197.676 124.447C197.676 124.447 196.129 107.425 247.193 92.7247C265.731 87.3868 296.431 73.6383 293.677 46.3643C297.177 49.6103 300.236 53.3015 302.776 57.3434C307.83 65.3546 310.614 74.2027 311.999 82.7834L311.976 82.8056H312.006C312.679 82.9067 324.1 84.764 325.6 99.0462C327.148 113.762 313.98 122.281 310.104 124.61Z" fill="#FFC38F"/>
<path d="M245.09 173.857C231.686 173.857 222.007 170.127 215.698 166.421C207.144 161.396 202.92 155.407 202.228 154.368C199.989 154.481 178.62 154.9 171.198 129.688L171.172 129.583C170.934 128.647 170.212 125.326 170.842 121.87C171.515 118.159 173.472 115.545 176.659 114.105C185.966 109.869 196.188 121.941 197.423 123.459C197.651 121.824 198.678 118.338 203.066 113.878C208.563 108.294 220.666 100.037 247.108 92.4254C261.983 88.1413 296.267 75.0805 293.371 46.3928L293.288 45.5806L293.886 46.1352C297.405 49.4006 300.481 53.1124 303.036 57.1759C307.588 64.3787 310.694 72.91 312.27 82.5346C314.259 82.8883 324.472 85.3694 325.907 99.0107C327.314 112.404 316.844 120.896 310.377 124.804C310.15 126.052 308.314 135.238 301.931 145.213C295.624 155.073 283.462 167.752 261.337 172.173C255.415 173.356 250.002 173.857 245.09 173.857ZM202.549 153.725L202.649 153.888C202.691 153.953 206.805 160.491 216.042 165.908C224.565 170.907 239.322 175.948 261.222 171.565C283.123 167.183 295.159 154.649 301.402 144.9C308.175 134.326 309.783 124.658 309.798 124.564L309.821 124.422L309.944 124.348C316.27 120.549 326.674 112.212 325.294 99.0735C323.843 85.2695 313.172 83.2877 311.961 83.1065H311.21L311.669 82.6677C310.107 73.1109 307.028 64.6461 302.515 57.5038C300.132 53.715 297.291 50.2341 294.056 47.1397C296.283 75.7238 262.162 88.7304 247.278 93.0158C197.04 107.479 197.968 124.246 197.978 124.414L198.101 125.703L197.416 124.605C197.316 124.446 197.22 124.286 197.125 124.129L196.95 123.848C196.522 123.323 186.006 110.537 176.916 114.665C173.923 116.02 172.084 118.485 171.45 121.983C170.841 125.311 171.542 128.529 171.77 129.434L171.794 129.527C179.446 155.52 202.134 153.767 202.36 153.745L202.549 153.725Z" fill="#390075"/>
<g opacity="0.2">
<path opacity="0.2" d="M302.777 57.336C301.221 66.703 295.124 81.7 273.082 91.6574C242.023 105.694 212.606 107.267 202.794 128.249C201.365 131.304 197.482 132.224 194.875 130.084C188.504 124.854 178.074 117.956 171.146 121.925C171.672 119.024 173.166 116.021 176.787 114.381C186.109 110.141 196.64 122.978 197.204 123.674L197.228 123.705C197.374 123.944 197.522 124.198 197.676 124.444C197.676 124.444 196.13 107.422 247.193 92.7223C265.731 87.3843 296.432 73.6358 293.677 46.3618C297.177 49.6063 300.236 53.2958 302.777 57.336Z" fill="#390075"/>
</g>
<g opacity="0.2">
<path opacity="0.2" d="M325.319 99.039C324.916 95.2034 323.794 92.2713 322.361 90.0208C322.484 90.6777 322.59 91.3568 322.667 92.0753C324.213 106.8 315.456 110.907 311.58 113.236C311.58 113.236 300.972 156.386 258.349 164.905C215.725 173.424 199.454 147.087 199.454 147.087C199.454 147.087 180.569 148.799 171.181 129.474L171.19 129.508L171.213 129.6C179.027 156.146 202.107 154.049 202.107 154.049C202.107 154.049 218.386 180.394 261.001 171.867C303.616 163.341 309.819 124.61 309.819 124.61C313.698 122.281 326.867 113.762 325.319 99.039Z" fill="#390075"/>
</g>
<path d="M321.716 64.571C321.709 64.5931 321.709 64.6092 321.701 64.6326C319.689 73.5374 314.9 80.8572 311.124 83.7893C309.167 71.4791 304.385 58.6056 294.172 48.4622C293.723 48.0135 293.259 47.5649 292.779 47.1237C295.534 74.3964 264.832 88.145 246.296 93.4829C195.231 108.183 196.779 125.204 196.779 125.204C196.623 124.957 196.477 124.711 196.33 124.464C196.321 124.455 196.314 124.444 196.307 124.433C196.167 124.263 195.417 123.35 194.234 122.136C190.62 118.439 182.914 111.946 175.889 115.142C167.571 118.924 170.364 129.532 170.488 130.004C170.271 129.733 166.766 125.378 163.2 117.779C156.243 102.992 153.869 86.461 156.384 70.3132V70.3119C157.529 62.806 159.773 54.7911 163.525 46.3497C185.217 -2.45735 269.685 -12.5367 287.503 25.4292C287.503 25.4292 287.812 25.3824 288.386 25.3355C291.103 25.1216 293.836 25.215 296.532 25.6141C303.442 26.6124 312.741 29.971 318.498 40.1576C323.109 48.3155 323.411 57.012 321.716 64.571Z" fill="#6748C2"/>
<g opacity="0.2">
<path opacity="0.2" d="M195.332 121.189L194.234 122.142C190.62 118.445 182.914 111.952 175.889 115.148C167.571 118.93 170.364 129.538 170.488 130.01C170.271 129.739 166.766 125.384 163.2 117.785C156.243 102.998 153.869 86.467 156.384 70.3192V70.3118C174.968 75.4723 187.145 64.6423 187.145 64.6423C178.311 90.5125 195.332 121.189 195.332 121.189Z" fill="#390075"/>
</g>
<g opacity="0.6">
<path opacity="0.6" d="M321.716 64.5709C321.709 64.5931 321.709 64.6092 321.702 64.6326C320.502 57.5531 317.902 48.6791 312.354 40.5236C300.688 23.3709 282.466 29.3362 282.466 29.3362C282.466 29.3362 270.838 2.97552 231.054 8.69309C191.27 14.4107 175.591 39.9468 170.899 49.1733C162.433 65.8121 157.73 89.2136 163.201 117.785C156.496 103.519 149.529 77.8302 163.521 46.3497C185.213 -2.45734 269.681 -12.5367 287.5 25.4292C287.5 25.4292 287.809 25.3824 288.382 25.3355C291.1 25.1216 293.833 25.215 296.529 25.6141C303.438 26.6124 312.738 29.971 318.495 40.1576C323.109 48.3155 323.411 57.012 321.716 64.5709Z" fill="#FDFDFE"/>
</g>
<path d="M245.168 176.709C231.321 176.709 221.296 172.839 214.755 168.996C207.216 164.566 202.93 159.478 201.281 157.248C197.052 157.21 192.871 156.352 188.969 154.721C182.376 151.966 173.658 145.647 169.372 131.18C167.904 129.283 161.692 120.75 157.627 107.229C153.449 93.3338 150.882 71.3398 162.379 45.4807C168.505 31.6977 179.832 20.058 195.132 11.8187C208.898 4.40767 225.082 0.233199 240.705 0.0754395C241.02 0.0754395 241.338 0.0754395 241.649 0.0754395C264.374 0.0754395 282.199 8.59941 289.856 23.0628C295.32 22.7608 312.506 23.1762 321.499 39.0853C330.695 55.3543 324.164 74.0082 316.88 82.5679C321.493 84.726 326.948 89.783 327.986 99.643C329.458 113.623 319.168 122.55 312.264 126.896C311.648 129.791 309.507 138.075 303.708 147.14C297.191 157.326 284.633 170.434 261.817 174.994C255.75 176.197 250.205 176.709 245.168 176.709ZM202.461 152.568C202.857 152.567 203.247 152.668 203.594 152.861C203.941 153.054 204.232 153.331 204.441 153.668C204.477 153.725 208.45 159.973 217.332 165.131C229.091 171.951 244.158 173.786 260.905 170.438C277.866 167.046 290.916 158.42 299.692 144.802C306.285 134.572 307.87 125.18 307.886 125.082C307.941 124.748 308.067 124.43 308.256 124.151C308.446 123.871 308.694 123.635 308.983 123.461C314.899 119.911 324.636 112.161 323.367 100.126C322.024 87.3697 312.294 85.9265 312.195 85.9141C311.742 85.8534 311.317 85.6601 310.973 85.3585C310.629 85.0569 310.382 84.6604 310.262 84.2188C310.143 83.7773 310.156 83.3103 310.301 82.8764C310.447 82.4426 310.716 82.0613 311.077 81.7803C316.668 77.4333 327.1 58.422 317.456 41.3679C308.31 25.1901 289.607 27.6871 288.816 27.8018C288.323 27.8731 287.82 27.7842 287.382 27.5484C286.943 27.3125 286.592 26.9421 286.379 26.4916C279.869 12.6309 262.787 4.48532 240.751 4.71334C214.055 4.98818 179.469 18.452 166.618 47.3578C145.745 94.3161 172.987 128.28 173.264 128.617C173.465 128.862 173.614 129.147 173.702 129.452C180.769 154.102 201.39 152.644 202.264 152.573C202.33 152.57 202.395 152.568 202.461 152.568Z" fill="#390075"/>
<path d="M310.18 127.767C309.83 127.767 309.485 127.688 309.17 127.536C308.856 127.384 308.579 127.163 308.362 126.889C308.144 126.615 307.991 126.296 307.914 125.955C307.837 125.614 307.838 125.26 307.917 124.919C308.029 124.437 318.822 76.4374 292.025 48.7505C291.813 48.5315 291.646 48.2728 291.535 47.9893C291.423 47.7058 291.367 47.403 291.373 47.0982C291.378 46.7935 291.443 46.4927 291.564 46.213C291.685 45.9334 291.86 45.6803 292.079 45.4684C292.298 45.2564 292.557 45.0897 292.841 44.9777C293.124 44.8658 293.427 44.8107 293.732 44.8157C294.036 44.8208 294.337 44.8858 294.617 45.0071C294.897 45.1284 295.15 45.3035 295.362 45.5226C307.223 57.7798 313.932 75.603 314.764 97.0633C315.387 113.15 312.559 125.464 312.438 125.98C312.318 126.489 312.029 126.942 311.619 127.266C311.21 127.59 310.703 127.767 310.18 127.767Z" fill="#390075"/>
<path d="M247.271 93.5532C196.206 108.253 197.754 125.281 197.754 125.281C196.3 122.945 194.976 120.626 193.784 118.326C170.675 73.9774 193.088 35.0908 219.42 20.8357C233.153 13.3926 260.852 9.34508 278.415 20.8899C284.605 24.9436 289.533 30.9397 292.148 39.4045C302.203 71.8895 267.495 87.7271 247.271 93.5532Z" fill="#6748C2"/>
<g opacity="0.6">
<path opacity="0.6" d="M291 36.2148C276.456 13.7464 239.998 17.3896 223.03 26.1798C223.045 26.1928 223.059 26.2082 223.069 26.2254C224.222 27.9361 222.002 31.4327 218.117 34.0321C214.55 36.4231 210.813 37.2206 209.344 35.9819C190.186 53.863 178.241 85.6147 195.332 121.19C169.707 75.6573 192.516 35.394 219.417 20.8258C237.348 11.1076 279.116 7.16974 291 36.2148Z" fill="#FDFDFE"/>
</g>
<path d="M197.754 127.596C197.359 127.596 196.971 127.496 196.626 127.304C196.281 127.113 195.991 126.837 195.782 126.503C179.306 100.053 180.376 77.3593 184.186 62.9785C189.157 44.1829 201.916 27.6674 218.312 18.7847C231.428 11.6806 254.917 8.02748 272.636 15.2475C283.466 19.6623 290.979 27.7758 294.363 38.7081C297.468 48.737 296.751 58.0584 292.234 66.4283C283 83.5267 260.502 92.1604 247.913 95.784C200.03 109.568 200.051 124.914 200.065 125.066C200.094 125.387 200.056 125.71 199.953 126.016C199.85 126.321 199.685 126.602 199.467 126.84C199.25 127.078 198.985 127.269 198.69 127.399C198.395 127.529 198.076 127.596 197.754 127.596ZM250.751 16.0018C239.468 16.0018 228.128 18.7478 220.524 22.8668C205.233 31.1492 193.327 46.5887 188.676 64.1654C183.946 82.0453 186.846 101.079 197.057 119.505C197.988 117.716 199.444 115.61 201.716 113.301C209.957 104.92 225.07 97.5329 246.636 91.3248L247.278 93.5556L246.636 91.3248C256.208 88.5701 279.42 80.4134 288.156 64.2246C292.058 56.9984 292.657 48.8762 289.936 40.0836C286.926 30.3789 280.519 23.4769 270.883 19.5464C264.812 17.0679 257.791 16.0018 250.75 16.0018H250.751Z" fill="#390075"/>
<g opacity="0.2">
<path opacity="0.2" d="M247.271 93.5532C196.206 108.253 197.754 125.282 197.754 125.282C196.299 122.945 194.976 120.626 193.784 118.326C193.441 116.454 193.229 114.559 193.15 112.657C192.732 102.615 196.175 92.3318 203.077 85.0206C212.16 75.4071 225.723 71.86 238.225 67.5426C243.34 65.7719 248.385 63.8093 253.359 61.6549C259.99 58.777 266.621 55.4493 271.611 50.2124C277.39 44.1386 280.254 35.5888 279.921 27.2645C279.836 25.1902 279.093 23.016 278.412 20.8813C284.602 24.935 289.531 30.9311 292.145 39.396C302.203 71.8896 267.495 87.7272 247.271 93.5532Z" fill="#390075"/>
</g>
<path d="M171.444 132.236C170.94 132.236 170.451 132.072 170.049 131.769C169.647 131.465 169.355 131.039 169.217 130.555C167.956 126.144 167.73 116.819 175.903 113.104C187.005 108.051 198.632 122.48 199.122 123.097C199.492 123.581 199.657 124.19 199.582 124.794C199.507 125.398 199.198 125.949 198.721 126.327C198.245 126.706 197.638 126.882 197.033 126.818C196.428 126.753 195.872 126.454 195.485 125.984C192.773 122.576 184.305 114.385 177.825 117.331C171.263 120.313 173.58 128.916 173.682 129.286C173.847 129.878 173.771 130.511 173.471 131.047C173.171 131.583 172.671 131.978 172.08 132.146C171.873 132.205 171.659 132.236 171.444 132.236Z" fill="#390075"/>
<path d="M277.763 138.608C276.347 141.387 273.886 143.646 269.708 144.303C264.988 145.042 261.786 143.722 259.612 141.571C255.007 137.038 255.007 128.829 255.007 128.829C255.007 128.829 267.386 135.018 278.993 124.187C278.993 124.187 280.818 132.612 277.763 138.608Z" fill="#390075"/>
<path d="M277.762 138.608C276.346 141.387 273.886 143.646 269.708 144.303C264.988 145.042 261.786 143.722 259.611 141.571C261.661 138.632 265.684 136.635 270.311 136.635C273.12 136.635 275.704 137.371 277.762 138.608Z" fill="#F75286"/>
<path d="M267.148 146.834C263.829 146.834 260.986 145.835 258.654 143.845C252.754 138.805 252.686 129.234 252.686 128.829C252.686 128.434 252.787 128.045 252.979 127.7C253.17 127.355 253.447 127.064 253.783 126.856C254.118 126.648 254.502 126.528 254.896 126.51C255.291 126.491 255.683 126.573 256.037 126.748C256.488 126.97 267.18 132.036 277.409 122.49C277.709 122.21 278.077 122.014 278.477 121.923C278.877 121.832 279.294 121.848 279.686 121.971C280.077 122.093 280.429 122.317 280.706 122.62C280.983 122.923 281.174 123.294 281.26 123.695C281.355 124.132 283.527 134.472 278.911 141.213C276.88 144.179 273.906 145.99 270.069 146.595C269.103 146.751 268.127 146.831 267.148 146.834ZM257.69 132.203C258.157 134.783 259.228 138.242 261.681 140.327C263.611 141.97 266.118 142.519 269.346 142.01C271.902 141.607 273.775 140.491 275.075 138.6C277.06 135.708 277.325 131.622 277.182 128.617C269.516 133.909 262.01 133.285 257.69 132.203Z" fill="#390075"/>
<g opacity="0.2">
<path opacity="0.2" d="M321.716 64.5708C319.712 73.5064 314.908 80.8497 311.124 83.7892C309.167 71.479 304.385 58.6055 294.172 48.462C293.856 44.2604 293.074 40.4853 291.584 37.7146C288.749 32.4383 288.133 28.323 288.389 25.3354C291.107 25.1214 293.84 25.2149 296.536 25.614C298.85 33.8076 305.94 54.0428 321.716 64.5708Z" fill="#390075"/>
</g>
<path d="M245.069 292.285C244.454 292.285 243.864 292.04 243.428 291.604C242.993 291.169 242.749 290.579 242.749 289.963V272.555C242.749 271.94 242.993 271.349 243.428 270.914C243.864 270.479 244.454 270.234 245.069 270.234C245.685 270.234 246.275 270.479 246.711 270.914C247.146 271.349 247.39 271.94 247.39 272.555V289.965C247.39 290.581 247.145 291.17 246.71 291.605C246.275 292.04 245.685 292.285 245.069 292.285Z" fill="#390075"/>
<path d="M228.711 267.133C231.415 267.919 234.161 268.553 236.936 269.031C239.641 269.504 242.38 269.751 245.126 269.771C247.871 269.766 250.609 269.491 253.3 268.949C256.019 268.402 258.7 267.554 261.449 266.589H261.458C261.619 266.532 261.794 266.533 261.954 266.592C262.114 266.651 262.249 266.765 262.334 266.912C262.419 267.06 262.449 267.233 262.42 267.401C262.391 267.569 262.304 267.722 262.174 267.832C259.877 269.804 257.165 271.291 254.279 272.379C251.355 273.429 248.279 273.997 245.173 274.061C242.071 274.139 238.977 273.7 236.018 272.763C234.551 272.299 233.13 271.703 231.771 270.982C230.415 270.243 229.133 269.45 227.96 268.363C227.84 268.252 227.76 268.103 227.735 267.94C227.71 267.778 227.739 267.612 227.82 267.469C227.9 267.326 228.026 267.214 228.178 267.151C228.33 267.088 228.498 267.078 228.656 267.122L228.711 267.133Z" fill="#390075"/>
<g opacity="0.2">
<path opacity="0.2" d="M297.267 252.92C296.034 265.184 293.863 277.121 290.057 283.993C290.057 283.993 269.956 294.94 245.071 289.965C220.196 294.94 200.095 283.993 200.095 283.993L199.479 282.793L196.151 276.371C196.521 276.627 196.891 276.875 197.261 277.11C215.907 288.746 245.068 275.045 245.068 275.045V278.358C273.742 285.818 290.706 267.466 297.267 252.92Z" fill="#1A1A5A"/>
<path opacity="0.2" d="M258.203 291.558C253.795 291.563 249.397 291.135 245.073 290.28C220.402 295.191 200.153 284.374 199.95 284.264L199.867 284.218L195.301 275.4L196.329 276.122C196.687 276.369 197.068 276.615 197.429 276.848C215.721 288.264 244.653 274.901 244.942 274.765L245.381 274.558V278.121C271.938 284.92 289.444 269.516 296.986 252.797L297.761 251.072L297.572 252.947C296.102 267.622 293.663 278.115 290.325 284.138L290.282 284.217L290.203 284.26C290.039 284.354 276.551 291.558 258.203 291.558ZM245.073 289.651L245.133 289.664C268.84 294.403 288.433 284.495 289.83 283.764C292.968 278.05 295.301 268.276 296.773 254.691C288.718 271.031 271.178 285.471 244.995 278.656L244.765 278.597V275.516C242.231 276.625 229.169 282.062 215.62 282.063C209.2 282.063 202.679 280.843 197.103 277.367L196.972 277.286L200.327 283.764C201.758 284.511 221.337 294.395 245.013 289.662L245.073 289.651Z" fill="#390075"/>
</g>
<g opacity="0.2">
<path opacity="0.2" d="M297.956 328.697C297.956 328.845 297.956 328.984 297.949 329.131C297.809 337.363 293.635 339.057 287.859 339.057H255.905C255.905 339.057 245.073 340.589 245.073 331.506C259.617 332.558 269.924 331.289 277.197 329.131C285.747 326.608 290.11 322.856 292.234 320.217C295.457 321.61 297.956 323.707 297.956 328.697Z" fill="#1A1A5A"/>
<path opacity="0.2" d="M254.15 339.469C252.259 339.469 249.239 339.137 247.125 337.298C245.561 335.943 244.769 333.992 244.769 331.506V331.174L245.099 331.198C257.931 332.129 268.703 331.332 277.113 328.835C285.555 326.344 289.868 322.672 292.002 320.024L292.15 319.841L292.364 319.935C295.284 321.198 298.268 323.227 298.268 328.697C298.268 328.85 298.268 328.994 298.259 329.147C298.108 338.126 293.173 339.365 287.863 339.365H255.904C255.323 339.439 254.737 339.473 254.15 339.469ZM245.386 331.836C245.453 333.977 246.171 335.657 247.523 336.831C250.552 339.463 255.811 338.759 255.861 338.752H287.859C293.632 338.752 297.505 337.115 297.64 329.127C297.648 328.975 297.648 328.841 297.648 328.699C297.648 323.725 295.119 321.839 292.328 320.596C290.091 323.294 285.685 326.95 277.284 329.428C268.884 331.905 258.145 332.733 245.386 331.836Z" fill="#390075"/>
</g>
<path d="M247.761 120.896C246.961 120.403 246.111 119.899 245.285 119.465C244.468 119.044 243.63 118.665 242.773 118.33C241.099 117.69 239.431 117.344 237.811 117.344C236.162 117.359 234.538 117.746 233.059 118.476C231.519 119.208 230.028 120.242 228.61 121.458L228.391 121.647C228.158 121.846 227.872 121.971 227.568 122.006C227.264 122.042 226.956 121.986 226.684 121.845C226.355 121.672 226.039 121.472 225.741 121.249C225.457 121.047 225.185 120.828 224.926 120.594C224.397 120.124 223.926 119.591 223.526 119.007C223.113 118.401 222.809 117.727 222.627 117.016C222.457 116.308 222.447 115.572 222.596 114.859C222.628 114.7 222.713 114.556 222.837 114.451C222.961 114.345 223.117 114.285 223.279 114.279C223.442 114.274 223.602 114.323 223.733 114.42C223.864 114.516 223.958 114.654 224.001 114.811L224.029 114.92C224.142 115.392 224.331 115.843 224.59 116.253C224.861 116.638 225.177 116.987 225.533 117.295C225.918 117.599 226.327 117.871 226.757 118.107C226.975 118.23 227.197 118.342 227.425 118.44C227.629 118.536 227.839 118.618 228.053 118.686L226.127 119.073C227.511 117.338 229.211 115.88 231.137 114.777C233.121 113.65 235.524 112.995 237.902 113.093C240.222 113.208 242.468 113.949 244.4 115.238C245.32 115.839 246.166 116.547 246.92 117.347C247.68 118.129 248.33 119.01 248.853 119.966C248.929 120.107 248.956 120.27 248.93 120.429C248.905 120.588 248.827 120.734 248.71 120.844C248.593 120.954 248.443 121.023 248.283 121.04C248.123 121.056 247.962 121.02 247.825 120.936L247.761 120.896Z" fill="#102770"/>
<path d="M231.65 118.379C231.221 118.298 230.806 118.155 230.418 117.955C230.056 117.771 229.715 117.546 229.403 117.286C228.763 116.747 228.221 116.101 227.801 115.377C227.355 114.629 227.053 113.804 226.91 112.945C226.779 112.096 226.899 111.227 227.254 110.445C227.274 110.403 227.301 110.367 227.335 110.336C227.37 110.306 227.409 110.283 227.453 110.268C227.496 110.253 227.541 110.246 227.587 110.249C227.633 110.252 227.677 110.263 227.718 110.283C227.767 110.307 227.809 110.342 227.842 110.385L227.866 110.419C228.25 110.951 228.707 111.427 229.222 111.834C229.675 112.166 230.153 112.465 230.65 112.726C231.143 112.985 231.65 113.198 232.118 113.465C232.356 113.6 232.586 113.746 232.809 113.903C233.013 114.06 233.283 114.255 233.379 114.43L233.883 115.35C234.073 115.696 234.16 116.09 234.133 116.484C234.107 116.878 233.968 117.257 233.733 117.575C233.499 117.893 233.178 118.137 232.809 118.278C232.44 118.42 232.038 118.453 231.651 118.373L231.65 118.379Z" fill="#102770"/>
<path d="M281.348 112.014C281.38 110.955 281.551 109.906 281.856 108.892C282.147 107.867 282.554 106.878 283.069 105.945C284.132 103.974 285.677 102.305 287.56 101.094C289.515 99.8919 291.755 99.2325 294.049 99.1832C296.218 99.156 298.372 99.549 300.392 100.341L298.633 100.901C298.789 100.742 298.935 100.573 299.07 100.396C299.222 100.205 299.364 100.004 299.499 99.8019C299.767 99.4025 300.002 98.9816 300.201 98.5436C300.376 98.1203 300.5 97.6776 300.57 97.2248C300.614 96.7625 300.579 96.2962 300.467 95.8456L300.443 95.7458C300.408 95.5928 300.425 95.4323 300.493 95.2904C300.56 95.1486 300.674 95.0338 300.815 94.9648C300.956 94.8958 301.116 94.8765 301.27 94.9102C301.423 94.944 301.561 95.0287 301.66 95.1505C302.109 95.7017 302.425 96.3485 302.585 97.0411C302.73 97.7335 302.755 98.4454 302.659 99.1462C302.572 99.8216 302.403 100.484 302.155 101.118C302.039 101.432 301.905 101.738 301.753 102.036C301.6 102.357 301.422 102.666 301.224 102.961C301.063 103.197 300.836 103.381 300.573 103.49C300.309 103.599 300.019 103.63 299.738 103.577L299.465 103.524C297.68 103.185 295.925 103.051 294.269 103.195C292.653 103.33 291.086 103.812 289.674 104.607C288.28 105.407 287.003 106.509 285.853 107.842C285.275 108.507 284.734 109.228 284.197 109.979C283.659 110.729 283.167 111.55 282.694 112.338L282.66 112.397C282.58 112.53 282.458 112.633 282.313 112.69C282.169 112.746 282.01 112.754 281.86 112.711C281.711 112.668 281.58 112.577 281.488 112.452C281.396 112.327 281.348 112.175 281.351 112.02L281.348 112.014Z" fill="#102770"/>
<path d="M292.194 99.9227C292.205 99.7194 292.347 99.4297 292.456 99.1968C292.579 98.9569 292.714 98.7236 292.861 98.4979C293.143 98.0456 293.499 97.6253 293.804 97.1804C294.123 96.7325 294.407 96.2607 294.654 95.7692C294.922 95.1966 295.104 94.5879 295.195 93.9624L295.201 93.9266C295.21 93.87 295.234 93.8166 295.269 93.7716C295.305 93.7267 295.352 93.6917 295.405 93.67C295.458 93.6483 295.516 93.6407 295.573 93.6479C295.63 93.6551 295.684 93.6768 295.73 93.7109C296.373 94.1904 296.839 94.9262 297.12 95.7347C297.584 97.3246 297.493 99.0248 296.863 100.556C296.712 100.916 296.522 101.259 296.296 101.577C296.058 101.918 295.772 102.224 295.448 102.484C295.145 102.732 294.778 102.888 294.389 102.931C294 102.974 293.607 102.904 293.258 102.728C292.908 102.553 292.617 102.279 292.42 101.941C292.223 101.604 292.128 101.216 292.147 100.825L292.194 99.9227Z" fill="#102770"/>
<path d="M328.582 522.984V421.357H491.275V522.984H328.582Z" fill="#F28C37" stroke="#390075" stroke-width="4"/>
<path d="M329.123 431.489V421.292H490.734V431.489H329.123Z" fill="#EF7937" stroke="#390075" stroke-width="4"/>
<g style="mix-blend-mode:screen" opacity="0.21">
<path d="M490.16 438.439L406.592 521.999H490.16V438.439Z" fill="#F28C37"/>
</g>
<path d="M2 523V394.815H164.693V523H2Z" fill="#FDBF30" stroke="#390075" stroke-width="4"/>
<path d="M2.54077 405.012V394.815H164.151V405.012H2.54077Z" fill="#FCAF32" stroke="#390075" stroke-width="4"/>
<g style="mix-blend-mode:screen" opacity="0.21">
<path d="M162.693 410.487L51.1543 522H162.693V410.487Z" fill="#FDBF30"/>
</g>
<path d="M164.807 522.985V343.47H327.5V522.985H164.807Z" fill="#FDDF3F" stroke="#390075" stroke-width="4"/>
<path d="M164.775 354V343H326.775V354H164.775Z" fill="#FCC742" stroke="#390075" stroke-width="4"/>
<g style="mix-blend-mode:screen" opacity="0.27">
<path d="M326.828 410.487L215.306 522H326.828V410.487Z" fill="#FDDF3F"/>
</g>
<path d="M254.775 395V456H243.552V404.499H230.775V395H254.775Z" fill="white"/>
<path d="M97.1905 476.028V483H64.4863V477.486L82.106 460.754C84.0919 458.852 85.4229 457.204 86.099 455.81C86.8173 454.373 87.1764 452.958 87.1764 451.563C87.1764 449.493 86.4793 447.908 85.0849 446.81C83.6905 445.711 81.6412 445.162 78.937 445.162C74.4159 445.162 70.9511 446.704 68.5426 449.789L62.775 445.352C64.5074 443.028 66.8314 441.232 69.7469 439.965C72.7046 438.655 76.0004 438 79.6342 438C84.4511 438 88.2962 439.141 91.1694 441.423C94.0426 443.704 95.4793 446.81 95.4793 450.739C95.4793 453.148 94.9722 455.408 93.9581 457.521C92.944 459.634 91.0004 462.042 88.1271 464.746L76.275 476.028H97.1905Z" fill="white"/>
<path d="M413.194 473.246C416.307 473.641 418.682 474.725 420.319 476.5C421.957 478.275 422.775 480.493 422.775 483.155C422.775 485.16 422.277 486.984 421.282 488.627C420.287 490.27 418.779 491.585 416.757 492.57C414.766 493.523 412.327 494 409.438 494C407.031 494 404.703 493.655 402.457 492.965C400.242 492.242 398.348 491.256 396.775 490.007L399.471 485.028C400.691 486.08 402.168 486.918 403.901 487.542C405.666 488.134 407.48 488.43 409.342 488.43C411.557 488.43 413.29 487.969 414.542 487.049C415.826 486.096 416.468 484.815 416.468 483.204C416.468 481.594 415.858 480.345 414.638 479.458C413.45 478.538 411.621 478.077 409.149 478.077H406.068V473.69L413.723 464.373H398.412V459H421.379V463.289L413.194 473.246Z" fill="white"/>
</svg>
